/* XPM */
static char *fd4b23cb633b4dffe697a93876948dc686k6x7sewXLn84vv[] = {
/* columns rows colors chars-per-pixel */
"64 64 76 1 ",
"  c #00AC9F",
". c #00ADA0",
"X c #00B2A6",
"o c #00BFA0",
"O c #00B8AD",
"+ c #00BCB2",
"@ c #00BDB3",
"# c #00BFB5",
"$ c #00C0A1",
"% c #00C2A4",
"& c #00C4A8",
"* c #00C4A9",
"= c #00C5A9",
"- c #00C5AA",
"; c #00C6AC",
": c #00C7AC",
"> c #00C8AF",
", c #00C1B7",
"< c #00C9B0",
"1 c #00CBB4",
"2 c #00CCB5",
"3 c #00CDB7",
"4 c #00C2B8",
"5 c #00C3B9",
"6 c #00C4BA",
"7 c #00C5BC",
"8 c #00C6BD",
"9 c #00C7BE",
"0 c #00CEB9",
"q c #00CFBB",
"w c #00D0BC",
"e c #00D1BD",
"r c #00D1BE",
"t c #00D2BF",
"y c #05C9C1",
"u c #0ACAC2",
"i c #19CEC6",
"p c #1ECFC7",
"a c #00D3C2",
"s c #00D4C2",
"d c #00D5C5",
"f c #00D7C7",
"g c #00D7C8",
"h c #00D8C8",
"j c #00D9CA",
"k c #00DACD",
"l c #00DCCF",
"z c #00DED3",
"x c #00DFD5",
"c c #00E0D6",
"v c #00E1D7",
"b c #00E2D9",
"n c #00E3DB",
"m c #00E5DD",
"M c #00E5DF",
"N c #00E7E1",
"B c #00E8E3",
"V c #00E9E4",
"C c #00E9E5",
"Z c #00EAE6",
"A c #00EBE8",
"S c #00ECEA",
"D c #00EDEB",
"F c #00EDEC",
"G c #00EEED",
"H c #00EFEE",
"J c #00F0F1",
"K c #00F1F3",
"L c #00F2F3",
"P c #00F3F5",
"I c #00F3F6",
"U c #00F4F7",
"Y c #00F6F9",
"T c #00F6FB",
"R c #00F7FC",
"E c #00F8FE",
/* pixels */
"....................++++56#6#####+@@++++55888899uuuuiiiipppp@@@@",
"....................++++6##6####@@@@++++85558y99uuuuiiiipppp@@@@",
"....................++++#66#####@@@@++++85558889uuuuiiiipppp@@@@",
"....... ............++++6#66####@@@@++++55558y99uuuuiiiipppp@@@@",
"@@@@EEERTTUUUUULPLJPJLFLFFFDADDCSBABNNNNmNMmnnvnnvvvzzzzlzll,@,@",
"@@@@E$$$$$&&&&&&;&&;&<<<<<121100000qrrrraraaddfdjdjdjjjlllll@,@,",
"@@@@T$EERRTUUTTPPPJLPLFHFFFDFACCBABBNNNmNmmnnvvnvvxvzzlllklk,@,@",
"@@@@R$EERRTTUUPPPJLJLFHFFHFFADCCCBNNNNMNmmnnvnnxvvzzzzzlklvj@,@,",
"5555RoURTUURUULLLLJLDFFHFAAAABABBBBNMMMnmnnnnvxvzvzzzzlllkzj####",
"5555RoRRTTUUULLLLLJFLFFFDFAACABBBBNNMNMMnnvvvvxxxzlzllkkkjvj####",
"5555R%TPUUUULLLLLFLHFFDDFACAACBBNNNMmmnmvnnvvxvzzzzllklkkjvd####",
"5555U*TTUUULLLLLLHFFFFFDAACACCBBNMMMmMmnnvnxvzzzzlzlklkkjjxj####",
"5588P*URPPPULLHLFFFHFDDCACCCBBBNNMMMnnnvvnxvxxzzllllkkkjjjvf####",
"8858P*RPPPPFHLLFLHHFDFCDCACCBNNMMMMMnnvnnzxxxzzlzlklkkjjjdvf####",
"8888U*PPPPLLLLDFFFFDDCDCCCCCBNNmMMnnnvnvzxxxzzlzllljkjjjgdvf####",
"5858P&PPPLLLFFLFFDDFCDCCCCNCNMMmMMxmnvvvnzxxzzllklkjjjjfdjnd####",
"5866P;PPFPLJFFFFHDAFCCACBBBNNMmmmnvnnvvvzvzzzzlllkkjjdjffsnd66,6",
"7566P&PLLLFJFFFFDDDACCCCBBNMMMmmnnnvvvzzxzlzllkkkjjjjfjdsfns66,6",
"5556L;JPLLFHHFHDAADCCCCBNBNmMnMmnnvnvzzxzzzllkzkkjjjffdafams6,66",
"5866J;JJFPHFFHDDDCCCCCBNMMMmMMnvnvnxvxvzzlzlklkkjjdjfdjjssna666,",
"6666J<JJLFFHFAAACCABCBNNMMMmmnvnvnznzxzzllllkkkjjjfffsdsaama,,66",
"6666J;LFFFHFDFAAAABBBBNNMMMnnnnvnzxzvzzlzlklkkjjjjffsfssarNa666,",
"6666U<FFFLFDFAACCCBBBNNMNMnmnnvnxxxxzlzzllljkjjjdffffasaarmr666,",
"6666F<FFFFAFAAACCCBNNMMMmnmnnvnxvxxxzzllklkjjjdjjdfssaaarrBr,,66",
"6666F2FFFADACACCCBBNMMMmmnnvnvvvxxzzllllkkkjjjfffffssssrsrmr,,,,",
"6666F<FLDDDCCACCBBNMMMMnnnvnvxzxxzzlzllkkkjjdjffsfssssrrrrNr,,,,",
"6666F2FAFAACABBBBNNMMMmmnvnvxvvzzzkzllkkkjjjjffsdsssrrrrrrB0,,,,",
"6666A2DFADCCBBBNNMMMNmnvvnvvvxzzzzllklkjjjjfjdsfasssrsrwr0Br,,,,",
"6666D2AACCCCCBBNMMmmmnvnnvxnzxzzzzlklkkjjjjdfsfsaarrrrrw00Br,@,@",
"6666D2AACCCCBBNMMMmmnnnvvvxxzzzllllkkjjjdjdjfdssaararwwwrrC2@,@,",
"6666D2CCFCCBNNNMMnMmnnvnxnzxzzlzklkkkjjjffdjsssssarrwwwr22Ar,@,@",
"6666C0CDCBBNNNMMMMnmvvvvxxxzzzzklkkkjjjjdjsdssssrrrrww0000C2@,@,",
"8885A0ABBBNMMMMMnmvnvvvxvzzzlzlkkkjjjjjdffsssasrrrrrr00022A0O,OO",
"8588BqBBBBBMMMMMmvnvvvvzzzzlzllkkkjjjdffsfssaarrrrwwr00222D2@O@&",
"5858BqBBBNNMMMnmnnvnvxzvzzlzklkkjkjjfffffsssarsrwwww002222C2+O@@",
"88y5BqBBNMmmmnmvvnnxvxxzzlzllkkkjjjjfffsssssrrrrw0r2022222F2O++O",
"8888BqBBNMMMMnnnnnznzxzvllllkkkkjjfffsfsssttrrwwwwr202222<F>5,,,",
"8888NaNNMMnMnnvnvxxzvzllzlllkkjjdffdsfaassttrwwwr2200222<2F2,,,,",
"8888NqNmmmMnvnvnxxxxzzlzllkjjjjjjjdjdssattrrrwr0202222>2<<H<,,,,",
"8888NqMmmmmvnvnxxxxzzlzlklkkjjjffdajssaattrwww002002222><<F>,,,,",
"8888NqNMmnnvnvxvxxzzllllkkkkjjfffsfssssrrrrrw00002w222>><<F<OOOO",
"8888NaMMnvnnnxxxxzzlzlklkkjjjdffsfasssrrrrwwr0022<2<<<>>><L<OOOO",
"8888msnMvnvnzxxxzzkzllljjjjjffffdssasrrrwwww0022022<<<>><>L;OOOO",
"8888mamxnvnvnzxxzzxkklkjjjjffffsssaarrrww0r2w2220<2<<<>>;;L;OOOO",
"9999nsmnnvxxvzzzzzlklkkjjjjffffssasrarwwwwr2202222<<>>>>&&U>XXXX",
"9999manvvvvxzzzlllllkjjjffdfsfssaarrrrwwr2022222><<>>>::>&U&XXXX",
"9988nfvnvxzvzzlzklkkkjjjdfdsdsssararrwwr2w2022<2<<>><>&>&&U&XXXX",
"9988vdnzvzxzzlzllkkkjjgjjdjgasssrrrrww022022222><>>>&>>&:&U&XXXX",
"9999vdvvxxzzllllkkkjjjfffffsssrrrrwwwr022w222<>><>>>;&>&&&P*XXXX",
"9999ndvxzzzlzlklkkjjdjfffsaassrsrrwr22r022<w<2>><>>&;;&&%&T*XXXX",
"9999xjvzzzlzllljkjjjjffsdsaasrrrrww2w00202<<<<>>>>>&&;&&&&U*XXXX",
"9999vjzzzzzkklkjjjjfjdsfssaarrrwwwr002222<2<<<>>&>>&&&$&%%R%XXXX",
"9999vjzzzzlklkkjjjdfdadssasrarrwwr2r022022<<>>>>:&&&&&&&*oR%XXXX",
"9999vkzlllllkjjjjfjdjjsssrrrrr000222202<<<<>>>&>>::&&%o&o%R%.XX.",
"9999zkzzklkkkjjjffffaasssrsrr0rr0002<22<<<>>>>;>&&&=&%%%%oR%XXXX",
"9999zjlllkkkjjdjffsdssssrrrrqrr2020202<2<>>>;>;&&:%%&%o%%oRoXX.X",
"8888zllkkkjjjjdffsfsssarrrwwrr2r20222>2>;<;;<*&&&&*%&$$$ooE$..  ",
"8888llkkkkjjjjfffsssaarrrwww22r22222>2>><;;<&&&&%%$*$&$$ooE$..  ",
"8888lzzzzvvvxvvnnnmmmmNNBBBBCCBCADADFDHHJJJLPPPTRTTPRRRERREo    ",
"8888kkkkjjdjdffdfsrsarrawww0wrr2222222>2<<;;<&&&&$&&&ooo%o$o    ",
",,,,,,,,,,,,6,,,,,,,,,,,9999,,,,,5,59yyy888888888888,5,5@@@@+O@O",
",,,,,,,,,,,,,,,,,,,,,,,,9999,,,,5,5,uyyy8888888888865,5,,@,@O@O@",
",,,,,,,,,,,,,,,,,,,,,,,,9999,,,,,5,5yyyy888888888886,5,,@@@,@O@O",
",,,,,,,,,,,,,,,,,,,,,,,,9999,,,,5,5,yyyy8888888875885,5,,@,,O@O@"
};
