/* XPM */
static char *_7abe72826a74aedafe56711bd009e589SnvUPl1ZPQMDb7k[] = {
/* columns rows colors chars-per-pixel */
"64 51 182 2 ",
"   c None",
".  c black",
"X  c #010000",
"o  c #010100",
"O  c #020100",
"+  c #020200",
"@  c #1D1300",
"#  c #1E1200",
"$  c #1E1300",
"%  c #191400",
"&  c #1A1500",
"*  c #1B1600",
"=  c #1C1600",
"-  c #1D1700",
";  c #191800",
":  c #1A1900",
">  c #1B1B00",
",  c #1C1B00",
"<  c #1D1D00",
"1  c #1E1E1A",
"2  c #201400",
"3  c #211500",
"4  c #221400",
"5  c #201F00",
"6  c #212100",
"7  c #222100",
"8  c #212112",
"9  c #21211D",
"0  c #22211D",
"q  c #22221C",
"w  c #21211E",
"e  c #6F4400",
"r  c #704600",
"t  c #744500",
"y  c #764600",
"u  c #744800",
"i  c #754900",
"p  c #6B5300",
"a  c #725600",
"s  c #725700",
"d  c #725900",
"f  c #6C6900",
"g  c #726D00",
"h  c #727000",
"j  c #6F6F5E",
"k  c #706F60",
"l  c #747461",
"z  c #767562",
"x  c #747465",
"c  c #757565",
"v  c #875100",
"b  c #835500",
"n  c #965C00",
"m  c #975D00",
"M  c #926F00",
"N  c #9F7600",
"B  c #9F7B00",
"V  c #A26100",
"C  c #A16300",
"Z  c #A46200",
"A  c #A26400",
"S  c #AF6800",
"D  c #AB6C00",
"F  c #A07700",
"G  c #928F00",
"H  c #969300",
"J  c #979400",
"K  c #9F9700",
"L  c #9F9C00",
"P  c #A09C00",
"I  c #A19D00",
"U  c #A29E00",
"Y  c #A49F00",
"T  c #ABA600",
"R  c #AFAA00",
"E  c #DF8700",
"W  c #DC9F00",
"Q  c #E38700",
"!  c #E48700",
"~  c #E18900",
"^  c #E28900",
"/  c #E58900",
"(  c #E78900",
")  c #F08E00",
"_  c #F59100",
"`  c #FF9500",
"'  c #FF9600",
"]  c #FF9700",
"[  c #FF9800",
"{  c #FF9900",
"}  c #FF9A00",
"|  c #FF9B00",
" . c #DCA000",
".. c #DDA000",
"X. c #DEA200",
"o. c #E0A200",
"O. c #ECA700",
"+. c #FFA000",
"@. c #FFA200",
"#. c #FFA400",
"$. c orange",
"%. c #FFA700",
"&. c #F2AA00",
"*. c #FFA800",
"=. c #FFA900",
"-. c #FFAF00",
";. c #FFB000",
":. c #FFB100",
">. c #FFB200",
",. c #FFB300",
"<. c #FFB400",
"1. c #FFB500",
"2. c #FFB600",
"3. c #FFB700",
"4. c #FFB800",
"5. c #FFB900",
"6. c #FFBA00",
"7. c #FFBD00",
"8. c #DCD600",
"9. c #DDD600",
"0. c #DED800",
"q. c #DFD900",
"w. c #FFC800",
"e. c #FFCB00",
"r. c #FFCC00",
"t. c #E0D900",
"y. c #E2DC00",
"u. c #E4DD00",
"i. c #FFD000",
"p. c #FFD300",
"a. c #FFD800",
"s. c #FFDC10",
"d. c #E7E000",
"f. c #ECE50E",
"g. c #F2EB00",
"h. c #F5EE00",
"j. c #FFEE00",
"k. c #FFEF00",
"l. c #FFF100",
"z. c #FFF200",
"x. c #FFF700",
"c. c #FFF800",
"v. c #FFF900",
"b. c #FFFA00",
"n. c #FFFB00",
"m. c #FFFC00",
"M. c #FFFD00",
"N. c #FFF70F",
"B. c #FFF719",
"V. c #FFF71A",
"C. c #FFF818",
"Z. c #FFF81D",
"A. c #FFF91D",
"S. c #83825A",
"D. c #878666",
"F. c #DFDC72",
"G. c #FFF76B",
"H. c #F0EC76",
"J. c #FFFB72",
"K. c #FFFC77",
"L. c #FFFB78",
"P. c #FFFB81",
"I. c #FFFD81",
"U. c #DFDEBB",
"Y. c #DFDEBF",
"T. c #E1E1BE",
"R. c #E3E2BF",
"E. c #E4E3BC",
"W. c #E5E4BE",
"Q. c #FFFDB9",
"!. c #FFFDBC",
"~. c #FFFDBD",
"^. c #FFFFBC",
"/. c #FFFEBE",
"(. c #FFFEBF",
"). c #FFFED1",
"_. c #FFFFD1",
"`. c #FFFED2",
"'. c #FFFFD4",
"]. c #FFFED5",
"[. c #FFFFD5",
"{. c #FFFED6",
/* pixels */
"                                                                                                                                ",
"                                                                                                                                ",
"                                                                                                                                ",
"                                                                                                                                ",
"                                                                                                                                ",
"                                                                                                                                ",
"                                                        . . . . . . . .                                                         ",
"                                                        . . . . . . . .                                                         ",
"                                                        . . . . . . . .                                                         ",
"                                                      > f h h g d s d p %                                                       ",
"                                                . . . , q.b.b.l.7.<.<.X.= . . .                                                 ",
"                                                . . . > 8.b.x.j.5.>.>.X., . . .                                                 ",
"                                                . . . > 8.b.x.j.7.>.<.W % . . .                                                 ",
"                                              1 k c x S.f.b.x.j.5.<.<.O.b u u e $                                               ",
"                                        . . . 9 W.`.].~.Z.x.b.j.5.<.<.-.| ` | / 4 . . .                                         ",
"                                        . . . q E.`.`.~.Z.x.x.j.5.<.>.>.| ` ` / 4 . . .                                         ",
"                                        . . . 1 T.].]._.C.b.b.j.5.>.>.>.| ` ` Q $ . . .                                         ",
"                                      1 j z z D.H.K.L.G.s.a.a.p.5.>.>.-.| ` | ) v y y e =                                       ",
"                                . . . 9 T.`.].^.B.x.x.j.5.>.>.>.>.>.>.>.` ` ` ` ` | | ~ 4 . . .                                 ",
"                                . . . 9 U.).).^.B.x.b.l.5.>.>.<.>.<.>.>.| ` | ` ` ` | E 4 . . .                                 ",
"                                . . . 9 U.).`.Q.B.x.x.j.5.>.>.<.<.>.<.>.| ` ` ` ` ` ` E 3 . . .                                 ",
"                                . . . 9 U.`.`.Q.B.x.x.j.5.>.<.>.>.<.>.>.#.@.@.| | ` | E 3 . . .                                 ",
"                                . . . 9 U.).`.Q.B.x.b.j.5.<.>.<.>.<.>.>.>.<.>.>.| ` ` E 4 . . .                                 ",
"                                . . . q U.).`.Q.B.x.b.l.5.>.<.>.<.>.<.>.<.>.>.-.| ` ` E 4 . . .                                 ",
"                                . . . 9 U.).`.Q.C.x.x.j.7.>.>.<.>.<.>.<.>.<.>.>.` ` | E 4 . . .                                 ",
"                                . . . 9 U.).`.Q.C.x.b.j.5.>.<.>.<.>.<.>.<.>.>.-.| ` ` E 4 . . .                                 ",
"                                . . . 9 U.).`.^.B.x.x.j.5.>.>.<.>.<.>.<.<.>.>.-.| ` | E 4 . . .                                 ",
"                                . . . 9 U.).`.^.B.x.b.j.5.>.<.>.<.>.<.>.>.<.>.-.| ` ` E 4 . . .                                 ",
"                                . . . 9 Y.].].~.B.x.b.j.5.>.>.<.<.>.>.>.<.<.<.>.| ` ` E 4 . . .                                 ",
"                                . . . 8 F.I.P.J.N.x.b.j.5.>.<.>.>.<.>.>.=.#.=.#.| ` ` E 4 . . .                                 ",
"                                . . . 6 q.b.x.x.x.x.b.j.5.>.<.<.<.>.>.>.| ` ` ` ` ` | E 4 . . .                                 ",
"                                . . . 6 q.b.x.x.x.x.x.j.5.>.<.>.>.<.>.>.` | ` ` | ` ` E 4 . . .                                 ",
"                                . . . 6 t.b.b.M.x.x.b.j.<.>.>.>.<.>.>.>.| ` ` ` ` | | ~ 4 . . .                                 ",
"                                . . . 6 H T P R h.x.x.l.p.e.e.w.<.<.>.>.` ` | _ S C Z n 4 . . .                                 ",
"                                        . . . 7 u.b.x.x.x.x.b.j.5.>.<.-.| | ` Q 4 . . .                                         ",
"                                        . . . 7 u.b.x.x.x.x.x.j.5.<.<.>.` ` ` ! 4 . . .                                         ",
"                                        . . . 7 u.M.b.b.x.x.b.j.5.>.>.-.| | | ! 4 . . .                                         ",
"                                        . . . 6 J Y P T g.x.x.j.5.>.<.&.D C Z m 4 . . .                                         ",
"                                                . . . < 8.x.b.j.7.>.<.X.= . . +                                                 ",
"                                                . . . < 8.b.b.j.5.<.<.X.= . . .                                                 ",
"                                                . . . , t.M.b.l.7.<.5.o.= . . .                                                 ",
"                                                . . . > G P P P B N F M , . . .                                                 ",
"                                                        . . . . + . . .                                                         ",
"                                                        . . . . . . . .                                                         ",
"                                                        . . . . . . . .                                                         ",
"                                                        . . . . . . . .                                                         ",
"                                                                                                                                ",
"                                                                                                                                ",
"                                                                                                                                ",
"                                                                                                                                ",
"                                                                                                                                "
};
