/* XPM */
static char *_86f8e977caf49088b6df023d29a355fyzuLQCHDJzGznuOC[] = {
/* columns rows colors chars-per-pixel */
"64 64 213 2 ",
"   c None",
".  c #342A22",
"X  c #313432",
"o  c #7F1E02",
"O  c #452A1D",
"+  c #5A2E1B",
"@  c #74290C",
"#  c #6E2D13",
"$  c #473229",
"%  c #563326",
"&  c #483D38",
"*  c #462F23",
"=  c #7B3F24",
"-  c #653822",
";  c #4C433D",
":  c #5D4339",
">  c #76442C",
",  c #754A3C",
"<  c #704936",
"1  c #2C424D",
"2  c #354E5E",
"3  c #364F5F",
"4  c #224F6D",
"5  c #29506C",
"6  c #3C5161",
"7  c #265271",
"8  c #345D7A",
"9  c #3D627E",
"0  c #49535B",
"q  c #58585B",
"w  c #52504F",
"e  c #6A4F43",
"r  c #68554C",
"t  c #78584A",
"y  c #695E5B",
"u  c #6D504C",
"i  c #6F615F",
"p  c #74625D",
"a  c #796358",
"s  c #475A6B",
"d  c #535D67",
"f  c #625E63",
"g  c #5D626B",
"h  c #57626F",
"j  c #4C6275",
"k  c #43637B",
"l  c #556572",
"z  c #5F777E",
"x  c #6B6263",
"c  c #646569",
"v  c #687274",
"b  c #786A61",
"n  c #801F02",
"m  c #852403",
"M  c #892703",
"N  c #852906",
"B  c #8B2904",
"V  c #8D2D09",
"C  c #832D0E",
"Z  c #912C08",
"A  c #8E310B",
"S  c #93310B",
"D  c #99340B",
"F  c #9E390D",
"G  c #943613",
"H  c #993C17",
"J  c #A33C0F",
"K  c #A43E10",
"L  c #9E4119",
"P  c #AC4514",
"I  c #AE4816",
"U  c #A74112",
"Y  c #BE4B16",
"T  c #B44C1A",
"R  c #BC4C1C",
"E  c #B54916",
"W  c #BC551D",
"Q  c #B5531E",
"!  c #9B4724",
"~  c #8B553A",
"^  c #955A3C",
"/  c #9A5938",
"(  c #914B2D",
")  c #A44C2D",
"_  c #A54A27",
"`  c #B75827",
"'  c #A95735",
"]  c #AD562C",
"[  c #BF622F",
"{  c #A4623E",
"}  c #AD623A",
"|  c #AC6036",
" . c #B36336",
".. c #B76536",
"X. c #C14E16",
"o. c #C4541C",
"O. c #C5581E",
"+. c #C95A1E",
"@. c #C55116",
"#. c #C45B21",
"$. c #CB5D22",
"%. c #C45F28",
"&. c #CE6225",
"*. c #C5632B",
"=. c #C9642A",
"-. c #CE692B",
";. c #D16425",
":. c #D56927",
">. c #D46B29",
",. c #D96E2A",
"<. c #D56927",
"1. c #DD742D",
"2. c #D3712F",
"3. c #C56837",
"4. c #C8733A",
"5. c #D67532",
"6. c #E0772E",
"7. c #E1792F",
"8. c #E37B31",
"9. c #E07730",
"0. c #8A5C44",
"q. c #975D42",
"w. c #825F50",
"e. c #B15E41",
"r. c #A95D42",
"t. c #8D624C",
"y. c #8B6147",
"u. c #9D6244",
"i. c #93634A",
"p. c #9C6749",
"a. c #836253",
"s. c #886858",
"d. c #9C7153",
"f. c #A26341",
"g. c #AB6B43",
"h. c #B56648",
"j. c #BC6F54",
"k. c #B47055",
"l. c #9A7567",
"z. c #907F7E",
"x. c #A07465",
"c. c #C5694A",
"v. c #C5765A",
"b. c #D07958",
"n. c #C47B62",
"m. c #AD8476",
"M. c #BF826C",
"N. c #D88245",
"B. c #D88859",
"V. c #CC8469",
"C. c #C88466",
"Z. c #D68B6E",
"A. c #DA8E6F",
"S. c #DE956C",
"D. c #D88F75",
"F. c #D5937B",
"G. c #D7947B",
"H. c #CD9078",
"J. c #E29E6F",
"K. c #E49C74",
"L. c #E19571",
"P. c #DDA07A",
"I. c #E3A36E",
"U. c #E5A175",
"Y. c #E6A57A",
"T. c #2B6289",
"R. c #346283",
"E. c #3A6683",
"W. c #4D6F82",
"Q. c #BD9182",
"!. c #DA9D85",
"~. c #D89C87",
"^. c #CA9889",
"/. c #E29E8B",
"(. c #DDA48B",
"). c #DBA391",
"_. c #E2A28A",
"`. c #E9BE8C",
"'. c #E2A692",
"]. c #E4AA95",
"[. c #E6AE9A",
"{. c #E8AB98",
"}. c #E7B19B",
"|. c #E9B59E",
" X c #E9B99F",
".X c #E5B698",
"XX c #EBBCA3",
"oX c #E8B5A0",
"OX c #EAC08E",
"+X c #EBC998",
"@X c #EDC2A6",
"#X c #EEC5A9",
"$X c #EFCAAC",
"%X c #EBC8A6",
"&X c #F0CDAE",
"*X c #F3D6A8",
"=X c #F1D9AA",
"-X c #F1CFB0",
";X c #F2D3B3",
":X c #F4D9B6",
">X c #F5DDB9",
",X c #EFD7A7",
"<X c #F7E2BC",
"1X c #F8E5BE",
"2X c #F6EDB9",
"3X c #FAEABD",
"4X c #F5EBB7",
"5X c #F9E6C0",
"6X c #FAEBC3",
"7X c #FCF1C6",
"8X c #FDF5C9",
"9X c #FEF8CB",
"0X c #FFFBD1",
/* pixels */
"                                                                                                                                ",
"                                                            9X9X0X                                                              ",
"                                                          9X9X8X8X9X9X                                                          ",
"                                                        9X9X9X9X9X9X9X9X                                                        ",
"                                                    9X9X9X9X9X9X9X8X9X9X9X                                                      ",
"                                                  0X9X9X9X9X9X9X9X9X9X9X9X9X9X                                                  ",
"                                                9X9X9X9X8X9X9X7X8X9X9X9X9X9X9X9X                                                ",
"                                            7X9X9X9X9X8X9X9X6XXX@X8X9X8X9X9X9X9X9X7X                                            ",
"                                          ;X-X8X9X9X9X9X9X7X@X}.[.;X9X9X9X9X9X9X7X%X>X                                          ",
"                                        9X8X*X$X8X9X9X9X9X*X[.:X*X[.>X8X9X9X9X6X#X>X9X9X                                        ",
"                                    9X9X9X9X8X;X$X7X9X9X;X{.;X9X7X@X}.<X9X9X5X#X>X9X9X9X9X                                      ",
"                                  6X9X8X9X9X9X9X;X&X6X;X[.$X8X9X9X8XXX}.1X5X#X<X9X9X9X9X9X0X>X                                  ",
"                                6X$X1X9X9X9X9X9X9X:XoX{.&X7X9X9X9X9X7XXX}.XX<X9X9X9X9X9X8X:X*X7X                                ",
"                              9X9X6X$X<X9X9X9X9X8X*X{.$X8X9X9X9X9X9X9X6XXX}.>X9X9X9X9X8X;X-X8X8X9X                              ",
"                            9X9X9X9X7X-X;X8X9X8X$X].-X8X9X9X9X6X6X9X9X9X7X@X[.;X8X9X8X-X;X8X9X9X9X9X                            ",
"                          9X9X9X9X9X9X8X;X-X5X#X[.;X8X9X9X8X%Xj.C.>X9X9X9X7X%X[.*X5X$X>X9X9X9X9X9X9X9X                          ",
"                        9X9X8X9X9X9X9X9X9X;X}.{.:X9X9X9X5X(.) n m h.@X6X9X9X7X-X].|.<X9X9X8X9X9X9X9X9X9X                        ",
"                      9X9X9X9X9X9X9X9X9X1X.X}.@X>X9X9X:XH.L M n m M ) (.3X9X9X;XXX[.XX6X9X9X9X9X9X9X9X9X9X                      ",
"                    9X9X9X9X9X9X9X9X9X:X[.XX3X6X;X;X$Xn.G M B n m M B ! H.:X-X;X8X>X}. X1X9X9X9X9X8X9X9X9X9X                    ",
"                  9X9X9X9X9X9X9X9X8X;X{.@X7X9X9X5X'.h.Z M B B @ m M B B G j. X7X9X9X1X X}.<X9X9X9X9X9X9X9X9X                    ",
"                  9X9X9X9X9X9X9X8X;X].@X7X9X9X<X~.) B B B B M n A S B B M V h.].6X9X9X6X|.}.>X9X9X8X9X9X9X9X9X                  ",
"                9X9X9X9X9X9X9X9X;X].@X$X:X7X$XV.H M B B B B B B R W S M M B M _ G.>X7X;X$XXX}.<X9X9X9X9X9X9X9X9X                ",
"              9X9X8X9X9X9X9X9X>X[.@X7X7X$X|.j.G B B B B M B K E o.&.o.D m M B M H V. X;X8X5XoX|.5X9X9X9X9X9X9X9X9X              ",
"              9X9X9X8X9X9X9X5X|.XX7X9X>X'.' V M B B B M Z K $.X.o.&.&.O.D V B B N S j.}.3X9X5X}.XX7X9X9X9X9X9X9X9X              ",
"            ;X>X9X9X9X9X9X8XXX}.1X8X;X!.) V B B B B B Z T $.-.Y o.&.&.$.o.P V M m M V h.].>X8X:X{.&X9X9X9X9X9X7X>X              ",
"            7X<X;X5X8X9X9X;X].XX6X&X~.) B B B B B B D E $.&.;.R o.&.&.$.o.&.T S m M M B e.'.>X1X|.[.<X9X9X7X<X;X5X7X            ",
"            9X9X7X>X;X6X5X}.XXXX}.~._ M B B B B B K #.o.$.$.$.Y o.&.&.&.O.&.;.W V M B B M ' ].|.@X}.@X6X1X;X<X8X9X9X            ",
"            9X9X9X9X6X>XXX{.<X:X!.) M M B m m B P $.;.o.$.&.;.X.o.&.&.&.$.&.&.&.Y J B B B B h.].1X;X].#X<X7X9X9X9X9X            ",
"            9X9X9X9X9X6X}.@X<X{.e.B B B B m B I $.&.&.o.$.&.;.R o.&.&.&.;.&.&.&.o.$.K B B B V v.XX1X}.XX8X9X9X9X9X9X            ",
"            9X9X8X9X9X:X{.;XXXn.A B B B B B P ;.&.&.$.#.$.&.$.Y o.;.&.&.&.&.&.&.#.&.$.P B B B H F.$X$X[.5X9X9X9X9X9X            ",
"            9X9X9X9X8X@X}.$X!.! M B B B Z K $.;.&.&.&.$.&.$.$.Y o.&.&.&.&.&.&.&.&.&.&.%.K B B M ' ].#X{.;X9X9X9X9X0X            ",
"            7X8X9X9X8X X[.}.n.V B B B B I o.$.;.&.&.&.$.&.$.$.X.o.;.&.&.&.&.&.&.&.&.&.&.$.K m B G F.|.[.@X9X9X9X7X7X            ",
"            >X>X>X:X:X}.'./.) M B M B U &.O.+.&.&.;.&.&.;.O.+.Y o.$.&.&.&.&.&.&.&.&.&.;.;.$.Z n Z e.{.{.|.>X>X>X>X>X            ",
"            9X9X8X7X<X{.{.!.G B N # % ' &.O.$.&.&.$.$.;.;.O.$.Y o.;.&.&.&.$.&.&.&.&.&.$.f.a ~ C B _ /.{.XX5X7X8X8X9X            ",
"        0X9X9X9X9X9X8X<XXXn.B N O . 6 k } +.+.&.&.$.+.;.&.O.&.Y o.&.&.&.$.$.$.;.&.&.;.t.R.k E.: M G ~.@X5X9X9X9X9X9X9X          ",
"        9X9X9X9X9X9X9X9X:Xh.M @ . # d R.u.+.$.&.;.#.O.&.;.O.&.Y o.&.&.&.;.#.$.&.&.&.&.p T.a.q.s C V C.1X9X9X9X9X9X9X9X0X        ",
"        0X9X9X9X9X9X9X9X*X' m @ * L a.p a.a.{ &.;.$.+.&.&.+.&.Y o.&.&.&.$.o.$.;.*.p.a.a.p q.' f H M j.2X9X9X9X9X9X9X9X          ",
"        2X2X2X2X2X2X2X2X+X] B @ $ t | h h u.t.{ &.+.+.&.&.&.;.E o.;.&.&.;.$.$.$.i.i.q.k i ..f p ! B h.=X2X2X2X4X2X2X2X          ",
"            +XOX`.`.`.P.Z.( O . - / u.j 9 p u.{ ;.$.+.&.&.&.&.Y o.&.&.&.&.$.;.&.0.f.f R.c f.q.p s % h.D.Y.OX`.OXOX+X            ",
"            6X3X3X3X2X X(.s.. # J o.;. .i.u.u.=.&.&.&.&.&.&.;.Y o.&.&.&.&.&.=.;.3.q.q.i.[ ;.$.;.~ X x.'.=X3X3X3X6X6X            ",
"            0X9X9X9X9X:X{.l.O N % x } ;.;.&.&.&.;.;.&.&.&.&.;.Y o.&.&.&.&.&.&.&.;.%.$.;.$.u.c 0.` ; Q.}.6X9X9X9X9X              ",
"            9X9X9X9X9X6X|.m.+ B > x g %.$.;.;.-.;.;.&.&.&.&.&.Y o.&.&.&.;.$.&.&.$.$.$.;. .j a.{ ` e ^.XX8X9X9X9X9X              ",
"              9X9X9X9X8XXXQ.% A K 0.j %.$.;.;.<.:.:.:.:.-.;.&.Y #.&.&.&.$.;.$.$.$.$.$.;.f.E.' ;.` w ~.$X8X9X9X9X9X              ",
"              9X9X9X8X9X$X^.X $ & 8 p $.$.-.-. .{ { { [ ;.;.&.W o.&.&.&.[ q.' r.[ $.$.;.*.g E.x q q (.:X9X9X9X9X9X              ",
"              9X9X9X9X9X>X~.: X & t =.$.$.:.f.5 4 4 4 a :.:.:.@.o.;.;.*.0 7 7 4 6 ] $.$.;...p j 0 s.].3X9X9X9X9X9X              ",
"              9X9X9X9X9X5X_._ A F o.;.&.;.:.p W.a y.6 l -.:.:.@.$.;.;...8 d q.f R.q.;.;.$.;.;.*.Q h.oX7X9X9X9X9X9X              ",
"              9X8X9X9X9X6X|.) A = , f.*.;.,.g.W.z v 9 a >.>.:.@.$.;.;.=.f W.v W.l [ ;.;.` q.a.r.T v.$X9X9X9X9X9X0X              ",
"              8X7X7X8X8X8X#Xf.$ 1 2 R.f =.,.1.} a a ^ -.1.>.,.+.+.<.>.;.R , w , ] ;.;...l R.R.R.e V.;X9X8X7X7X7X                ",
"                >X>X>X>X>X@Xx.X : ! s 8 ..5.1.,.;.:.:.,.1.1.,.+.;.,.>.>.;.X.Y @.&.<.-.t.T.x ..q 6 H.&X:X>X>X:X:X                ",
"                9X8X8X8X8X>XV.X = W t b 4.7.1.6.7.7.7.7.7.7.6.;.;.,.>.>.:.:.;.>.<.>.:. .h p.:.r q (.6X8X8X8X9X9X                ",
"                9X9X9X9X9X5X~.( : ! #.2.>.1.1.6.8.7.7.7.7.7.7.:.,.1.1.,.,.,.>.,.,.>.>.<.#.&.u.r ' ].7X9X9X9X9X0X                ",
"                0X8X9X8X9X6X(.L > 2 r y.4.1.1.7.7.8.7.7.7.7.7.:.,.1.1.1.1.1.,.1.,.,.1...a.x h ( 3..X8X9X8X9X9X                  ",
"                9X9X9X9X8X8X}.t 1 2 6 8 l 4.1.1.8.8.8.8.7.8.7.,.,.7.6.6.6.1.1.1.1.1.g.k R.9 8 6 x.#X9X9X9X8X9X                  ",
"                  9X9X9X9X8XoXx ; r r a 9 b 7.8.8.8.8.8.8.7.7.,.6.7.9.9.9.6.6.1.1.5.h k a p t 0 z.*X9X9X9X9X9X                  ",
"                  9X9X9X9X9X#Xl.! < ~ { c v 7.8.8.8.8.8.8.8.8.1.7.8.8.8.9.6.6.6.6.4.k s.p.y.t ( Q.:X9X9X9X9X9X                  ",
"                  9X9X9X9X9X;Xv.I < ~ ^ l d.8.8.8.8.8.8.8.8.8.7.7.8.8.8.8.6.6.6.6.1.b c { y./ W H.5X9X9X9X9X                    ",
"                    ;X&X&X&X#Xn.I Q / 0.{ 8.8.8.8.8.8.8.8.8.8.6.7.8.8.8.8.8.8.8.9.9.2.f.s.' O.` ~.$X-X$X&X;X                    ",
"                    ;X=X;X;X@XZ.I W O.$.>.8.8.8.8.8.8.8.8.8.8.7.7.8.8.8.8.8.8.8.9.9.9.,.,.&.W ` !.$X-X=X;X;X                    ",
"                  B.I.I.I.S.b.3.I W O.&.>.1.8.8.8.8.8.8.8.8.8.7.7.8.8.8.8.8.8.8.9.9.1.1.:.#.O.T c.B.J.I.I.I.N.                  ",
"                N.2.2.2.2.$.R E I W O.%.>.1.8.8.8.8.8.8.8.8.8.7.7.8.8.8.8.8.8.8.9.9.1.1.<.&.W I R R -.2.>.>.2.N.                ",
"              _.U.J.K.I.U.S.b.c.Q R %.&.<.,.8.8.8.8.8.8.8.8.8.6.8.8.8.8.8.8.8.8.9.9.1.1.;.$.` ` c.b.J.J.U.J.I.U.                ",
"                *X*X*X*X*X*X!.D.D.D.D.A.A.L.K.K.Y.U.K.U.K.Y.Y.Y.Y.Y.Y.K.Y.Y.U.K.K.L.L.D.D.A.Z.G.G.].*X*X*X*X*X*X                ",
"                9X9X0X0X9X9X:X[.oX[.[.oX[.XX>X>X>X1X1X5X6X6X7X7X6X7X6X6X1X1X1X>X<X:XXX[.[.[.[.[.oX5X9X9X0X9X9X0X                ",
"                                                                                                                                "
};
