/* XPM */
static char *_904063373d848acba040c30862a648a0fm564lkCpVeZBdd[] = {
/* columns rows colors chars-per-pixel */
"64 64 157 2 ",
"   c #C3B586",
".  c #C9B487",
"X  c #C4B886",
"o  c #CDBA86",
"O  c #C3B689",
"+  c #CCB78B",
"@  c #C6BA8B",
"#  c #CCBC8C",
"$  c #D1BB8C",
"%  c #C6B790",
"&  c #C5BB94",
"*  c #CABD92",
"=  c #C7BF9A",
"-  c #C8BE9A",
";  c #D2BE91",
":  c #C7C18E",
">  c #CCC18E",
",  c #CDC98E",
"<  c #D1C18E",
"1  c #D1CB8F",
"2  c #C7C396",
"3  c #CDC394",
"4  c #CEC893",
"5  c #CDC59A",
"6  c #CDC99A",
"7  c #D2C495",
"8  c #D4C996",
"9  c #D8C997",
"0  c #D2C699",
"q  c #D8C799",
"w  c #D4CB9C",
"e  c #DACD9D",
"r  c #D6D196",
"t  c #D6D19C",
"y  c #DBD19E",
"u  c #E0D09E",
"i  c #CCC5A1",
"p  c #CEC9A3",
"a  c #D0C6A2",
"s  c #D4CDA2",
"d  c #DACEA1",
"f  c #D5CEA9",
"g  c #DDCFAA",
"h  c #D6D1A3",
"j  c #DAD1A3",
"k  c #DED9A6",
"l  c #D6D2AA",
"z  c #DCD4AA",
"x  c #DEDAAC",
"c  c #DED7B3",
"v  c #DEDBB2",
"b  c #E0CFA1",
"n  c #E2D5A5",
"m  c #EBD6A7",
"M  c #E3DAA5",
"N  c #EADBA6",
"B  c #E2D6A9",
"V  c #EAD7A9",
"C  c #E3DBAC",
"Z  c #E5DAAC",
"A  c #E6DBAD",
"S  c #E5DDAD",
"D  c #E5DDAE",
"F  c #E7DCAE",
"G  c #E6DEAF",
"H  c #E3DBAC",
"J  c #E8DAA9",
"K  c #EBDBA8",
"L  c #E9DBAA",
"P  c #E9DCA8",
"I  c #EDDCA8",
"U  c #ECDFAB",
"Y  c #E8DEAD",
"T  c #EADEAE",
"R  c #E9DBAD",
"E  c #E0D7B6",
"W  c #E2DBB1",
"Q  c #E7DFB0",
"!  c #E4DDB3",
"~  c #E5DEB2",
"^  c #E3DEB4",
"/  c #E3DCB2",
"(  c #E9DEB1",
")  c #E4DDB9",
"_  c #E4E0A1",
"`  c #E5E1AE",
"'  c #EDE0AC",
"]  c #E8E0AF",
"[  c #E6E1B3",
"{  c #E9E1B0",
"}  c #EBE1B0",
"|  c #E9E1B2",
" . c #ECE1B4",
".. c #EBE3B5",
"X. c #E6E3BC",
"o. c #E8E3B9",
"O. c #E8E3BB",
"+. c #ECE7BF",
"@. c #ECE5BB",
"#. c #EDE9BD",
"$. c #F1E4B6",
"%. c #F2E6BA",
"&. c #F1E8BD",
"*. c #F3EABF",
"=. c #F3EABC",
"-. c #F8EBBE",
";. c #E7E4C1",
":. c #EAE6C3",
">. c #EEE6C2",
",. c #E6E8C2",
"<. c #EFEAC0",
"1. c #E9E9C5",
"2. c #E8E9C7",
"3. c #EDE9C4",
"4. c #EDEBC5",
"5. c #EFEBC5",
"6. c #EDE9C6",
"7. c #EEE8C6",
"8. c #EDEAC3",
"9. c #EEE7CA",
"0. c #E6EBCD",
"q. c #E5ECCD",
"w. c #E7ECCE",
"e. c #E7E8C8",
"r. c #EDE8C8",
"t. c #EDE8CB",
"y. c #E8EBCC",
"u. c #EDEECE",
"i. c #EFEECF",
"p. c #EEEBC9",
"a. c #F0E7C6",
"s. c #F1E7C2",
"d. c #F3EAC3",
"f. c #F0EBC5",
"g. c #F2EAC5",
"h. c #F0E8C4",
"j. c #F3EEC4",
"k. c #F2ECC3",
"l. c #FAEDC1",
"z. c #F0E7CA",
"x. c #F2E7C9",
"c. c #F0EBCB",
"v. c #F1EBCB",
"b. c #F3EACB",
"n. c #F0ECC9",
"m. c #F0EBCD",
"M. c #F4ECCA",
"N. c #F9EDCA",
"B. c #EFF0CA",
"V. c #F4F1C5",
"C. c #FCF1C4",
"Z. c #F2F2CE",
"A. c #F3F1CC",
"S. c #FBF4C8",
"D. c #F8F0CC",
"F. c #EDF1D0",
"G. c #ECF1D1",
/* pixels */
"@ > o > M N n R j j f l e.G.q.0.9.z.9.9.9.9.r.r.i p 5 5 d e e d C W W C Z J I I o o o o < 1 7 7 S H { S 6 3 w 6 C C C C C C C C ",
"> 7 o > N ' n N d d f l e.B.q.0.m.M.m.b.b.b.v.v.p f i 0 b j u 9 C v W Z Z B N N < < < < < 9 8 8 Z H S H 4 3 5 4 C C C C C C C C ",
"@ X   @ n ' N J d d d z 3.Z.i.i.a.a.a.7.7.3.3.3.p - - 0 d b u e ! W ^ ! R J N m o o o $ < 7 9 7 H x ! H 6 5 w 4 C C Z C S C C C ",
"3 : # , y J J n e d a l X.3.;.:.f.d.f.f.3.f.f.3.f p a d e d b d B c x k Z Z N n o < # < 7 7 7 8 Z C M H w 3 w 6 C C S C H C C C ",
"M k M n j u u e > 3 % 3 z z l z 5 3 5 5 2 i 5 6 X.o.=...w 5 0 7 w p 0 w e j u e 7 < 7 9 e e d d Z H S Z w w h w C C C C C C C H ",
"{ S ' Y y 9 u 9 # # @ # w d 0 d 0 7 6 4 6 6 6 6 f.&.S.=.0 * 0 0 5 2 3 5 w d e e 8 7 7 9 e e d d S H ! C h w j w C S C C C H C C ",
"S j Z Z e e n 9 o 7 o ; q b q d > , : 4 2 2 2 2 &.o.-.=.7 * s 7 5 5 0 0 e j u e 7 7 7 7 9 s d e S C Z C h h j w C C C C C C H C ",
"{ k Z S e y n 7 o # . $ u u q u 1 , 8 4 4 6 6 6 V.o.V.=.w 3 e 3 w 0 3 0 e j y w 0 7 0 w d d j d S k C C e w j w C C C C C C S M ",
"w t j s w 8 7 8 7 # 7 < $ $ < $ N _ N M y t h h [ W S o.w h d e w e 9 s S ( H S w s d j B B ( ! y j j s h j j s h s t j H H S H ",
"j j j w 0 3 3 7 9 7 9 7 o o $ o N N u _ y t 6 t x v x [ w j d j e d e w R ! B C j j s j k C B B s s y j d d t y j w h j x Z H H ",
"j y h w w 5 5 5 3 * 7 7 o o $ o N _ M n j t h h x x x [ 5 h j j e j e d Z ! z C j h a j B ^ ! C j h j t h y d h j w j j x S S H ",
"e w w w w 6 6 6 w 5 w 9 $ $ < < N u n n k y h h v [ W o.w s w t e e 9 w Z ! C v l l l z C W S C s y s y j s h j h w w j k H H H ",
"8 8 w w w s p h &.@.@.R 9 3 7 o e q q 9 w w s s #.#.o.#.6 w 3 w 7 9 7 9 C / W ^ X.<.,.[ k f d j j j t d h y s d j w h j B S S C ",
"7 4 3 3 s h l h V.j.j.@.j 3 0 ; ; 7 7 0 s s h h 8.V.#.#.6 w 3 8 < 7 3 7 B ! v ^ 3.M.V.#.l a s j y s s j d j j t j h w j k Z C C ",
"7 7 4 w w l l l 3.:.<.o.s 5 q 0 7 ; 0 q d l l l 8.V.*.#.6 6 5 7 1 9 < w Z S v ^ X.8.5.X.S f j k j j j t d h s j h w w j k S C C ",
"8 3 0 6 s l s s f.<.k.@.a 5 5 3 0 7 5 0 d d l h o.#.#.*.6 6 3 w 7 9 7 9 H / x E f.V.8.o.x l s w d y e d y d y d j t s j x S S C ",
"<.<.N.s.g s d d d d j d h h h h x S R B j d j h x W x S 3 0 3 0 -.=.=.%.k h l h l h f f j l j s # $ o $ < 9 q 7 w 4 5 4 h l h h ",
"r.z.N.s.g w d b e e d s s h h h B C B B j w s j S M M [ 3 w 0 0 =.&.j.@.j a d s j h d d h j h d # o $ < 7 9 q 7 0 0 5 w w h p t ",
"M.M.N.s.B d b d d j j j h l h h C Z R B j j h j x ` k ` 3 0 7 0 l.k.l.+.z s l d f s d s s s s d o o o o < 7 7 7 3 3 3 6 t h k l ",
">.@.a.@.d a d d e w s w s p f p B Z Z B j t t h M ` ` ` * 7 ; 0 $.o.&.o.d s j s z j z z f d d d 7 # $ < 7 7 7 3 0 0 w w t h h j ",
"l g B z ; * * * -.l.j.j.g.f.M.g.d b d e w 3 5 6 #.#...=.0 q 7 0 n j x k 6 3 w 5 %.#.....S H H B 9 e 9 9 9 8 w 7 B V B b w 5 3 0 ",
"s 0 d w & % * * %.%.%.&.<.<.<.s.d d d w 0 3 5 4 =.=.=.=.0 7 * 0 d w d s 5 3 6 3 *.l.=.=.o.S H Z j y y y w 7 7 8 J R ( B e 7 ; 0 ",
"d s j e 3 % 3 * *.d.d.k.f.f.f.f.d b j d w 3 4 6 $.=.#.%.- 7 * 7 d e d j 0 3 w 7 =.*.=.$.( B H Z y y y w 8 4 3 7 n Z V B d 7 q a ",
"d e j w & @ 3 % k.&.k.k.5.f.7.s.d d j w 8 5 3 6 $.=.=.%.7 0 0 q d s d d 5 7 0 7 %.=.*.$.Z H B R w j j w 8 7 7 7 B J ( b q ; ; q ",
"=.%.%.-.3 0 5 5 E E / B g f f g 0 0 ; 0 B S H C h h s j B R ( / 0 0 3 w n Z B Z j j j w 3 * & : M x [ S w 8 e e 7 q 7 ; $ # $ ; ",
"-.-.-.-.3 5 5 5 W / / c f s s f 0 0 3 0 C S k C w w w h B B V V 7 0 3 7 k Z C Z 9 j d e 3 # @ 3 S x ` S t w j e q q 9 9 ; # + $ ",
"$.-.-.=.0 a a s E ^ E v f s s d 0 0 3 0 B S x C t h j j B R ( ( 3 7 3 8 n Y B Z e j n e * X @ # C x R S y w d d 7 7 7 < o # + o ",
"l.l.=.( s 5 = & W ^ E x k f d j 7 0 3 0 H Z k x j j j j b B B B 7 w 3 q n J n Z y e y w 3 3 3 3 C H ! Z w w e e 3 7 < 7 7 3 # ; ",
". O * a ( x.N.A.v v ^ v x k n H 7 0 3 0 H Z k C t t w w w 9 q w 7 8 7 7 Z Z n J 3 # # 3 j n B n Z Z ( Z w 7 q 0 8 8 q q 8 9 9 9 ",
"7 * * - %.s.>.X.v ^ v W S Z Z S 0 7 * 7 Z S k H h h h w 0 0 ; 7 4 7 3 7 n Y J Z # @ O 3 n ( ( B / B ( B 0 * 0 3 7 7 7 9 e u u u ",
"; % % % x.l.a.<.v ) v x S S Z M 7 q * 0 B S H H h l j t w 7 7 7 7 7 7 q B J n Z 7 # @ ; n J V B ( W R B 0 0 7 3 7 4 > 1 9 9 r y ",
"* * - % x.d.a.3.) v v ^ C H J M 7 7 0 0 H S k H w y y w 0 7 5 0 7 0 7 0 B J n J # @ # 7 n J R B V B ( B w 0 w w 0 7 8 9 y y y y ",
"7 3 0 0 s.7.b.3.c v ) z k d e u 7 < q 7 7 7 8 7 7 7 4 w n P Z J ; 0 0 ; l.-.-.-.5 7 3 3 7 q 7 0 j d d d h j s h x H S C j d d b ",
"7 3 0 5 >.<.b.r.c ) E B d e e e < 7 < 7 < 3 < 7 7 < 3 9 n Y S Z a ; a ; x.-.$.$.7 7 3 7 4 7 3 4 j d d d j s t s x S S C j d d d ",
"3 # 0 5 &.>.M.3.c ) ) E z d j y 8 9 q 7 q 7 7 0 8 3 3 w n M H H 7 - - ; l.l.l.-.0 3 7 3 7 7 7 3 b d d d j j h t x x x l d a d s ",
"8 7 0 5 k.s.b.3.c c E c d e y e # * # 3 7 7 7 4 9 8 w t j M H x q 0 q d V $.$. .0 7 3 3 7 8 8 7 d e e d k l j j x [ [ C B z g z ",
"e e e w d.k.k.>.l l c p 0 5 7 0 ( R (  .$.=.-.=.w w s w l j k h d d a d ; - 7 ; 0 3 3 0 9 e e e q 0 0 9 k B x l o.#.#.#.+.&.+.#.",
"j e j s d.s.3.>.f f f f 0 3 3 0 B B B R ..%.=.%.j h s h h h t t d d d d % % # % 7 3 7 9 e e y j 7 ; 3 9 k S W x V.#.8.V.f.g.l.g.",
"j e j s d.&.3.<.f l g f a 7 0 0 / Z B ( &.j.d.k.j h h h h h h p s s s z O 3 * * 0 7 7 7 e j y e q 7 ; 9 z ! S x #.#.8.8.5.f.M.5.",
"d e d w d.#.j.<.f h l a 0 3 ; 0 R B E ( %.*.&.#.h s h h h p f h b a w l O 3 & O 0 7 3 w 9 e w 9 7 ; 3 0 k Z S x V.8.8.8.5.f.3.3.",
"R R Z C d s s h x v S x d w d d * * 3 2 3 5 5 5 &.&.#.V.5 6 6 6 s.j.*.%.` M [ S &.=.%.-.7 7 7 q 3 3 : t #.*.#.#.x v v v l p l l ",
"B B Z H j l l l x [ W x d d q d * * % 2 5 5 5 5 ..#.=.#.2 2 2 6 k.d.=.#.[ x S S =.*.$.$.7 q 3 7 q 0 5 h #.#.#.#.v v x v l l l l ",
"R ( R B j h t t x S S x j w e e % # % * 3 3 5 5 =.V.C.=.6 5 4 6 #.V.j.#.[ x x ` -.-.-.=.0 q 7 0 * 5 2 p [ #.#.B.` x x v l l p l ",
"B B B k j h h s x x x x j d d d * * * 3 5 0 0 3 ......` t 6 5 w #.#.o...` x x ` $.-.' ' 7 0 3 0 p f l l #.V.#.B.v v v l l l h h ",
"0 5 w w k H S x h k h h d d d d 7 7 7 7 7 8 7 3 7 3 3 3 j k k k ` [ [ ` v v v x k M j B # # # * O.>.X.X.B.B.X.#.l l l l x n B B ",
"3 3 3 w k ! ` S h h t h d e d d q 7 7 7 7 0 7 3 @ X @ @ Z Z S S x x v v ` x x ` w t 9 n @ * # # a.i.i.2.B.B.,.,.h l j j H B Z J ",
"q 5 3 w j x x k t t w t e d d d 7 7 7 < 7 7 7 < # : > X ' Z J k v x x x x v x x j h e n # > $ 3 :.2.e.,.B.B.#.B.h f d j B J R V ",
"0 3 5 r k ` ` x h t j d d d e q 7 7 ; 1 7 7 7 7 # # > X Y n B Z ` x ` x x ` x x j j s j O 3 # & 3.Z.p.1.B.,.#.,.h p d j B V m m ",
"C C W C x ` x x t k t j M J J B H H H H H M B Z 9 e j e q 7 7 9 t r t h z W ^ E x.f.+.j.5 3 4 4 w B l d k t 6 h h 6 j e # + ; $ ",
"C x C x x x x x t t t y B Z V n S x S x H H H Z w d d e 7 7 ; 0 r r r j x W ) E a.a.s.k.4 5 4 , 9 d d 9 j h h k h t j y ; $ ; $ ",
"C C C W ` x ` x h h t k B R T R S S S S H H B Z d d j e 7 - 0 7 t t t j H W E ^ N.N.M.k.5 2 2 3 d n e e t t 6 t t t t t $ + $ $ ",
"C C x C x x x x h h h j n B m B M x x x x H H B d d d d 7 0 0 7 j t w j k W C v @.@.@.[ s w a q e b q 9 j h t t h t h t $ + ; $ ",
"s j h j h t h h 6 6 5 0 0 0 q q j j j k H C Z B e d d e e e d e 6 5 3 6 t l y t w w w h ^ @.@.%.+ ; $ ; B Z M ` x x M n q ; q q ",
"w s w t t h p t 5 6 3 5 7 0 5 * j h w j k S Z H d d d d d d b d 6 5 5 6 w t t r : : 2 6 k.N.N.N.+ $ + ; B R Z ` ` M ` H q 7 q q ",
"j j j h h h h h 6 6 0 p 0 - 0 0 j w e j B R Z H j d d j d d d d a p 5 w h t r r , 4 4 5 d.d.x.x.; ; + ; n R M k M x M x w 7 7 ; ",
"d e w j h w h t 6 2 5 p 0 0 0 0 n d d j B ! H B j d e d d d e s a p 5 6 t r r r , , 4 3 d.a.x.x.% + + ; n T Z H S M S x 8 7 0 0 ",
"  3 @ 3 #.=.[ *.#.#.#.g.5 p 5 - B ( ( j 0 O @ 3 d d d d s e d s N.9.f.%.j r y 1 _ _ k [ #.M.b.x.* ; 7 . m w e y t w w y M S S S ",
"@ 7 @ : =.*.[ =.o.#.&.j.3 5 a q B V / n 7 * * 3 j e j d d j j j >.;.k.@.t 8 y r _ M k [ &.M.b.x.; ; $   n e w e j j y j H M Z M ",
"@ * X 3 #.-.#.V.V.V.V.<.i - - - ( ( V B 0 @ @ @ e w w t w y w h a.a.M.=.t r r r _ k H [ >.d.b.x.* + . @ j u j e y e y j J ] S R ",
"# * : 8 } #.@.#.o.o.<.X.g f a s B B B d 0 * * * d j j s j h h h s.&.&.o.x r y y M x M S o.>.z.s.* 7 7 7 e e e e e y j j j j J S ",
"e e e e k j j l l l l c ) @.>.) q q e w q e d d Z Z H H x M x x j l j j x _ x k C H x W ( ) X.^ B M H j 7 # # : J J B n e 8 7 q ",
"b n n d s w s s h f p f M.M.N.N.- 0 0 q d d j j Z Z S C S ` [ S h h s w ` ` x ` C C C W W / E v ! R ' R @ X @ : R R R n 9 7 > 3 ",
"b q e b w j l h l l l p b.>.x.s.a q q q q s e w H H H H x x x x j S h j ` [ j S v C C W W W W S k x x ` @ : * ; n V m n q 7 7 q ",
"n e e n e l x 6 f f g p b.>.x.s.0 ; 0 7 d d d e H H H H S x ` M 6 k h w S S l [ C v W W C W W S S x k ' O * # # V R T m q ; ; 7 "
};
