/* XPM */
static char *ce48d5ff57ec40acd3c7bf4bdc2442a05nyJ2kn03ZqgaXqW[] = {
/* columns rows colors chars-per-pixel */
"64 64 229 2 ",
"   c #491A15",
".  c #4F2019",
"X  c #5E2F29",
"o  c #622C25",
"O  c #712B27",
"+  c #66342E",
"@  c #6B332D",
"#  c #70352E",
"$  c #78302C",
"%  c #673630",
"&  c #6D3630",
"*  c #6E3A34",
"=  c #703630",
"-  c #733B34",
";  c #7A3F36",
":  c #7C3C37",
">  c #733E39",
",  c #6D413A",
"<  c #75433C",
"1  c #7A4339",
"2  c #7D443C",
"3  c #7A4641",
"4  c #754943",
"5  c #7B4B44",
"6  c #7E554D",
"7  c #8C3732",
"8  c #8D3D3C",
"9  c #923936",
"0  c #933D3B",
"q  c #993F3C",
"w  c #80453E",
"e  c #8E433E",
"r  c #81483E",
"t  c #92413E",
"y  c #9B423E",
"u  c #8C5536",
"i  c #8B533C",
"p  c #9A5B35",
"a  c #96603E",
"s  c #9A613D",
"d  c #A3633C",
"f  c #AB673F",
"g  c #AA693F",
"h  c #903F40",
"j  c #814741",
"k  c #8E4541",
"l  c #854C44",
"z  c #8A4E46",
"x  c #864F48",
"c  c #8B4F48",
"v  c #934543",
"b  c #9C4541",
"n  c #954946",
"m  c #9B4946",
"M  c #944E4B",
"N  c #9B4E4A",
"B  c #855047",
"V  c #8B5047",
"C  c #8F5E46",
"Z  c #84534C",
"A  c #8C5149",
"S  c #8E5F4A",
"D  c #905743",
"F  c #955D45",
"G  c #92554C",
"H  c #98524E",
"J  c #93594D",
"K  c #8C5650",
"L  c #865853",
"P  c #835B54",
"I  c #8F5D56",
"U  c #925651",
"Y  c #9D5651",
"T  c #955A52",
"R  c #995C53",
"E  c #925D59",
"W  c #9F5A58",
"Q  c #A14743",
"!  c #A34A46",
"~  c #A54D4A",
"^  c #A94F4C",
"/  c #A4514D",
"(  c #AC534F",
")  c #A55552",
"_  c #AC5452",
"`  c #A65956",
"'  c #AA5956",
"]  c #A65B59",
"[  c #AC5B59",
"{  c #B15754",
"}  c #B15A56",
"|  c #B45D5A",
" . c #B85F59",
".. c #8E604B",
"X. c #976140",
"o. c #996343",
"O. c #95624B",
"+. c #9B634A",
"@. c #9E694A",
"#. c #8B635D",
"$. c #8A675D",
"%. c #946451",
"&. c #9C6650",
"*. c #9B6C54",
"=. c #96675B",
"-. c #9C635D",
";. c #9E715B",
":. c #A46640",
">. c #AA6742",
",. c #A66B44",
"<. c #A96941",
"1. c #A16A4D",
"2. c #AB6E49",
"3. c #AF7047",
"4. c #AE724B",
"5. c #B1764D",
"6. c #A56B54",
"7. c #A56E55",
"8. c #A86E56",
"9. c #AD645F",
"0. c #A56F59",
"q. c #B4615D",
"w. c #B8605C",
"e. c #A57055",
"r. c #A97057",
"t. c #A4725B",
"y. c #AB745B",
"u. c #AF785D",
"i. c #B37957",
"p. c #B67B56",
"a. c #B17A5E",
"s. c #A65F60",
"d. c #8C6661",
"f. c #8E6961",
"g. c #906A62",
"h. c #956963",
"j. c #9D6C63",
"k. c #977368",
"l. c #9C7B75",
"z. c #A36461",
"x. c #AD6460",
"c. c #A66B66",
"v. c #AC6964",
"b. c #A66C69",
"n. c #B46562",
"m. c #B96662",
"M. c #B36965",
"N. c #B96965",
"B. c #B46E6A",
"V. c #AA7461",
"C. c #A47769",
"Z. c #B17760",
"A. c #B27961",
"S. c #B3716C",
"D. c #A37D74",
"F. c #A77C77",
"G. c #BA7876",
"H. c #B37D7A",
"J. c #B8805B",
"K. c #9F8079",
"L. c #A98264",
"P. c #B3886C",
"I. c #A98772",
"U. c #A4837C",
"Y. c #A9857E",
"T. c #AD8D7B",
"R. c #B58B71",
"E. c #B5837E",
"W. c #B18F7B",
"Q. c #B3927E",
"!. c #A88882",
"~. c #AC8C84",
"^. c #AB8F88",
"/. c #B68682",
"(. c #B28D84",
"). c #BB8C86",
"_. c #B58F8B",
"`. c #BD8D89",
"'. c #AB9186",
"]. c #AC9089",
"[. c #B39484",
"{. c #B69987",
"}. c #BB9B86",
"|. c #B4948C",
" X c #BC938C",
".X c #B69A8B",
"XX c #BB9C8C",
"oX c #AD9D92",
"OX c #B39690",
"+X c #BD9690",
"@X c #B49C94",
"#X c #BD9E92",
"$X c #B59E98",
"%X c #BEA08D",
"&X c #BEA195",
"*X c #BAA59A",
"=X c #BBA49C",
"-X c #BDA6A0",
";X c #BEAAA2",
":X c #BBAEA8",
">X c #BFB0A5",
",X c #C28F89",
"<X c #C1948E",
"1X c #C09490",
"2X c #C19D96",
"3X c #C29D98",
"4X c #C1A396",
"5X c #C1A59A",
"6X c #C2AA9D",
"7X c #C3ABA3",
"8X c #C6ABA4",
"9X c #C3B2A6",
"0X c #C9B2A6",
"qX c #C5B4AC",
"wX c #CAB6AD",
"eX c #C5B8AC",
"rX c #CBB9AE",
"tX c #D0B7AE",
"yX c #C5B6B1",
"uX c #CCB7B0",
"iX c #C6BAB2",
"pX c #CDBCB4",
"aX c #C5BEBA",
"sX c #CDBEB8",
"dX c #D1BDB5",
"fX c #D2BEB8",
"gX c #CFC0B5",
"hX c #D2C1B6",
"jX c #D1C0B8",
/* pixels */
"H.G.x.n.q.9.x.x.x.x.9.9.x.x.x.x.x.x.9.x.x.x.x.n.] E 9XfXY.=.E E E I E E I I I I I I %.I I I I I I I I #.Z 3 P :XfX`.c.x.9.q.x.z.",
"x.' ( _ ( ( ( ( ( ( ( ( ( ( ( ( ( ( ( ( ( ( ( ( Q M 6XdXD.c z z z z z z z z z z z z x z z z z V c z V A j @ 4 =XrXE.' } ( ( _ [ ",
"_ _ _ _ _ _ _ _ _ _ _ _ { _ _ _ _ ( _ _ _ { _ _ q m 8XdXD.x c z z A V V z z V V V V V V z z z V x V U J x & 5 7XdXH.{ _ _ _ { { ",
"' ( _ _ _ { _ _ _ _ _ _ _ _ ^ { _ _ _ _ _ _ _ ! 0 n 8XdXl.l A A z z A z A V A V z z x A x V A U R R U c l & 5 :XwXH.{ { _ _ _ _ ",
"' ( _ _ _ _ _ _ _ _ _ _ _ _ _ _ _ _ _ _ _ _ ~ 0 9 v OXuXg.* j V V V V V A V V V A J J R -.j.-.T K A x j - @ 5 qXfXH.) _ _ { _ ) ",
") ( _ _ ' _ _ _ _ _ _ _ _ _ _ _ ( _ _ ( ~ b 0 9 7 M $XfXk.+ = > 2 j x V z x x x l x l j 2 2 1 > > > = @ = @ 5 9XdXF.0 b ! ~ ~ ) ",
"v q h b b h Q b Q b y y Q b b h y y q 9 9 9 9 9 7 c.qXsX~.* + + + @ @ # = = @ @ $ @ @ + @ @ + + + @ @ @ % % k.iXdX Xk 7 7 9 9 0 ",
"b.c.] -.c.b.x.b.b.b.c.c.c.c.z.` -.z.z.c.c.c.c.c.F.3XiXgXrX^.d.P f.$.#.g.g.g.$.$.d.$.f.f.f.I #.f.$.$.#.L #.D.9XiXqXuX Xb.b.b.b.b.",
"hXrX$X*XpXfXpXdXfXfXpXgXiXyXqX*XqXwXrXfXfXpXfXdXpXuXuXuXuXjXuX7XdXuXpXfXfXsXfXpXyXiXsXsXfXwXqXpXuXpXqX;XrXpXpXpXqXuXfXdXrXuXpXeX",
"{.{.~.[..X.X}..X.XXX7XiXiX-X#X+X<X<X X X X<X X X1X<X<X).~. X X1X<X<X X<X<X1X<X XyXsXuX7XXX.XXX{.'.[.XX|.(.T.'.{.{.{.|.{.T.{.'.T.",
"V.y.y.t.t.y.t.0.t.&.C.9XsX+XM.N.N.M.M.M.N.n.n.M.N.N.N.N.m.m.M.n.w.n.n.m.n.w.' Y 6XgX6XC.0.7.y.t.y.y.y.F F 7.y.y.y.y.u.y.y.y.y.V.",
"V.y.y.r.y.y.y.8.7.+.%.;XfX XN. .{ ( { { ' } } } | | | } } | | } | | ' } ' } Q M 7XgX.Xt.7.y.A.u.u.u.u.+.F u.A.A.Z.Z.V.a.u.y.u.u.",
"t.7.0.0.0.8.7.7.t.+.%.5XfX XM.{ _ ' ( _ _ _ _ _ _ _ _ / _ _ _ _ _ _ _ _ _ _ b M 8XfX.X0.e.a.y.7.e.e.r.+.i *.0.t.7.e.7.7.t.7.0.0.",
"t.7.8.8.7.7.7.7.e.+.%.5XfX`.M._ ( _ ( _ _ _ _ _ _ _ ( ' / _ _ _ _ _ _ _ _ _ ! M 7XfX X0.r.a.e.7.e.e.7.6.i +.0.0.e.7.7.8.e.7.0.0.",
"e.7.7.1.6.7.0.r.8.+.%.5XfX XN.{ _ _ _ _ _ _ ( ( _ _ _ / _ _ _ ( _ _ { _ _ _ ! M 7XpX.X0.8.u.7.0.7.7.e.7.D F 7.7.7.e.8.7.e.e.7.7.",
"t.7.+.i i D &.r.r.+.%.5XfX`.M.{ _ ( / _ _ _ { _ ( ( ( ~ _ _ _ _ { ( ( _ _ _ ! M 7XpX|.r.r.u.7.0.8.7.7.y.F F r.e.7.7.8.0.t.7.e.*.",
"t.*.+.D i D 7.7.7.+.O.6XdX,Xn._ _ ( | | ' ' _ _ ( _ _ ! / ' _ _ _ _ _ _ _ ' ! H 7XdX|.0.r.y.e.0.8.8.7.0.F 6.0.t.7.7.e.7.e.e.e.7.",
"t.7.r.7.7.e.e.e.7.+.%.*XrX`.n._ _ ' | _ _ _ _ _ _ _ { ! m ' _ _ _ _ _ _ _ _ ~ N 7XhX.X0.r.y.e.e.7.e.e.6.F 0.0.7.7.e.e.7.e.e.e.7.",
"t.8.8.8.e.e.7.e.7.+.+.*XhX,Xq._ _ _ _ _ _ _ _ _ _ _ _ ~ y ) _ _ _ _ _ { _ _ ^ U 8XdX.X0.r.y.7.0.7.7.e.+.+.8.7.7.r.7.7.e.7.7.7.7.",
"t.7.7.7.7.e.8.8.0.+.%.6XhX`.9.{ _ _ _ _ _ _ _ _ _ _ _ m b _ _ _ _ _ _ _ _ _ ~ H 6XuX.X0.8.y.r.r.7.7.y.7.&.r.r.0.7.y.7.7.0.7.0.0.",
"0.7.7.7.7.7.7.7.6.D %.*XdX).9._ _ _ _ _ _ _ _ _ _ / b 0 / _ ( _ _ _ _ _ _ _ _ Y 7XpXQ.O.&.7.1.7.7.7.7.7.6.7.0.7.6.6.6.&.1.6.*.6.",
"O.F O.O.+.+.+.F F D *.7XdX,X' _ _ ) _ _ _ _ ( _ _ b 7 8 _ _ _ _ _ _ _ _ _ ' _ Y 7XtX'.F C O.F F F F F o.F F F F F F F F F F F D ",
"..C S S ..F C S F %.W.uXfX).k k 8 k k v v k v k e $ O $ n n n n n n m n n m m U ;XpX0XC...S J S F S F S J S F S C F S F S S S S ",
"#X.X#X#X#X2XXXXX&X*X0X:XuX8X|. X X X X X`. X X`. X(.Y.D.(. X,X X X X X`. X X X+XiXaXpX6X%X%X&X.X~.{.#X#X&X%X#XXX#X#X[.~.XXXXXX#X",
"hXgXfXjXsXfXjXgXgXsXpXyXpXfXsXfXsXjXfXjXfXfXjXuXqXsXpXyXpXgXfXpXsXuXpXhXfXpXrX9XpXpXpXgXgXgXpXgXrXpXpXrXpXgXgXsXpXgXuXqXpX;X9XgX",
".X|.OXOXOX.X|.OXOXOXOX.XOX|.|.].|.OX|.OXOXOXOX^.!.9XiXpXpX4XXX%X%X{.}.&X%X%X}.[.%X%X[.}.%X}.}.%X{.XXXX{.XX&X9XiXiXuX;X@X|.!.].].",
"I K K U I K U T U J U T J J J U U A K A A K K A < k.eXpX}.1.,.,.,.,.,.,.,.,.,.,.,.,.,.,.,.,.2.:.u g 4.2.4.@.I.pXgX*XI V Z K U K ",
"E W R R R R R R W R T R R T U J U U J J G A A V ; 5 =XdXR.o.4.5.5.5.4.4.4.4.2.3.3.<.<.,.g <.<.g p g 4.4.3.,.;.uXfXU.x z R R R R ",
"A z V z V V c V x z z V V V z z V V V V V A V V 2 4 =XdXP.<.J.4.2.,.,.<.<.<.<.<.,.<.<.<.<.<.:.<.g s 2.<.g g *.iXpXF.B A R V V V ",
"A z V V V z z V V V A c V z l z A V V V c V c A 3 4 7XrXL.,.J.2.>.<.<.:.<.<.<.<.:.g g <.<.<.<.g <.:.:.<.g f *.iXpXI.z G J V V V ",
"A z A A V A A A V c A c A j w c V A A A A x A A w 3 7XrXP.2.J.2.<.<.<.<.<.f >.<.g g g g <.g <.<.<.<.<.s f s *.pXpXU.l G U V V B ",
"Z A A c c V V c V V A V V > w c V V V A V V A A j 3 ;XdXR.,.p.,.g g g <.g <.f <.g ,.g ,.:.g g <.<.g <.g d u ..rXdXU.x G T z c V ",
"Z c c M c V V V V V V V V # 2 A A V A V z A V A j 4 ;XfXR.,.p.<.d <.<.<.<.:.<.g g g <.g <.g g <.g g ,.<.d u ..rXfXU.x A H c c c ",
"A c V c V V V A V V c V A - 1 A V c V V V z A A r 4 =XuXR.,.p.,.d d <.<.<.<.g <.<.<.g <.g <.<.<.g :.g g d p *.rXpXF.z A J A V c ",
"A V V A V V c V G z A A A > = A c V V V A V V z 1 < *XqXR.:.i.,.p d g <.<.g <.g <.<.<.<.<.,.<.<.<.<.g f g d *.iX;XD.x A A V V c ",
"A V V V A z c V c z A V V # = A A A V M A V V l = 4 *XrXR.:.5.,.f p d <.<.<.g <.<.<.<.<.<.:.<.<.<.<.,.<.g s *.eX$Xk.z c S V V c ",
"A V A V V A V A A z A V 2 + 2 c z z l j x z z 1 + 4 -XfXR.g 4.,.<.s p d g <.<.f <.<.<.>.<.<.<.<.>.<.<.<.g s *.iXqXD.c A A c c c ",
"Z c z A B B V B z l l > o X > > - = = = = - = # @ 4 =XtXR.g 5.4.<.<.g f <.<.<.<.<.<.<.<.<.<.<.<.<.<.<.g <.d *.pXpXl.> j c z z z ",
", * > - , * * * * % + o .   X + + + + & + + + + + $.eXgXQ.1.@.@.@.o.o.o.o.o.o.o.s X.X.X.o.s s a X.a s s a u k.rXpX]., + % * & * ",
"U.Y.l.U.U.U.U.U.K.U.U.U.K.l.l.U.!.U.!.D.K.U.Y.U.U.=XgXpX0X}.Q.W.Q.W.Q.T.Q.Q.T.T.W.W.T.W.W.Q.W.T.I.I.W.T.T.Q.6XgXpXiX@XU.K.U.U.K.",
"gXgXiXpXfXfXrXrXpXsXpXfXfXsXyXeXiXfXsXuXpXhXpXgXsXiXsXsXaXpXuXgXpXpXiXpXpXwXpXpXpXpXpXiXpXpXpXpXqXiXpXgXsXsXpXyXuXiXgXrXpXpXsXpX",
"pXpXpXfXdXuX9XqXsXsXpXiXsXsXpXpXdXiXgXuXiXpXpXsXpXwXuXuXpXfXsXuXuXgXqX9XuX$X;XgXiXpXiX9XpXdXpXfXfXfXpXpXpXpXpXuXpXsXpXdXpXeXeXeX",
" X`.`.`.).`.).).`. X8XiXiX7X^.^.!.!.~.Y.Y.~.~.Y.!.~.~.~.~.(.~.Y.Y.~.!.Y.~.I.U.|.iXpXuX5X`.`.`.`.`.`.`.`.`.`./.H.).`.`.,X`.E.).).",
"] ` ' ' ' ` ' ) ) ` S.wXfX!.A A c x z x B x 5 j x x l l x x x x x c x x A Z < 6 qXfX3Xs.) ) _ ' ' ' ' ' ' N n ) ' ] ' ' ' ' ' ] ",
"q.} } } _ } { _ { ( ` #XfXY.c J H J J H G G G G G M A G c G G G J H J U U J > 6 wXdX).) _ w.q.q.w. .w. . ._ _  .w.w. . .| | | | ",
"` ( ( _ ( ( ( _ _ _ ) #XfX!.K J J U J J F J J H J J J J J U G J J J J J G H ; 6 qXfX_.) q.} ( ( _ _ _ { { _ _ _ _ _ _ _ _ _ ( ( ",
"` _ _ _ _ _ _ _ ( _ ) 2XdXY.A A A J U J J J J J J T U J J J J J U J J J J V : Z uXdX).) q.{ ( { _ _ _ _ _ _ _ _ _ _ _ _ _ ( ( _ ",
"' _ _ _ { _ _ _ _ ( H #XqXU.V G z c J U U U J J H U J U J U J J U T J U A l 1 Z :XfX)._  .{ _ _ _ _ _ _ _ _ _ _ _ _ _ _ _ _ { _ ",
") _ | [ _ _ _ ' _ ^ k 5XfXY.c A V V V J J J J J J G J J J F T T R J H G x w ; 6 qXpX)._ | { _ _ _ ( _ _ _ { _ _ _ _ _ _ _ _ _ _ ",
"[ m.q._ _ ( _ _ { ~ k 3XfX!.V c z z V V G J J G J J J H R R T G c z z V l 3 1 L uXpX).) { { _ _ ( ( { _ _ _ _ _ _ _ _ _ { _ ) ~ ",
"B.' _ _ _ _ _ _ _ Q k 3XfXY.V z l A V V z c G G J R R R G A c z c c z V l 2 1 Z qXfX)._ } { _ _ _ _ _ _ _ _ _ _ _ _ _ _ _ ' _ ' ",
"] _ _ _ _ ' _ _ ( q k 3XfX!.V x j A A V c c G G H G G z M c z z z z z l j w 2 L qXsX).) [ { _ _ _ _ _ _ _ _ _ _ _ _ _ _ _ ' | | ",
"' _ _ _ _ _ _ _ ~ 0 v 3XfXY.V x j z x z z z z z l j r l w w w j 2 2 2 2 w j 8 Z iXgX`.) { { _ _ { _ _ _ ( _ ( _ _ _ _ _ _ _ ' _ ",
"' _ _ _ { _ _ ~ 0 9 k 4XfXY.V r w 2 w 2 2 2 2 2 2 w w w w w j 2 w w r r 3 l > 6 eXpX`.) { { ( _ _ _ _ ( { _ _ _ _ _ _ _ _ _ _ _ ",
") ^ ^ ^ ~ ! Q 0 9 9 k *XfX!.x l j j j 3 j 2 j 2 2 2 2 1 2 2 2 2 2 2 r r l 3 @ 6 uXfX/.n ! ~ ~ ~ ^ ( ( ( ( ( _ ( ( ( ( ( _ ^ ^ _ ",
"k v 0 h 0 e 8 0 0 t z.0XuXU.< > > > > > * - * * * * * * * * & * - > = * * * & P wXpX3XU 8 0 t t t t v v v b n n v m n m m n v k ",
"|.).`.|. X|.|. X|.OX0XpXyX-X^.^.^.!.^.].^.^.].].'.].^.^.].].^.^.^.^.'.'.^.].'.$XpXiXqX#X X|._.(.(.`.|.`.`._._.|.`._._.|._._._.(.",
"wXtXuXuXwXwX0XuXwXwXwXwXuXuXwXwXwX$X=XuXrXwXwXuXpXsXpXsXsXsXuXqXuXuXrXwXuXuXrXwXyX9XoX$XwXuXwX9XqXuXuXtXuXpXfXpXsXsXdXuXwXwXtXwX",
"S.B.S.B.B.B.N.B.B.B.B.B.B.B.B.B.B.M.x.M.M.M.v.n.b.2XpXpXqXY.j.j.j.j.j.c.j.c.j.j.c.j.j.=.j.j.j.j.j.h.h.E 6 #.*XiXpXwX/.M.M.N.B.B.",
"q.| w.| | | } | | | | | | | } } { { { { _ _ _ { Q E qXsX(.J R R T T T J J T J J G J J G J A G A A n z l & + #.uXsX X' | w. .| | ",
"' ( ( ( _ _ _ _ ( _ _ _ ( ( ( ( _ ( ( ( { ( _ _ ! M =XpXF.T c z V V V V V V V V A z z z x V V V V V V B = @ 5 9XdXE.[ | ' ( ( _ ",
"_ ( _ _ _ _ _ _ _ _ _ _ { _ ( { ( _ _ _ ( _ _ _ ^ M $X7X!.K c c V V c V V A V V A c A A V c V V V V V z - @ 5 9X0XH.| } _ _ _ _ ",
") _ _ _ _ _ _ ( _ _ _ _ _ _ _ _ _ _ _ _ _ _ ' _ ~ M #XqXF.U c c V A V A V V z A c A x A V V V V c c V A > @ 5 9XqXH.[ _ _ ) _ ) ",
"W ) _ ) ( ) ) ) ) ) ) / ) _ ) ) ) ) ) ) _ ) ) ) ~ H =XpXD.K x x x x x x x x x c x x x x x x x x x x x x > + 4 >XpXH.] ) ) ) ) ) "
};
