/* XPM */
static char *fde6137842954ffaa2462f3776d98ed3PNx1yZmJIVDgA4xT[] = {
/* columns rows colors chars-per-pixel */
"64 64 124 2 ",
"   c None",
".  c #1E1612",
"X  c #1E1915",
"o  c #1D1B1D",
"O  c #211614",
"+  c #231916",
"@  c #2A1C17",
"#  c #251C19",
"$  c #2B1D1A",
"%  c #311F1B",
"&  c #27201C",
"*  c #2D211D",
"=  c #33221D",
"-  c #39241E",
";  c #35291F",
":  c #171F25",
">  c #1D1F24",
",  c #191F28",
"<  c #261F20",
"1  c #16242A",
"2  c #1D2028",
"3  c #262322",
"4  c #2D2421",
"5  c #242428",
"6  c #322521",
"7  c #3A2521",
"8  c #352924",
"9  c #3C2B24",
"0  c #332728",
"q  c #342B29",
"w  c #3B2D29",
"e  c #37302D",
"r  c #3B322B",
"t  c #412C25",
"y  c #422E2A",
"u  c #443227",
"i  c #44322A",
"p  c #49352D",
"a  c #4D392E",
"s  c #54362F",
"d  c #51392E",
"f  c #473734",
"g  c #4C3531",
"h  c #463933",
"j  c #4C3933",
"k  c #523D35",
"l  c #583E36",
"z  c #563F3A",
"x  c #4B4033",
"c  c #4D413D",
"v  c #564137",
"b  c #5B4336",
"n  c #55433C",
"m  c #5B443C",
"M  c #5D493F",
"N  c #64463A",
"B  c #61493F",
"V  c #6F523F",
"C  c #5F4942",
"Z  c #644C44",
"A  c #694E47",
"S  c #634F48",
"D  c #6C5244",
"F  c #6A534A",
"G  c #69584E",
"H  c #735349",
"J  c #755A4E",
"K  c #7A5B49",
"L  c #755C54",
"P  c #7D645B",
"I  c #835147",
"U  c #8A5C54",
"Y  c #826757",
"T  c #8A6355",
"R  c #846856",
"E  c #84665A",
"W  c #8E605D",
"Q  c #82685B",
"!  c #8C6C5B",
"~  c #94665B",
"^  c #856B66",
"/  c #886C60",
"(  c #936965",
")  c #847065",
"_  c #8F766F",
"`  c #92756D",
"'  c #99736F",
"]  c #957C76",
"[  c #A37067",
"{  c #AB766C",
"}  c #AB7E74",
"|  c #9F8270",
" . c #A2816F",
".. c #A38176",
"X. c #AF8677",
"o. c #AE8979",
"O. c #B18379",
"+. c #B48D7F",
"@. c #C7897E",
"#. c #AE8F81",
"$. c #B28C84",
"%. c #B69087",
"&. c #BA9384",
"*. c #BB9589",
"=. c #BF9A8C",
"-. c #C69489",
";. c #C29F8C",
":. c #C49D8D",
">. c #C99691",
",. c #C29F92",
"<. c #C6A08F",
"1. c #C4A096",
"2. c #C9A592",
"3. c #CBA492",
"4. c #CFA397",
"5. c #CAA497",
"6. c #C8A198",
"7. c #CFA99C",
"8. c #D2A79D",
"9. c #D5A59F",
"0. c #D3AD99",
"q. c #D9ABA4",
"w. c #DAB0A7",
"e. c #DCB8AB",
/* pixels */
"                                                                                                                                ",
"                                                                                                                                ",
"                                                                                                                                ",
"                                                                                                                                ",
"                                                            1 : 2                                                               ",
"                                                        , o X X & 3 5                                                           ",
"                                                      , o X # X # * 4 5                                                         ",
"                                                      < # X # # # # + # 5                                                       ",
"                                                      # 4 i z Z Z C i & *                                                       ",
"                                                      < f A ` $.*.7.1.J 9                                                       ",
"                                                      3 z C P $.%.1.e.+.i                                                       ",
"                                                      q q # ; A m r F ) x                                                       ",
"                                                      f 6 4 # n i $ = z G                                                       ",
"                                                      C f 4 7 ' L 7 N ] [                                                       ",
"                                                      P ^ Z l ~ ( H $.q.-.                                                      ",
"                                                      ^ _ A s U O.} q.q.>.                                                      ",
"                                                        ` F N I { +.8.6.                                                        ",
"                                                        ] L D ~ -.4.5.                                                          ",
"                                                        ` L b T X.&.;.                                                          ",
"                                                        L P D V K  .2.` f                                                       ",
"                                                    O O n Q Y R ..;.0.! t y y                                                   ",
"                                                O O . O p P E ! +.2.<.Z 9 = 7 w                                                 ",
"                                            + O . X X + * F R ! X.:.R 9 0 O % 7 7                                               ",
"                                          + + + . . . X & i H ! ..E u 8 % @ % = - t p                                           ",
"                                        O O # . . X O O 4 y Z E J t = 7 $ % < = % - t p                                         ",
"                                      $ X # + X . X 0 + # f S Z ; = 0 7 @ $ % 7 % - - - u                                       ",
"                                    $ # # X $ $ $ X 4 # X # # # & * 6 < @ - 7 - - - % % t t                                     ",
"                                    # # X X # $ $ # 4 4 # # $ $ $ ; 6 @ @ - 7 - - % % - - % y                                   ",
"                                  $ & X X + + @ 6 # 6 4 # < < @ $ $ $ @ @ - 7 % - % % - % % j                                   ",
"                                  & + X X + # # % @ % 0 $ < 4 + # 6 $ # % % - % % % % % 7 t m                                   ",
"                                0 & + X X + @ # 4 @ $ 0 @ 4 $ + # 4 @ $ % % - % % % @ % t p v                                   ",
"                                4 * + + X + @ + $ $ $ q 6 6 # # < 3 O 6 % % - % % @ @ % 7 s d S                                 ",
"                                4 < # O O O @ # $ * # r 8 q @ + < $ $ % % % = y = O @ % 9 u j G                                 ",
"                                4 < # . O + $ $ = # # 8 r 0 + + 6 @ $ % % % - 7 = & @ = j u a C                                 ",
"                              e 6 # # . O + % % * $ + 6 w 6 # # 4 # $ < % - = 7 = ; 6 9 j r u v                                 ",
"                              0 4 # # O O @ < % * @ + 0 9 6 # $ * @ $ % $ = % = - ; 8 9 p i u k                                 ",
"                              4 0 # # 8 $ # % = $ @ + 8 8 4 # 4 $ < $ $ $ = = 7 ; ; ; u u u u a                                 ",
"                              0 4 < * q < # % 7 $ @ * 8 7 & + * @ @ @ @ @ = = = - - - p i 9 9 i                                 ",
"                            e 4 < 4 $ 4 # @ % - $ $ 4 7 6 & # 6 @ < $ @ $ 6 = 7 - ; 9 p 9 7 7 i j                               ",
"                            e * $ < 4 $ # @ $ = $ * * * 6 $ < 6 @ $ @ @ $ $ % = ; 9 9 i 7 ; ; 9 k                               ",
"                            4 & # # 4 < # # % - % = # 6 4 # 4 4 @ $ @ $ % % $ $ % = y w ; ; * 9 k                               ",
"                          r 0 & # + $ < $ $ $ = $ # @ * 4 * 6 4 @ $ < @ % - < % < % w % ; 8 9 u m                               ",
"                          q * X + + # $ $ $ % 6 $ # + 4 * $ 8 $ @ < O % @ % @ @ @ < 6 @ * 8 7 j S                               ",
"                            4 # X X # $ @ < $ = = $ + 4 * 4 6 @ @ % O % % % % @ # @ @ # @ * 8 g m                               ",
"                            4 & # X + $ + # $ % = % # * * 4 4 @ @ < < % % % % @ @ O # O O 6 9 p z                               ",
"                            0 & o X X O O # $ % = $ @ 4 4 6 * # O @ @ % % % % % @ @ # + # 6 9 k l C                             ",
"                            q * # X X + # O # % = = # * 6 6 * + @ O $ < % % % % % % @ + # 6 9 p a M                             ",
"                            q * o X o X # O < % = = @ * 0 $ # # O # $ % % % % @ % $ $ # O 6 t u d B                             ",
"                            r 4 # o . X X X # % = % $ * 4 * # + O * $ % = = @ @ @ * $ + + # 7 p N B                             ",
"                            r & < + X . X + + # % < $ * 4 * & X O * $ $ @ - @ @ @ = $ + + 6 8 i l n                             ",
"                            q & < O X O # + @ $ % = ; * 6 * + O . & $ $ % = @ = @ = $ + # 7 i j k b                             ",
"                              4 < # O + & $ # $ 6 $ 6 = 6 * + X X @ @ @ $ = = = $ @ & + + * 9 u v J                             ",
"                              0 $ # # # $ $ $ % $ % 7 * 6 * + + + * @ @ @ = = @ % @ * O + * r p k Z                             ",
"                              q < # # $ $ % < < $ $ 7 7 4 * O + & - $ $ @ * @ * @ @ @ @ @ * 9 s n M                             ",
"                              q < $ $ $ # $ $ % $ $ % 7 6 # + + = - = @ @ = @ @ = @ * . @ 8 9 u u M                             ",
"                                < # $ $ $ < % < % $ % 6 $ + + @ = - = = @ @ = @ @ @ * . + * t u p M                             ",
"                                  0 * # # $ % % $ = % 6 * + + # = = = @ = = = = $ % + O @ * r p a k                             ",
"                                      4 $ # $ $ $ % $ = = + * r = = = = % = = = = $ @ O & * 7 t p v                             ",
"                                      4 * @ # < < % $ = = + & w @ = * = = = % % % % # + # ; 9 t u v                             ",
"                                      4 # $ # # % < $ 6 * + + + @ O @ @ @ @ @ @ $ $ + + @ 8 w y u g                             ",
"                                      0 < % < $ $ $ < % * * * 4 4 * 6 ; = = = = * # + + # 6 y y u g                             ",
"                                      4 $ < $ # @ @ < < * 6 6 0 6 ; ; ; ; ; ; ; 9 * # # $ $ 7 t y j                             ",
"                                      4 $ $ $ # # $ $ $ * * * ; 6 6 ; 8 ; ; ; ; 7 # o # # $ 7 y y j                             ",
"                                      3 < # # # # < % < 4 6 4 6 6 = = * ; ; ; 9 0 # . # # @ % 7 7 y                             "
};
