/* XPM */
static char *f1edfa34e9b04368b05a61de5aa85e74z3Y3HbEhMzGk9Knt[] = {
/* columns rows colors chars-per-pixel */
"32 64 195 2 ",
"   c None",
".  c #0E0903",
"X  c #0D0B0B",
"o  c #110B04",
"O  c #160F09",
"+  c #16100A",
"@  c #1B130B",
"#  c gray9",
"$  c #1A1A1A",
"%  c #171919",
"&  c #2C1E17",
"*  c #321E18",
"=  c #301D17",
"-  c #39241C",
";  c #1F2121",
":  c #242424",
">  c #2A2725",
",  c #2F2F2F",
"<  c #322723",
"1  c #392721",
"2  c #352824",
"3  c #3A2A24",
"4  c #3D3229",
"5  c #323232",
"6  c #3A3836",
"7  c #552B1E",
"8  c #6E2813",
"9  c #7D341E",
"0  c #752A14",
"q  c #453028",
"w  c #5A3123",
"e  c #643425",
"r  c #693625",
"t  c #6C3A26",
"y  c #6A3929",
"u  c #783B29",
"i  c #544536",
"p  c #6F4025",
"a  c #7C442B",
"s  c #7D4B2E",
"d  c #76472A",
"f  c #734A39",
"g  c #774935",
"h  c #7A543F",
"j  c #584F48",
"k  c #635244",
"l  c #6B6B6B",
"z  c #676767",
"x  c #707070",
"c  c #822F15",
"v  c #92361A",
"b  c #9C3719",
"n  c #963518",
"m  c #8B381E",
"M  c #A53E1D",
"N  c #AB3E1D",
"B  c #A43F17",
"V  c #8B3921",
"C  c #983F23",
"Z  c #A15F0E",
"A  c #A6421A",
"S  c #A9411E",
"D  c #B7441D",
"F  c #BD431D",
"G  c #BC4A1E",
"H  c #A4610F",
"J  c #A36311",
"K  c #A16D1D",
"L  c #AA6919",
"P  c #824C2C",
"I  c #8C4C2B",
"U  c #844729",
"Y  c #924229",
"T  c #864D32",
"R  c #884E31",
"E  c #8B5233",
"W  c #8E573D",
"Q  c #84533C",
"!  c #945939",
"~  c #9B5D3C",
"^  c #925838",
"/  c #A24323",
"(  c #AB4522",
")  c #A4492B",
"_  c #AA4B2B",
"`  c #BD4721",
"'  c #BC4A25",
"]  c #B44E2D",
"[  c #BB4B28",
"{  c #B44724",
"}  c #BE5125",
"|  c #B7542D",
" . c #BB542F",
".. c #B95332",
"X. c #B75937",
"o. c #A55539",
"O. c #9E613D",
"+. c #A26E20",
"@. c #A3653F",
"#. c #A6683F",
"$. c #C4461F",
"%. c #C24A1E",
"&. c #C64620",
"*. c #C14E27",
"=. c #845B42",
"-. c #895D42",
";. c #8C6246",
":. c #886A4E",
">. c #9A6342",
",. c #A66B42",
"<. c #A86C46",
"1. c #B06C46",
"2. c #AE754F",
"3. c #AB7047",
"4. c #BB7A4D",
"5. c #B7764C",
"6. c #AF7550",
"7. c #A67D54",
"8. c #B37A52",
"9. c #9D7862",
"0. c #C07A4D",
"q. c #C17E51",
"w. c #B7804B",
"e. c #A98057",
"r. c #BD8457",
"t. c #BC8559",
"y. c #BD8A58",
"u. c #A98769",
"i. c #B78D68",
"p. c #AD8C73",
"a. c #AA8D74",
"s. c #B78A70",
"d. c #A4907F",
"f. c #B2957D",
"g. c #B9977B",
"h. c #C38A5B",
"j. c #CB8B5D",
"k. c #C58856",
"l. c #C7905F",
"z. c #CA935C",
"x. c #CC8E60",
"c. c #CC9563",
"v. c #CD9966",
"b. c #C39568",
"n. c #CD9B6A",
"m. c #C9966E",
"M. c #D09366",
"N. c #D09A67",
"B. c #D29D6B",
"V. c #CC9F72",
"C. c #D79C70",
"Z. c #D4A06F",
"A. c #D4A171",
"S. c #D8A577",
"D. c #D1A37B",
"F. c #D8A578",
"G. c #DAAA7C",
"H. c #D2A97C",
"J. c #9E8F8B",
"K. c #9F938F",
"L. c #9E9792",
"P. c #A88F81",
"I. c #A69385",
"U. c #A4948E",
"Y. c #AA948D",
"T. c #A7998E",
"R. c #B89981",
"E. c #A59690",
"W. c #A99790",
"Q. c #A59C98",
"!. c #A89E9B",
"~. c #A7A09D",
"^. c #A8A09D",
"/. c #A2A0A0",
"(. c #BEBCBA",
"). c #CEA98B",
"_. c #D4A988",
"`. c #DBB28F",
"'. c #D4AD90",
"]. c #D5B093",
"[. c #DCB595",
"{. c #DDB698",
"}. c #DEB99B",
"|. c #DDB996",
" X c #E2BC9D",
".X c #DFBFA5",
"XX c #C5BBB4",
"oX c #E5BFA1",
"OX c #E6C2A4",
"+X c #ECDCCC",
"@X c #F0E4D9",
"#X c #EAE2D9",
"$X c #F9EFE7",
"%X c #FFFEFC",
"&X c #ECEAE7",
/* pixels */
"                . . . . o X . . o . . . . o o o                 ",
"                . . . . O . . . . o . . . . . o                 ",
"                . . . . o o . o o o o . . o . .                 ",
"                . o O + @ @ @ @ @ @ @ @ O O . o                 ",
"                . 4 a.a.f.R.f.f.f.f.p.p.e.:.@ o                 ",
"                O i |.}.OXOX XoXOXOX X[.G.u.& @                 ",
"                u.f.[.{.}.}.{.{.}.}.|.`.H.n.e.7.                ",
"                `.|.}.{.].].{.{.|.[.).).H.H.n.v.                ",
"                _..X$XXX4 k ].{.oXR.3 j #X+Xb.h.                ",
"                _..X%XXXX 4 ).'.{.a.+ 6 &X@Xi.t.                ",
"                y.m.[.).a.9.f f f =.p.s.V.b.3.,.                ",
"                4.y.V.D._.s.w 7 7 y _.C.y.8.#.#.                ",
"                ,.1.6.<.=.g y e e y Q -.,.,.O.@.                ",
"                ~ ~ ,.^ r r y y r r y a O.>.~ O.                ",
"                a a a a U a u a a a E E ! ! ^ !                 ",
"                a a T T R R T R E E ^ ! >.>.~ ~                 ",
"# $ : : : : : q _ X.Y.P.Q P E E s s P =.T.P...] - $ : : : : $ $ ",
"# # ; > : : : 2 N ..Q.K.g p P s p p p h /.Y.*.N * $ : : : : # # ",
"$ ; $ $ $ $ : < c C Q.W.) / P P s U A o.!.Y.` N * # : : : : : ; ",
"> : $ # $ # : > 8 u Q.W.' D I P P I F X.!.Y.*.N * # : : : : : : ",
"$ $ ; : ; ; : 1 b _ Q.W.' $.{ N ( { *.X.!.Y.[ N 1 ; : : $ $ : : ",
"# # ; : : : : 1 N ..!.W.{ $.N F F ` ` *.!.Y.[ N 1 : : ; $ # : : ",
"; ; : : : : $ & n _ E.U.V n F $.F F N *.Q.U.m c 2 : $ $ : & $ $ ",
"> > > : > : $ & v ) Q.U.u c N F F F F X.!.J.9 0 2 > $ $ : : $ $ ",
"-.;.;.;.;.;.-.W { ] !.E.C M F $.` F F ..^.U.{ N -.-.-.;.;.;.-.-.",
"6.6.8.8.8.8.6.1.`  .Q.E.( N $.&.F F F ..^.Y.[ ` 1.6.8.8.6.8.6.6.",
"t.t.t.t.h.y.t.4.*.] !.Y.{ N $.$.F F F ..!.Y.[ ` 4.4.j.h.k.t.t.8.",
"h.h.h.h.l.x.h.4.` ..!.W.*.F $.&.F F F ..!.E.[ ` 0.t.x.x.h.h.h.h.",
"c.c.v.v.B.n.n.x.*.] !.Y.[ F $.F &.&.F ..!.Y.[ ` j.n.B.n.v.v.c.c.",
"v.n.B.B.C.B.C.x.*.] !.W.[ F F F &.&.F ..^.Y.[ ' x.C.B.B.B.B.v.v.",
"B.B.B.B.B.B.B.c.( ) Q.W.[ $.N F &.&.F ..^.U.S N x.C.n.B.B.B.B.B.",
"B.n.B.B.v.N.C.c.( ) Q.W.[ F $.$.&.&.F ..^.Y./ M j.B.n.N.B.B.B.n.",
"N.N.Z.Z.M.c.B.M.*.] !.W.[ F F F &.$.F ..!.E./ M j.B.c.v.A.Z.B.N.",
"N.N.S.Z.v.N.Z.M.*.] !.W.[ F F $.&.$.F ..!.E./ A j.B.c.v.Z.Z.N.B.",
"Z.B.Z.Z.Z.Z.G.C.*.] !.T./ N D F &.&.F ..!.E./ / M.G.Z.B.Z.Z.B.B.",
"Z.B.Z.Z.Z.Z.G.B.}  .Y.a.Y B F F $.%.G | U.I./ A M.G.A.Z.A.Z.B.B.",
"Z.Z.S.S.A.A.Z.c.L H K K Z Z J J H H H J K K Z J z.B.A.S.F.F.A.A.",
"Z.Z.S.S.A.Z.B.z.L H Z Z H H H J H H H H H Z H J z.B.A.A.F.F.A.A.",
"B.Z.Z.Z.Z.Z.c.k.' G B B ` G G F F G G F B A G G k.c.Z.A.B.B.B.B.",
"N.B.N.B.Z.Z.l.k.( M v v M M M M M M M M v n M S 4.l.n.Z.B.B.B.B.",
"                , > < > < < > < 2 2 > < < > 1 2                 ",
"                : : : : : : : : : : : : : : : :                 ",
"                , ; : : : : > : : : > : : : : >                 ",
"                : : : : : : : : : : : : : : : :                 ",
"                ; ; : : : : : : : : : : : : : :                 ",
"                , : : : : > : : : : : > : : : :                 ",
"                : : : : : : : : : : : : : : : :                 ",
"                : : : : : : : : : : : : > : : :                 ",
"                > : : : : : : : : : : : : : : :                 ",
"                : : ; : : : : : : : : : ; : : >                 ",
"                > : % # # $ : : : ; $ # # $ : :                 ",
"                : ; $ % # # : : : : $ # # $ : :                 ",
"                : : : : : : : : : : : : : : : >                 ",
"                > : : : : : : : : > : : : : : >                 ",
"                : : : : : : : : : : : : : : : :                 ",
"                : : : : : : : > : : : : : : : :                 ",
"                : : : : : : : : : : : : : : : :                 ",
"                : : : : : : : : : : : : : : : :                 ",
"                : : : : : : : : : : : : : : : :                 ",
"                5 5 5 5 5 5 5 5 5 , , , , , , ,                 ",
"                x l l l l l l l z l z z z z z l                 ",
"                x l x x x x x l x x x x x x x x                 ",
"                x x x x x x x x x x x x x x x x                 ",
"                x x l l l x l l l x l x x x x x                 "
};
