/* XPM */
static char *_e72793b9ca34fd79a37f783dbc7d9e1JUrDaaKFnk8fXhSg[] = {
/* columns rows colors chars-per-pixel */
"64 64 137 2 ",
"   c None",
".  c #070D1F",
"X  c #090D1E",
"o  c #120F1A",
"O  c #0F111E",
"+  c #13121D",
"@  c #1A151E",
"#  c #1D181F",
"$  c #2D1B15",
"%  c #251A1B",
"&  c #2B1E1A",
"*  c #331E14",
"=  c #321F18",
"-  c #2F201A",
";  c #362116",
":  c #392216",
">  c #352219",
",  c #3A251B",
"<  c #3A281F",
"1  c #070D20",
"2  c #0A0F20",
"3  c #051624",
"4  c #0B1122",
"5  c #071826",
"6  c #0A1A26",
"7  c #0B1B28",
"8  c #131422",
"9  c #1A1620",
"0  c #141C26",
"q  c #1A1923",
"w  c #121D2B",
"e  c #181D29",
"r  c #221C23",
"t  c #15212E",
"y  c #1B242D",
"u  c #152534",
"i  c #1C2731",
"p  c #1F2933",
"a  c #1B2E3B",
"s  c #1F303D",
"d  c #20272F",
"f  c #20282F",
"g  c #352720",
"h  c #372824",
"j  c #3C2A23",
"k  c #37332C",
"l  c #212730",
"z  c #242B32",
"x  c #292D34",
"c  c #302F3D",
"v  c #27333C",
"b  c #2A323A",
"n  c #32313E",
"m  c #4A2D1F",
"M  c #432C23",
"N  c #4B2F22",
"B  c #473026",
"V  c #4D3125",
"C  c #43342D",
"Z  c #4C352B",
"A  c #523425",
"S  c #543729",
"D  c #543A2E",
"F  c #453834",
"G  c #4F3830",
"H  c #523B34",
"J  c #5C3E32",
"K  c #543F38",
"L  c #534036",
"P  c #5D4135",
"I  c #56433A",
"U  c #5A4239",
"Y  c #5C443C",
"T  c #5D453B",
"R  c #624235",
"E  c #62453A",
"W  c #62493E",
"Q  c #343440",
"!  c #363640",
"~  c #3C3945",
"^  c #3D3946",
"/  c #3D3A46",
"(  c #2F4448",
")  c #374647",
"_  c #36474B",
"`  c #354B4F",
"'  c #374E52",
"]  c #3A4F50",
"[  c #3C5154",
"{  c #424E4D",
"}  c #584F46",
"|  c #544B4E",
" . c #435759",
".. c #4D5D5D",
"X. c #4F5F5E",
"o. c #525057",
"O. c #575359",
"+. c #5B555A",
"@. c #525E5E",
"#. c #5F595E",
"$. c #715243",
"%. c #74584C",
"&. c #60585C",
"*. c #605A5E",
"=. c #465C61",
"-. c #485F64",
";. c #645C63",
":. c #516262",
">. c #556362",
",. c #546464",
"<. c #576768",
"1. c #53686A",
"2. c #6B6163",
"3. c #636368",
"4. c #7C7069",
"5. c #85756B",
"6. c #8B7A6C",
"7. c #917B6C",
"8. c #89837B",
"9. c #968577",
"0. c #988377",
"q. c #9F8774",
"w. c #A08A79",
"e. c #B7947B",
"r. c #CBA384",
"t. c #CCA388",
"y. c #CEA68A",
"u. c #D0A688",
"i. c #D1A98A",
"p. c #DAAD8E",
"a. c #DEB18F",
"s. c #D8B192",
"d. c #D9B699",
"f. c #E5BC9A",
"g. c #F0BC95",
"h. c #E2BEA1",
"j. c #E3C0A1",
/* pixels */
"                                                        6 y y y y y                                                             ",
"                                                      3 5 y f f f y i                                                           ",
"                                                    3 5 y z n n n t y                                                           ",
"                                                    5 y f n / / / n w y                                                         ",
"                                                  5 6 y f +.;.2.#./ 7 y                                                         ",
"                                                  3 5 y x 4.w.u.9.o.t y                                                         ",
"                                                  5 5 y x 5.a.g.u.b 5 y i                                                       ",
"                                                  5 t y y | t.p.e.l 5 7 y                                                       ",
"                                                3 5 y y 0 n &.+.z 5 6 y y                                                       ",
"                                            X X 3 5 5 y y d z f 6 5 t y 7 u                                                     ",
"                                          X 2 2 6 t 6 6 y y y y y t 6 7 y y                                                     ",
"                                        . . t u 6 6 y y y 0 y y 6 6 y y y i u                                                   ",
"                                        X 4 u u t 5 y y y y d y y y y y y 7 u                                                   ",
"                                        X w u u u 3 5 5 6 t y y y y y 6 7 t u                                                   ",
"                                      . . 8 u u w 4 u 5 3 6 5 3 3 5 t u t 6 u                                                   ",
"                                      + 4 t u 8 2 . u u 8 h 0 3 . y C p u O y p                                                 ",
"                                    N B l u i % o 1 w u 8 M M 8 9 G K p u q H U                                                 ",
"                                    q N H x & $ X X 4 u t 9 V N H } x u i M A K                                                 ",
"                                  2 4 x K G : $ o X 2 t u w / C K @.v u i j % i                                                 ",
"                                . . t u l ; * * $ o X 2 w e ' =.>.:.v u u 2 . u u                                               ",
"                                . 2 u i   * * * * $ o X o M g g Z D H x   1 . 4 u                                               ",
"                                2 u u     * * * * * o + M A M 8 9 M J }     X . u u                                             ",
"                              . 2 u u     * * * * * N N A M q t t l Z P     1 X 2 u u                                           ",
"                              . X u u     * * * * * M N M 9 w a s a x C       . 2 u u u                                         ",
"                              + 8 t u       * * * * # @ 9 8 q ( ' -.c z       1 X X 9 x I                                       ",
"                            > V D r l         * : N N N J J > , k :.K J         . @ M J E Y                                     ",
"                            : V R J U E           : N A P E J S { 1.} E           M A A R S                                     ",
"                            > : A R E E           * * m V J P Y } <.E K         > , m , A S                                     ",
"                              * ; A U           S A A V r + q _ ] =.y @ &         > > : P E                                     ",
"                              * : <           , J T T R H + 2 6 w t w + & =           ; J E T                                   ",
"                              , A J           < K  .,.W J q u u u u t X $ *           ; m S R                                   ",
"                              V A R           * , [ X.D V q u u u u u 8 $ *             : A E W                                 ",
"                              V S R           * * j M S H q u u u u u u o &             j S R E                                 ",
"                            > A R E           , J P P R P q u u u u u u + &             6.  R W                                 ",
"                            ; A R W %.        g J J P R H l u u u u u u 8 &             d.  t.q.                                ",
"                            j J $.  s.          = * = M q u u u 8 u u u u                   f.f.                                ",
"                            *.7.i.  j.          o o + 4 u u u u 4 u u u u u                   h.                                ",
"                            3.9.d.            2 1 2 w u u u p u 4 u u u u u                                                     ",
"                              8.              1 2 w u u u u u u 1 4 u u u u                                                     ",
"                                            2 2 4 u a u u u u t . 2 u u a u                                                     ",
"                                            . X u u u u a u u 2 . X u u u u                                                     ",
"                                            X 4 u u u u u u t 2 . X u u u u a                                                   ",
"                                            X 2 u u u u u u u 2 X X u u u a u                                                   ",
"                                            X 4 u u u u u a   1 X . u u u u u                                                   ",
"                                            . 2 u u u u u u   1 X X w u u u u a                                                 ",
"                                            X 4 u u u u u a     X X 2 u u u u u                                                 ",
"                                          X X X 4 u u u u       X X X u u u u u                                                 ",
"                                          X X X 2 4 7 u u       . X X 2 u i u a                                                 ",
"                                          X X 8 t u u u u         X X . 5 u a                                                   ",
"                                          . 2 w u u u u           X . 2 u u u                                                   ",
"                                        2 X . t a u u u         . X . 4 u u u                                                   ",
"                                        X X 4 u u u u u         . X 2 u u u u u                                                 ",
"                                        . X t u u u u u         X X X u u u u u                                                 ",
"                                        . X u u u u u a         X X 2 u u u u a                                                 ",
"                                        . X 4 t u u u u           X 2 u u u u u                                                 ",
"                                          X . X 4 2 2             X X 4 w u u                                                   ",
"                                          . X o o o .             2 X o + + 4                                                   ",
"                                            $ * = &                 $ * = &                                                     ",
"                                            : V P                   : A J                                                       ",
"                                            , R E                   ; A E                                                       ",
"                                          A S R }                   , J E                                                       ",
"                                        , A R E                   * : A U W                                                     ",
"                                      : N S R E                   * * A S R R E E                                               ",
"                                      : A R E E                   * * : A S S R E                                               "
};
