/* XPM */
static char *a2be063939a343cffb14ee2bed02829bAtJaEROE1SV9rsxe[] = {
/* columns rows colors chars-per-pixel */
"64 64 143 2 ",
"   c None",
".  c #020516",
"X  c #0A0713",
"o  c #070917",
"O  c #0D0A15",
"+  c #020619",
"@  c #040B1D",
"#  c #0B0C1B",
"$  c #100B17",
"%  c #180E15",
"&  c #120D19",
"*  c #01101F",
"=  c #0D141F",
"-  c #14111D",
";  c #1E131A",
":  c #27140E",
">  c #2B150D",
",  c #2E190D",
"<  c #30170C",
"1  c #331A0D",
"2  c #381C0E",
"3  c #241613",
"4  c #251813",
"5  c #2C1A12",
"6  c #331C11",
"7  c #391E11",
"8  c #362117",
"9  c #3A2113",
"0  c #35221A",
"q  c #3E251D",
"w  c #3E281C",
"e  c #010E20",
"r  c #031322",
"t  c #091624",
"y  c #071825",
"u  c #0C1A26",
"i  c #0A1729",
"p  c #0C1C2D",
"a  c #131522",
"s  c #111D26",
"d  c #1A1821",
"f  c #121E28",
"g  c #191C29",
"h  c #0D1F30",
"j  c #0D212D",
"k  c #142129",
"l  c #1B232C",
"z  c #0E2132",
"x  c #112132",
"c  c #192431",
"v  c #132937",
"b  c #1A2834",
"n  c #152B39",
"m  c #192C3A",
"M  c #22262D",
"N  c #222A2E",
"B  c #392520",
"V  c #343028",
"C  c #3F3228",
"Z  c #212630",
"A  c #232B34",
"S  c #282E36",
"D  c #2D2C3A",
"F  c #312E3D",
"G  c #223039",
"H  c #32323E",
"J  c #41271E",
"K  c #44291D",
"L  c #4C2C1D",
"P  c #502E1F",
"I  c #50301F",
"U  c #442B21",
"Y  c #4A2D21",
"T  c #463027",
"R  c #4E3122",
"E  c #41302B",
"W  c #4C342A",
"Q  c #533222",
"!  c #52372B",
"~  c #55392D",
"^  c #5D3B2D",
"/  c #433531",
"(  c #4F3630",
")  c #523C34",
"_  c #5C3D31",
"`  c #613F30",
"'  c #534135",
"]  c #5D4135",
"[  c #564039",
"{  c #5C443A",
"}  c #624234",
"|  c #614539",
" . c #64493D",
".. c #3A3644",
"X. c #2B4246",
"o. c #344445",
"O. c #33454A",
"+. c #354C4F",
"@. c #344D51",
"#. c #395053",
"$. c #404D4C",
"%. c #574E44",
"&. c #534A4D",
"*. c #514F56",
"=. c #415658",
"-. c #4D5E5E",
";. c #565258",
":. c #5B545A",
">. c #515E5E",
",. c #5F585E",
"<. c #715141",
"1. c #74574B",
"2. c #60575C",
"3. c #605B5E",
"4. c #455E63",
"5. c #645C63",
"6. c #526363",
"7. c #566768",
"8. c #52686A",
"9. c #6B6163",
"0. c #636368",
"q. c #7D7069",
"w. c #86766B",
"e. c #8C7B6B",
"r. c #927C6C",
"t. c #8A847C",
"y. c #978678",
"u. c #998478",
"i. c #A18875",
"p. c #A18B7A",
"a. c #B8957C",
"s. c #CCA486",
"d. c #CEA68A",
"f. c #D1A789",
"g. c #D2AA8B",
"h. c #DBAE8F",
"j. c #DCB292",
"k. c #D9B79C",
"l. c #DBB89A",
"z. c #E4BA99",
"x. c #F0BD96",
"c. c #E9C09D",
"v. c #E4C1A3",
/* pixels */
"                                                            k k l k k *                                                         ",
"                                                          k k l l l k * *                                                       ",
"                                                          u i D F D l f r *                                                     ",
"                                                        j u D ......H l u r                                                     ",
"                                                        k y ..,.9.5.:.l k r r                                                   ",
"                                                        j p *.y.g.p.q.N k r @                                                   ",
"                                                      k f r S g.x.j.w.N s r *                                                   ",
"                                                      k r @ l a.h.s.&.k k s r                                                   ",
"                                                      k f r r c :.2.H u k s r e                                                 ",
"                                                    j t f u r r l l l f s r r e + .                                             ",
"                                                    k s r r u k k k f f r r u r + + +                                           ",
"                                                  z k k k s r r k k t k s u r r p i + +                                         ",
"                                                  z r k k k k k k k k k k s r p z p @ .                                         ",
"                                                  z p r r s s k s k u r r r e h z x i +                                         ",
"                                                  h @ p p t r r * * = * r p @ p p p e . +                                       ",
"                                                b k @ p c / u e @ = 0 * h h + + # z p @ o                                       ",
"                                                [ ) - h c ) ( & # U B # p p . X 3 f x l B L                                     ",
"                                                _ Y U k h A { ~ L U d p z + . . 3 5 N ) Y -                                     ",
"                                                c % B c h m >.' C o.t p i + . X > 6 W ) M @ +                                   ",
"                                              z p + + h z G 6.6.-.O.s i + . X > < < 6 l x p + +                                 ",
"                                              h @ . .   b ) ! T 0 0 q & . X : < < < <   z p @ +                                 ",
"                                            z p + .     [ ` U & o q P J $ O > < < < <     z p +                                 ",
"                                          z z @ + .     | R l p i a J Q L K 2 < < < 1     z p + +                               ",
"                                        z p p + +       E M n n n i & J K K < < < < ,     x p + +                               ",
"                                      [ Z # + . +       A G 4.@.X.= # % & % < < < ,       z p # o                               ",
"                                    { } _ L & +         _ ) 6.V 6 7 ~ _ Y Y K 2 ,         l d ! Y 6                             ",
"                                    ! ` Q I K           |  .8.$.W ^ | ` I K 2           | ] _ ` P 2                             ",
"                                    ! I 2 K 7 5         ) { 7.%.| _ _ L 2 2 2           } } } I 6 ,                             ",
"                                    } ^ 2 1 ,         4 & g 4.#.O.a # ; L P P R           ] L 2 ,                               ",
"                                  { } ^ 6           5 > o i i i t + # W } | { _ 0           8 2 ,                               ",
"                                  | Q L 6           , > o p h p h p - ^ | 7.=.) 7           ^ L 6                               ",
"                                | } P 6             , : o p x z z p = I ~ >.+.0 1           | Q I                               ",
"                                } } R q             : O p z h x z h & _ Q q 0 6 1           _ Q I                               ",
"                                 .}   e.            4 @ h z z h z h a _ ` ` ` ^ 8           | ` I 6                             ",
"                                i.s.  k.            3 # p h x h h z l ( ` ` _ ^ 8         1. .} I 5                             ",
"                                z.c.                  h z z p e p z h a J 6 5 5           j.  <.^ q                             ",
"                                v.                  z z z z h @ h z h h # + o o           v.  g.r.3.                            ",
"                                                    z z x z i @ h z h z h i + . +             k.y.0.                            ",
"                                                    z z z p @ + h h z x h x p . .               t.                              ",
"                                                    z z z p + + p x z z z h h e + +                                             ",
"                                                    z z z h + . + h z z z z z p + .                                             ",
"                                                  z z z z h + . + p z z z h z h + +                                             ",
"                                                  z z z z p + . + h x z z x z h + .                                             ",
"                                                  z z z z p + + .   z z z z z h + .                                             ",
"                                                z z z z h p + . +   z z z z x h + .                                             ",
"                                                z z z z h @ . .     z z z z x p + +                                             ",
"                                                z z z z p + . .       z z h p + + . +                                           ",
"                                                z z z i @ + . +       z p e @ + . . .                                           ",
"                                                  z z @ + . .         z x h h h @ . .                                           ",
"                                                  x z p + . +           h x h z i + +                                           ",
"                                                  z z z @ . . +         h z z z p + . +                                         ",
"                                                z z z z p + . .         z z x z p @ . .                                         ",
"                                                z z z z p @ . +         h z z z z p + .                                         ",
"                                                z z z z h + . +         h x z z x p + .                                         ",
"                                                z z z z p + .           h h h h p @ . +                                         ",
"                                                  h p p @ + .             e + + . . .                                           ",
"                                                  + o + o o +             + + o o . .                                           ",
"                                                    4 6 < >                 3 6 , ,                                             ",
"                                                      _ L 2                   _ P 1                                             ",
"                                                      { Q 1                   | ` 7                                             ",
"                                                      | ^ 9                    .` I R                                           ",
"                                                    { } Q 2 >                   | } P 8                                         ",
"                                              | } } ` Q L 1 >                   | } Q L 6                                       ",
"                                              } } Q Q P 7 < 1                   } } } Q 1                                       "
};
