/* XPM */
static char *_f1a5bee9d084753daedc8376a73dd8eMXhg7cHI4xrRGJlZ[] = {
/* columns rows colors chars-per-pixel */
"64 64 192 2 ",
"   c None",
".  c #1B0101",
"X  c #240101",
"o  c #2B0101",
"O  c #340102",
"+  c #3B0202",
"@  c #3B0907",
"#  c #330D0A",
"$  c #2E1505",
"%  c #3D140B",
"&  c #2D3C04",
"*  c #323E03",
"=  c #3C350D",
"-  c #3C3B08",
";  c #373811",
":  c #3A3C14",
">  c #3B3510",
",  c #440202",
"<  c #4B0203",
"1  c #4E0C09",
"2  c #480809",
"3  c #530203",
"4  c #5B0203",
"5  c #5D0509",
"6  c #52080B",
"7  c #481509",
"8  c #4A1E1C",
"9  c #531114",
"0  c #630203",
"q  c #6C0202",
"w  c #6D040A",
"e  c #66020A",
"r  c #740203",
"t  c #7C0203",
"y  c #770801",
"u  c #77050B",
"i  c #77140C",
"p  c #7D0312",
"a  c #48220D",
"s  c #5B2008",
"d  c #413A0D",
"f  c #4A3F0D",
"g  c #4A3607",
"h  c #503605",
"j  c #552815",
"k  c #413A12",
"l  c #652406",
"z  c #4D2423",
"x  c #762F24",
"c  c #344304",
"v  c #394506",
"b  c #374904",
"n  c #3B4D05",
"m  c #3D5205",
"M  c #3F510B",
"N  c #3D4A13",
"B  c #44440B",
"V  c #48490B",
"C  c #425506",
"Z  c #445C06",
"A  c #4A5D06",
"S  c #455408",
"D  c #475A08",
"F  c #4D5D0C",
"G  c #4B530B",
"H  c #555A0E",
"J  c #464415",
"K  c #4B4513",
"L  c #454A15",
"P  c #4B4C15",
"I  c #554A16",
"U  c #4B5711",
"Y  c #4C5A12",
"T  c #4A591B",
"R  c #475B1B",
"E  c #585317",
"W  c #466406",
"Q  c #4A6306",
"!  c #4A6A06",
"~  c #4C620B",
"^  c #4F6A09",
"/  c #51690B",
"(  c #546509",
")  c #59730E",
"_  c #5B6C11",
"`  c #556711",
"'  c #5E7416",
"]  c #777D0E",
"[  c #607718",
"{  c #617916",
"}  c #4C4C28",
"|  c #495B22",
" . c #4B5D2F",
".. c #5B5D25",
"X. c #4A5D37",
"o. c #715227",
"O. c #51642D",
"+. c #5B6C2E",
"@. c #586624",
"#. c #5A6932",
"$. c #526330",
"%. c #65762E",
"&. c #747C29",
"*. c #6B703D",
"=. c #7A7230",
"-. c #5F7341",
";. c #716D44",
":. c #647A4A",
">. c #6B7C59",
",. c #820102",
"<. c #8B0202",
"1. c #830409",
"2. c #8C030B",
"3. c #8C0B0A",
"4. c #890904",
"5. c #940102",
"6. c #9C0202",
"7. c #9B0409",
"8. c #96060B",
"9. c #8B140E",
"0. c #9D1405",
"q. c #931707",
"w. c #880C18",
"e. c #930915",
"r. c #930B1C",
"t. c #801B10",
"y. c #9B1A16",
"u. c #A40304",
"i. c #AC0403",
"p. c #A60C04",
"a. c #AC0904",
"s. c #A70808",
"d. c #A40209",
"f. c #B20302",
"g. c #BB0303",
"h. c #B40B04",
"j. c #BE0A04",
"k. c #BD0609",
"l. c #A4150A",
"z. c #BD1207",
"x. c #A00F1F",
"c. c #BF0C12",
"v. c #BD1017",
"b. c #A21E27",
"n. c #B01734",
"m. c #C20403",
"M. c #CC0404",
"N. c #C90806",
"B. c #C2040B",
"V. c #CE070A",
"C. c #C50A0D",
"Z. c #CB090E",
"A. c #C10901",
"S. c #D60101",
"D. c #D30604",
"F. c #DD0304",
"G. c #D4060C",
"H. c #D80908",
"J. c #C11408",
"K. c #CA0D14",
"L. c #DC0714",
"P. c #CD101A",
"I. c #DC111B",
"U. c #E60101",
"Y. c #E70808",
"T. c #F20208",
"R. c #F30614",
"E. c #D01423",
"W. c #E50920",
"Q. c #C92028",
"!. c #8E4E35",
"~. c #6F820C",
"^. c #698249",
"/. c #758849",
"(. c #6D8669",
"). c #748B6A",
"_. c #728775",
"`. c #928C17",
"'. c #9CA616",
"]. c #ACB714",
"[. c #82863E",
"{. c #8DA37B",
"}. c #A1A067",
"|. c #9AA685",
" X c #8EA89A",
".X c #93A796",
"XX c #9BB1A7",
"oX c #A4B3A5",
"OX c #B0C1A1",
"+X c #B4C3BD",
"@X c #B8C8C8",
"#X c #C0CECF",
/* pixels */
"                                                                                                                                ",
"                                                                                                                                ",
"                                                                                                                                ",
"                                                                                                                                ",
"                                                                                                                                ",
"                                                                      8.3.w.                                                    ",
"                                                        W.    E.P.K.j.a.a.s.                                                    ",
"                                                    R.T.F.F.G.C.A.m.j.g.j.j.e.                                                  ",
"                                                  L.U.U.S.S.S.S.N.N.N.N.m.j.8.                                                  ",
"                                            v.C.Z.m.m.g.i.f.g.B.B.B.g.M.G.Z.6.w.                                                ",
"                                        I.H.H.D.V.k.f.5.5.<.,.r t i.u.6.f.g.u.3.                                                ",
"                                        H.H.Y.Z.f.6.q r r < + , 3 5.u.q 5.g.5.5.                                                ",
"                                      C.m.S.F.g.5.0 < 0 , < , , , r u.t t f.,.,.e.                                              ",
"                                      V.m.m.m.g.t 4 3 < o + O o o 3 p 2.t 6.q ,.,.r.                                            ",
"                                      B.g.i.<.<.5.0 , , X + < 3 + 5 4 p e ,.0 ,.r r e.n.                                        ",
"                                        i.u.<.<.5.3 < < . X + + , 2.e 2 < 0 0 t 0 0 r 8.x.                                      ",
"                                        s.u.6.5.2.< e u O o o , 1.w 3 o , 3 r w 0 4 q ,.1.                                      ",
"                                        s.u.i.5.7.t + p w 0 <.d.,.< , X + 0 6.4 4 4 0 y u                                       ",
"                                      v.a.f.f.<.,.7.e O 2 5 t r 3 O X o o <.d.< 3 0 0 5                                         ",
"                                    Q.h.a.g.f.t r 0 0 3 + + , + O o X . 3 6.r , 0 w e                                           ",
"                                  b.l.p.a.j.g.5.0 < , + o O 4 3 O . . 3 5.t 3 3 5 1                                             ",
"                                  y.q.0.a.j.g.g.5.q , 3 r r 4 o . o 4 r q < , 1 9                                               ",
"                                    t.0.z.j.i.m.m.m.g.6.q O X X O 4 0 < , @ # 8                                                 ",
"                                      l.J.j.i.i.6.5.q O o O O O + + o . + @ # z                                                 ",
"                                      y.l.p.u.6.4.q < 1 @ o X X X X . X , @ %                                                   ",
"                                        9.9.4.<.<.y s !.x 1 + X . . . O , a                                                     ",
"                                              i l h b P o.j 7 7 % $ O , 7 G                                                     ",
"                                                ] Q m M ` - = d A g < 1 g S                                                     ",
"                                                  ~.F Y F D ~ / ! S h d   E +.                                                  ",
"                                                  ) m & c ^ / ^ Z ! A -                                                         ",
"                                                  { W c & D Z W W W Q -                                                         ",
"                                                    ` b & C D Z W W _ K k                                                       ",
"                                                    { Z c b Q A W Q _ K =         #XoX>._.                                      ",
"                                                      ^ m c ( Q D W W g       +X@XXX^.X.X.X.                                    ",
"                                                      ' W m D Q Q W Q V     .XXX X:.O.O. .N N                                   ",
"                                                      ) ! Z C ^ W W Q f } ).(.).^.+.-.$.T U                                     ",
"                                                        ! W m ( W /   E } /./.[.&.#.#.@.Y                                       ",
"                                                        ) ! m D A   OX;.J %.+.      ..H                                         ",
"                                                            F (     {...; | R                                                   ",
"                                                                  |.:.L : |                                                     ",
"                                                            J N E *.O.J : T                                                     ",
"                                                        U v * v B     J >                                                       ",
"                                                        n v * v * v   d                                                         ",
"                                                      C n n n C * v   k                                                         ",
"                                                    F C m m Z c * B   d                                                         ",
"                                                    S C m m m c * C '.I                                                         ",
"                                                    n n m Z c c c   ].H                                                         ",
"                                                  F n b n C c c *   `.K                                                         ",
"                                                  F n b M m c c v     d                                                         ",
"                                                  ~ n n n m c c       =                                                         ",
"                                                    C m c c b M       =                                                         ",
"                                                    m b c n ~         =                                                         ",
"                                                    / ~                                                                         ",
"                                                                    K                                                           ",
"                                                                    K                                                           ",
"                                                                    B                                                           ",
"                                                                    L                                                           ",
"                                                                    I                                                           ",
"                                                                    =.}.                                                        ",
"                                                                    K                                                           ",
"                                                                    d                                                           ",
"                                                                    k                                                           ",
"                                                                    d                                                           ",
"                                                                    k                                                           "
};
