/* XPM */
static char *_958fc7827bf4b4ff18512b307642f7aFKLGA6ZxlMgUSDRc[] = {
/* columns rows colors chars-per-pixel */
"64 64 230 2 ",
"   c None",
".  c #161624",
"X  c #1B1525",
"o  c #1C1D2B",
"O  c #181A2A",
"+  c #1A1D30",
"@  c #241A2A",
"#  c #2B1C2C",
"$  c #251627",
"%  c #331C2C",
"&  c #3C1B2B",
"*  c #311626",
"=  c #2E1F31",
"-  c #391F32",
";  c #1D2334",
":  c #1D2639",
">  c #1C2A3C",
",  c #172637",
"<  c #1E212F",
"1  c #28202E",
"2  c #32212E",
"3  c #3B212F",
"4  c #242433",
"5  c #2C2433",
"6  c #232639",
"7  c #292639",
"8  c #232B3D",
"9  c #2A2B3C",
"0  c #2C2936",
"q  c #332433",
"w  c #3B2333",
"e  c #342C3A",
"r  c #3B2B3A",
"t  c #382937",
"y  c #3C333E",
"u  c #431B2D",
"i  c #4B1A2D",
"p  c #531B2E",
"a  c #5C1C2F",
"s  c #441E31",
"d  c #491D33",
"f  c #6A1B2E",
"g  c #661D30",
"h  c #771E31",
"j  c #791C2E",
"k  c #432433",
"l  c #4D2334",
"z  c #422D3A",
"x  c #4D2B3C",
"c  c #482838",
"v  c #542336",
"b  c #5C2439",
"n  c #56283A",
"m  c #45323C",
"M  c #4C323D",
"N  c #53323D",
"B  c #63243A",
"V  c #6C243A",
"C  c #67283A",
"Z  c #75253A",
"A  c #7B253C",
"S  c #762839",
"D  c #65333C",
"F  c #73333E",
"G  c #1E2E42",
"H  c #1E3044",
"J  c #1F3148",
"K  c #232E40",
"L  c #2B2E41",
"P  c #233244",
"I  c #2B3345",
"U  c #23344A",
"Y  c #2C3649",
"T  c #27394B",
"R  c #2C3B4D",
"E  c #3B3442",
"W  c #333C4D",
"Q  c #373947",
"!  c #2C3E51",
"~  c #273950",
"^  c #333F50",
"/  c #342F40",
"(  c #473A45",
")  c #573B44",
"_  c #5A2D40",
"`  c #673B43",
"'  c #763A43",
"]  c #3D414E",
"[  c #2E4153",
"{  c #334253",
"}  c #3C4453",
"|  c #3C4C5C",
" . c #374859",
".. c #3E505C",
"X. c #49434E",
"o. c #5B434B",
"O. c #57444B",
"+. c #4B4A55",
"@. c #464A57",
"#. c #5B4B53",
"$. c #534752",
"%. c #4B535C",
"&. c #45525E",
"*. c #57535C",
"=. c #67454B",
"-. c #744A4D",
";. c #674C52",
":. c #794E51",
">. c #67575B",
",. c #77595A",
"<. c #4A5560",
"1. c #475663",
"2. c #585A62",
"3. c #655C63",
"4. c #755D61",
"5. c #58636B",
"6. c #5D6B72",
"7. c #6B666B",
"8. c #66656A",
"9. c #786668",
"0. c #696A72",
"q. c #786D73",
"w. c #6A7679",
"e. c #7B7273",
"r. c #7C7A7C",
"t. c #777579",
"y. c #75625E",
"u. c #BD0D1D",
"i. c #B4101F",
"p. c #8C1E33",
"a. c #851E33",
"s. c #941E35",
"d. c #9A1E35",
"f. c #8F1A2C",
"g. c #A91428",
"h. c #BA1626",
"j. c #B2162A",
"k. c #82263C",
"l. c #8C233A",
"z. c #8A2535",
"x. c #932035",
"c. c #932138",
"v. c #992239",
"b. c #9A313B",
"n. c #B02631",
"m. c #DD040C",
"M. c #D9060C",
"N. c #CE0915",
"B. c #CB0919",
"V. c #C8091A",
"C. c #D40613",
"Z. c #DA0511",
"A. c #D30A14",
"S. c #D10A1B",
"D. c #CB111B",
"F. c #D01415",
"G. c #E10307",
"H. c #E1030A",
"J. c #C30D21",
"K. c #C31423",
"L. c #D02623",
"P. c #BB463B",
"I. c #843A44",
"U. c #97394A",
"Y. c #875B58",
"T. c #885057",
"R. c #87635D",
"E. c #94625D",
"W. c #895D64",
"Q. c #955C61",
"!. c #8C6A65",
"~. c #836B6C",
"^. c #8C6C6B",
"/. c #866567",
"(. c #946965",
"). c #89716B",
"_. c #97746B",
"`. c #856D72",
"'. c #8A6C71",
"]. c #837474",
"[. c #8B7473",
"{. c #83767A",
"}. c #847B7B",
"|. c #8C7B7C",
" X c #8B7777",
".X c #9A7C74",
"XX c #927B7B",
"oX c #977775",
"OX c #906E74",
"+X c #A17768",
"@X c #B1726C",
"#X c #B05C58",
"$X c #C35F62",
"%X c #8C8579",
"&X c #9C847C",
"*X c #94847C",
"=X c #8F9474",
"-X c #A48478",
";X c #B68876",
":X c #BC937D",
">X c #C5967D",
",X c #C88C7B",
"<X c #7D7B81",
"1X c #827E82",
"2X c #907E80",
"3X c #788382",
"4X c #72A787",
"5X c #72D6A9",
"6X c #75C69B",
"7X c #848083",
"8X c #8F8081",
"9X c #938382",
"0X c #9B8B86",
"qX c #988B89",
"wX c #A18B83",
"eX c #A58685",
"rX c #A4938A",
"tX c #A79187",
"yX c #B99283",
"uX c #B99F90",
"iX c #8AAE8B",
"pX c #C59A82",
"aX c #CB9C85",
"sX c #C89986",
"dX c #D79E85",
"fX c #D4A58D",
"gX c #D8AD95",
"hX c #D9B49D",
"jX c #CAA18C",
"kX c #DAB9A2",
/* pixels */
"                                                                                                                                ",
"                                                                                                                                ",
"                                                                                                                                ",
"                                                       .[ [ [ [ |     [ T T { ..                                                ",
"                                                  5...[ [ [ J [ [ [ T H P P R { @.                                              ",
"                                                1.6.5. .[ J J J T H > H H P 8 Y } &.                                            ",
"                                              %.w.w.6.1.[ [ [ J J U > > > > > > R  .1.                                          ",
"                                            @.5.3Xw.5.[ > > > H H T > > , > > > H R &.                                          ",
"                                            %.w.3X5...> ; , > 8 U [ H > , , , , > U { %.                                        ",
"                                          @.6.3Xw.5.[ 9 Q W ] ] ....&...P , , , , H R ..5.                                      ",
"                                        %.%.w.r.w.5.] @.*.5.5.8.8.0.w.5.&.I , , , > T  .1.                                      ",
"                                        @.%.0.t.6.$.3.9.9.e.e.e.e.r.r.t.0.@.P , > > U  .1.                                      ",
"                                      %.@.2.8.q.>.).*X!.9.]. X X}.%X7X<Xw.2.W : > H U [ ..1.                                    ",
"                                      } @.%.0.e.*X;X;X_.].].].}.}.<X7X<Xt.0.@.8 , G U {  ...                                    ",
"                                      [ ] %.w.=X:X>X;X-X[.].{.}.}.7Xr.r.t.7.+.L > H U { [  .1.                                  ",
"                                    9 0 ] 8.t.=X>X>X>X;XXX X}.|.7X7X7Xr.t.7.+.L > H U [ [  ...                                  ",
"                                    8 9 Q 0.t.=XjXfXaXyX&X%X1X7X1X1X<X<Xt.7.%.9 > H U [ [ [ |                                   ",
"                                    9 9 ] r.%X*XtXuXjXyX&X}.1X%X1X1X1X<Xt.7.%.9 8 > Y [ [ ~ [ 2.                                ",
"                                  9 < 4 %.r.r.e.9.e.%X*X|.{. X{.{.{.1X<Xt.7.+.I > > P T [ U ! 1.                                ",
"                                  ; o 0 *.0.r.).;X:X9.>.2.9.].].`.q.0.0.5.<.} 8 > 8 P T [ J U |                                 ",
"                                  < < 0 X.2.e.).,X>X>X_.>.7.e.].].8.@.W R R 9 8 > 8 P P R J J [                                 ",
"                                4 o < 0 ( +.9.y.;X>X>X+X,.,.e.e.q.7.3.2.8.3.+.I > > 8 P T H G ~ <.                              ",
"                                < O < 9 y O.y.2.9.&X-X,.#.>.].}.q.9.>.3.9.>.$.Q 8 > P P U H H P {                               ",
"                                < . < y y O.y.y.!.!.).8.#.>.e.{.q.3.#.;.3.*.X.9 6 > 8 8 U H H H W %.                            ",
"                                < . < e y ;.=X>X>X>X:X=X4.9.{.t.q.>.( ( } ( Y 9 4 > 8 H U H J > U }                             ",
"                              6 . . 4 e m -.E.>XkXkXfX;X^. X2Xt.e.0.*.+.+.Q I L 8 > 8 8 P J J > P R &.                          ",
"                              4 . . 4 0 ( Y.,XkXhXhXgX:X;XyX2X{.].t.q.3.3.*.X.Q 9 8 8 8 P J U J P U }                           ",
"                              < . . 0 0 ) #X>XkXhXgX>X;XsXjXeX{.q.`.t.e.q.7.*.^ I > 8 8 8 J J U P U W %.                        ",
"                              4 . < 1 e ) _.>X>XgXfX;X+X;X>XeXOX{.9./.{.r.e.7.*.Q L 8 P P J J J U T [ &.                        ",
"                              < . o < e N -X>X>XgX:XY.T.E.@X_.OX'.~.!.~. X{.q.>.X./ 8 P > P H J U T { *.5.                      ",
"                              o . o 1 e ) =X;X>XfX;X:.=.T.E.y.4.`. X^.!.OXOX'.4.$.9 9 I 8 H P H J T R %.                        ",
"                              o . @ 0 t O.-X,X>X>X:X_.R.Y.R./.].{.}.[./.OXOXOX4.$.0 : 8 P 8 G H J U U [                         ",
"                            4 1 . 1 e y ) -X>X>XR.R.@X@X@X^.'.OX2X{. X/.^.OX^.9.X.; ; 8 L L 8 G K U U R %.                      ",
"                            O o . 1 y y ) !.>XfXR.D E.(.(.W.W.W.W.`.4./.!.!./.,.( + + 6 I Y I G U J U ~  .                      ",
"                            X X o o e ( y -.;XfXpX#X@X.XXX*XOX'.9.) *.~.^.^.R.>.E + O 9 Q W ^ I P P U U R {                     ",
"                            $ @ o 1 0 ( y o.E.>XaX;X$X$XQ./.'.'.~.4.`.OX!./.,.O.L , O E ( R X.@.L P P Y T R                     ",
"                            @ # 1 1 1 y X.M Y.;XaXyX@X@XQ.Q.Q.'.'. X XOX!.4.#.E + ; 5 #.>.W ^ +.P 8 I I Y [                     ",
"                        * $ $ % * 1 1 1 X.( ` _.sXgX>X;X(.^.OX2XXX|.[.4.>.#.E o O m ,.].q.( @.} 8 P U Y U R [                   ",
"              h.D.g.g i u * $ * * @ @ 1 t O.m -.;XgXfX:XoX|.XX|.2X|.9.3.#.$.E 9 E 4.XXqX2X*.W L : 8 P T I R {                   ",
"          K.F.M.m.V.f i i u $ * % 2 5 $ $ m q k T.sXfXpX.X2X9X9X2X9.4.9.`.`.'.`./.XX0XqX9X7.Q : 6 8 8 P Y R W                   ",
"        K.M.H.G.m.N.f p i * * $ # q 1 @ X @ y 5 k #X>X;X+X.XXXoX'.'.OXOX|.2X9X9X9X0XwX0XqX{.@.; : 8 > P I R W                   ",
"      h.A.m.H.G.m.u.f p i i & * 2 t 1 $ $ X @ y 5 k :.E.Q.(.E.W.(.OX2X2X9XqXqX0XeX-XwX0XqX|.+.: 8 > : 8 U R ^                   ",
"      B.m.H.H.G.m.u.f a p i * * 3 z 5 X @ X X $ 5 @ 2 N ` ` -.Q._.XX2X0XqXqX0X0X.XoX.X.X[.7./ : : , , 8 L R {                   ",
"    K.Z.m.G.H.H.m.N.a.p p i u * z z 2 1 @ X $ X X @ 1 z N ` :.(..X&X&XeX-X&X.XoX_.W.,.o.( 7 ; 6 6 ; : P P U  . .                ",
"    J.M.G.G.G.H.m.C.f.a p i u & c m % @ @ @ @ X . X @ q ( ` T._.&XwXwX-X.X_./.;.M k w = = 6 ; : : : > K P Y W | 1.              ",
"  h.S.Z.G.G.H.H.M.M.i.f p i u 3 c m q @ X # # @ X X $ w x ` Y..XeXwX0X*X].=.k % - w = - = 6 = 6 : 8 G K P U { { |               ",
"g.J.N.M.G.H.m.m.m.M.M.f.g p i s c m # @ @ 1 q 5 X X @ z x ' E..XwXwXrX*XO.- % - w w - - - = 6 6 : 6 > L Y Y W |                 ",
"h.Z.A.Z.G.G.Z.Z.m.N.M.u.a.j f l c k 3 1 # 5 e q @ $ @ w x ` (..XwXtXrX*Xx w % k - d l c t 7 6 6 6 : : G I R W                   ",
"B.Z.Z.B.m.G.G.Z.Z.S.M.M.g.g.g.V l N ) ( e 0 t 0 2 $ 1 3 M ` E.&XeXrXrX2X_ s s d d v c d c 7 7 7 = : 6 > K ~ ^ |                 ",
"S.Z.m.B.Z.G.G.Z.C.V.M.H.M.N.i.z.N ) O.( ( e q 0 1 $ 1 3 x D !..XrXrXrXqX) d x d b d x v d - L 7 8 6 6 K Y L W (                 ",
"C.M.m.C.Z.m.G.m.N.j.J.B.N.F.n.k.) ,.#.m ( e q e 2 # 1 3 k N !.&XqXrXrXqX>.b b b v b b b _ r 7 - 7 7 7 L L Y Y  .1.              ",
"C.m.M.M.N.m.G.G.C.i.V.J.u.K.n.S D y.#.m O.1 2 y 2 # $ 3 & n Y.*XeXqXqX2XI.B b d v B b b b c r / 7 6 6 7 L Y W @.                ",
"Z.Z.m.H.S.Z.G.G.m.V.m.A.A.A.V.h ' y.;.O.m 1 2 t q # @ % u v Y.|.qX2XQ.U.v.Z v b B b b B B _ c r / e K 6 L Y ^ @.1.              ",
"m.m.m.m.Z.C.m.G.m.S.m.m.m.m.u.j ' y.O.#.t # 1 y q # @ u u k ;.W.W.U.v.d.d.Z d b v B B B B b x c ( / L = L Y ! ( 1...            ",
"Z.m.m.m.Z.S.Z.G.M.N.m.m.m.m.j.S D ;.>.) 2 2 1 3 t # # g j Z z.x.d.d.d.d.d.A d b _ B B B B B v x d - / L 6 L U ^                 ",
"m.m.H.H.H.Z.Z.G.A.C.m.Z.S.S.n.F =.;.O.t 2 1 1 3 m 3 * a s.s.s.d.d.d.d.d.d.k.b d b b b B b _ v _ v c / L L K 6 Y |               ",
"H.H.m.m.m.m.C.m.N.C.m.m.S.K.v.' ` o.) y 2 1 2 3 ( - * i a.p.s.s.d.d.d.s.s.p.g v b B B B V V V _ _ d / = L K L W                 ",
"H.H.H.H.m.m.M.M.N.Z.m.m.m.A.f.b N ) ) m 2 * 2 3 s & & u j p.s.s.d.d.d.s.c.U.Z g V Z Z A A A k._ _ _ / = K L I ^                 ",
"H.H.H.H.L.L.M.A.V.B.C.C.u.g.h n M D -.( t * 2 3 - s & & f s.p.p.d.d.d.d.s.c.k.V V V Z Z A A Z V _ _ - L = K L                   ",
"Z.Z.H.P.iX=XF.N.V.B.N.u.f.a.D l D =.=.>.y & 2 2 w s & & f p.p.s.d.s.s.d.c.s.l.V V V A Z A A A V Z _ / = L K W ^                 ",
"Z.Z.Z.P.5X5XP.F.J.A.K.n.h.z.D S z.-.o.;.o.i 3 3 k - & s a a.p.s.s.s.s.c.c.c.c.A A V A A A A A A ' B / L = U ^ ^                 ",
"H.H.Z.F.=X5X=Xn.h.K.n.D.n.F z.f.F ;.=.=.=.p u 3 k s u s a a.p.s.s.s.c.s.d.c.l.k.k.A A A ' A A A A b / 7 K I ^  .}               ",
"G.H.H.m.n.6X5XY.j.n.D.n.I.S z.F D ' :.' ' n p k c u s u a a.p.p.p.l.l.s.s.c.l.k.l.A A A k.k.k.k.' d / 7 K I |   } ..            ",
"H.H.m.H.A.=X5X4Xn.J.h.z.D D a h z.z.b.b.F n p l k d u u a a.a.p.p.l.s.s.l.s.l.l.l.A A A k.k.k.k.k._ / L L Y ^     1.            "
};
