/* XPM */
static char *_da84ceb92094250b285d77de6030294dcwdEbIoDXRcAicw[] = {
/* columns rows colors chars-per-pixel */
"64 64 146 2 ",
"   c #473B2D",
".  c #4A3E2B",
"X  c #463D34",
"o  c #493F32",
"O  c #453E3A",
"+  c #4E412E",
"@  c #51432F",
"#  c #4C4234",
"$  c #46403D",
"%  c #4A433B",
"&  c #514533",
"*  c #564935",
"=  c #594B36",
"-  c #52473B",
";  c #554A3B",
":  c #5A4D3B",
">  c #5E503D",
",  c #61533E",
"<  c #444244",
"1  c #494443",
"2  c #4D4846",
"3  c #45454D",
"4  c #48474D",
"5  c #4D4A4C",
"6  c #534B42",
"7  c #5A4F44",
"8  c #554F49",
"9  c #5D5244",
"0  c #56514F",
"q  c #5C5349",
"w  c #474750",
"e  c #474850",
"r  c #4A4A53",
"t  c #4F4F58",
"y  c #514F54",
"u  c #555256",
"i  c #5A5554",
"p  c #5E5855",
"a  c #53535D",
"s  c #5B5759",
"d  c #5E595A",
"f  c #625543",
"g  c #665846",
"h  c #685B47",
"j  c #61564A",
"k  c #65594B",
"l  c #6A5D4B",
"z  c #655B52",
"x  c #6A5E52",
"c  c #655E5C",
"v  c #6E614E",
"b  c #71634F",
"n  c #6D6153",
"m  c #67605F",
"M  c #6A625C",
"N  c #736552",
"B  c #766955",
"V  c #786A56",
"C  c #71665C",
"Z  c #766A5C",
"A  c #7A6D5C",
"S  c #565661",
"D  c #5A5A64",
"F  c #5E5E6A",
"G  c #635F62",
"H  c #605F6B",
"J  c #666164",
"K  c #696363",
"L  c #62626D",
"P  c #69656B",
"I  c #6D686C",
"U  c #716762",
"Y  c #746B64",
"T  c #7A6F64",
"R  c #736C6A",
"E  c #786F6A",
"W  c #7C7164",
"Q  c #7C726C",
"!  c #676774",
"~  c #696772",
"^  c #676875",
"/  c #696976",
"(  c #6C6C7C",
")  c #6D6D7D",
"_  c #6E6F7F",
"`  c #6F6F7F",
"'  c #736D71",
"]  c #726E74",
"[  c #706E79",
"{  c #7C7371",
"}  c #7C7473",
"|  c #7C7474",
" . c #7D767A",
".. c #7F787C",
"X. c #807469",
"o. c #827872",
"O. c #817875",
"+. c #827A7B",
"@. c #80797F",
"#. c #6F6F80",
"$. c #6F7081",
"%. c #707081",
"&. c #717183",
"*. c #727285",
"=. c #737386",
"-. c #797787",
";. c #7C7883",
":. c #757588",
">. c #76768A",
",. c #77778B",
"<. c #79798D",
"1. c #79798E",
"2. c #7B7B8F",
"3. c #7C7B90",
"4. c #7D7D91",
"5. c #7D7D92",
"6. c #7F7F94",
"7. c #817B83",
"8. c #827C83",
"9. c #817C85",
"0. c #827D87",
"q. c #827E89",
"w. c #837F8C",
"e. c #817F91",
"r. c #817F92",
"t. c #7F8096",
"y. c #898283",
"u. c #86818C",
"i. c #8A848C",
"p. c #828090",
"a. c #808095",
"s. c #838194",
"d. c #848294",
"f. c #898695",
"g. c #8D8896",
"h. c #83839A",
"j. c #84849A",
"k. c #84849B",
"l. c #86859D",
"z. c #86869C",
"x. c #89879B",
"c. c #8C8A9D",
"v. c #8B8AA2",
"b. c #8F8FAA",
"n. c #908EA2",
"m. c #9291AC",
/* pixels */
"! ! ! ^ ! ^ ! ! ( ! ! ! ! ! ! ! ! ! ! L D t r w 3 n q 3 3 w e w r w r 4 r r e r r r r r t r r r t t r r r w 4 w 3 6 g G [ ! ! ! ",
"! ! ! ! ! ! ! ! ! ! ! ! ^ ! ^ ! ! ! D a r r w 3 1 N k 1 < 3 3 3 3 3 4 3 3 3 w 3 3 4 3 3 w 4 r e w w w 3 3 3 3 3 3 2 g G ( ~ ! ! ",
"! ! ! ! ! ! ! ! ! ^ ! ^ ! ! ! ! F D t e w 3 3 1 j V V g ; - % % % 1 % < % < < $ $ < < < < < < < 3 < 3 < < 3 3 < < 2 g c ( / ! ^ ",
"! ! ^ ! ! ! ! ! ! ! ! ! ! ! ! S t r r 3 3 < - l Z Q O.O.o.{ Q Y Y C M n x g 9 9 9 : = = : : : : - = - ; ; % ; ; ; 9 h z / ! ! ! ",
"^ ! ! ! ! ! ! ! ! ! ! ! H F a r e w 3 < % 9 N Z ;.j.5.5.2.5.5.5.3.a.p.a.r.p.w.q.q.8.8.-...8... .{ Q E } | E R R Y n v k S H L ! ",
"F L ! ! ! ! ! ! ! ! H F S r w w 3 < O & > C R ( %.( ( ( ( ( ( ( ( ( ( ( $.%.=.=.=.=.=.,.>.,.,.>.2.3.3.6.k.k.k.k.x.r.C l a D S D ",
"a S S S S D D F S D S a r w w 3 $ - f N Y ( ( #.( ( ( ( / ^ ^ ( ( / ^ ( ^ ( ( ! ( ! ( ! ( ( ( ( ( ( ( ~ ( ! ( #.#.=.G l i S S S ",
"S a a a a a a t t r w r w 3 $ o > n Y [ %.( ( ( / / ^ L ( ( ! ! ! ~ ! ! ~ ! ! ! ! ! ! ! ! ! ! ! ! ! ! ! ! ! ! ^ / #.K g i S S S ",
"t r r r r r r r w w 4 3 $ o = l U ] ( %.( ^ ! ! ! ! ! ( ( ! ! ! ! ! ! ! ! ! ! ! ! ! ! ! ! ! ! ! ! ! ! ! ! ! ! ! ! / H g j t t t ",
"3 r r r r r r 3 4 4 1   . l U ~ ( ( ( / ^ ^ ! ! ! ! ! ! ! ! ! ! ! ! ! ! ! ! ! ! ! ! ! ! ! ! ~ ! ! ! ! ! ! ! H F S D G k j y r w ",
"3 < < 1 < $ O X   . . * l K L L ! ! ! ! ! ! ! ! ! ! ! ! ! ! ! ! ! ! ! ! ! ! ! ! ! ! ! ^ ! ! ! ~ H F S S a S S r r w 4 9 h 5 4 3 ",
". # @ & = f f > 7 > l B G S S a a D F F L L L L ! L L L L ! L ! L ! L ! ! ! L ! L ! L L H F D S S t t r r r r 4 w 3 $ 7 v f & o ",
"N Z Q 8.i.f.f.f.f. .V z t r t r t r a t t t t a t a a a a S a a a a a S S S a a a a a a t t r r r r w w 3 1 O O o . @ k B N N v ",
"v.v.v.k.k.t.2.2.3.-.C z 4 3 3 w 4 r e r r r 4 3 3 w 3 r r r r w w r r r r r r r r r 4 4 3 3 3 3 $ O X X . . & = f n Y } O.7.r.f.",
">.=.%.( ( %.$.( ( ( M k 8 < < < < < 3 < < < < < < < < < < 3 3 < 3 < < < < < 3 < < < < < < O o + & = f z U ] ..8.q.r.3.3.3.,.2.-.",
"( ^ ( / ^ ( ( ( #.( c v b g : * @ @ + + + & @ @ & + # * = * & # # & & & & * & & * : j 9 j x Y  .w.f.x.x.k.3.>.=.%.( ( ( ! ( / ~ ",
"! ! ! ! ! ! ! ( ( ( c b A W Q W W Q W E E Q } } } | |  .;.@.7.+. . . . .O.{ E E Y B B O.n.m.v.v.r.<.=.#.( ( ( / ! ^ / / ! ! ! ! ",
"! ! ! ! ! ! ! ! ( %.K b Q d.x.x.j.j.z.z.k.z.k.j.z.z.j.k.a.j.a.a.r.j.r.v.v.v.v.b.f.Z C j.r.>.=.( ( ( ! ! / / ~ ! / / ! ! ! ! ! ! ",
"! ! ! ! ! ! ! ! ( ( m N ~ %.%.` ( %.%.%.%.%.( ( $.( ( ( ( ( ( ( [ %.#.( #.%.=.>.k.C z [ #.#.( ( ^ ^ ! ! ! ! ! ! / ! ! ! ! ! ! ! ",
"! ! ! ! ! ! ! ! ( ( K v ~ ( ` ` $.( ` ( ( ( ( ( / ( ( ( ( ( ( ( ( #.=.%.%.( %.( / j j ^ #.#.( ! ^ ! ^ ! ! ! ! ! ! ! ! / ! ! / ! ",
"/ ! ! ! ! ! ! ! ( #.J n ~ #.%.[ $.( ( ( ( ! ! ! ! ! ! ! ! ! ! ! ! ! ( ( ( %.#.#.~ f j / %.^ ! ^ ! ! ! ! ^ ! / ! ! ! ! ! ! ! ! / ",
"! ^ ! ! ! ! ! ^ / #.J n / #.%.( ( ^ ! ! / ^ ! ! ! ! ! ! ! ! ! ! ! ^ ! ! ( [ #.( ] f j ( #.( ^ ^ ! ! ! ! ! ! ! ! ! ! ! ! ! ! ( / ",
"! ! ^ ! ! ! ! ! ! #.K N ] #.( ( ^ ! ! ! ! ! ! ! ! ! ^ ! ! ^ ! ! ^ ! ! ! ! / ( #./ j j ( ( ! ! ! ^ ! ! ! / ! ! ! ! ! ! ! ( #.! ! ",
"! ! ! ! ! ^ ! ! ( $.J n ] #.( ! ! ! ! ! ! ! ! / L ! ! ! ! ! ! ! ! ! ! ! ! ! ( #.[ k j ~ / ! ! ! ! ! ! ^ ! ! ! ! ! ! ( #.! ! ! ! ",
"! ! ! / ! ! ! ~ ! ( G l I ( ( ! ! ! ^ ! ! ^ ! ^ ( ! ! ! ! ! ! ! ! ! ! ! ! ! ! ( / g j H ! ! ! ! ! ! ! ! ! ! ! ! ! / ( ! ! ! ! ! ",
"! ! ! ! ! ^ ! ! H F d b I ( ( / ! ! ! ! ! ! ! ! ~ ! ! ! ! ! ! ! ^ ! ! ! ! ! L D D g j a S S F H L L ! ! ! ! ! ! ! ! ! ! ! ! ! ! ",
"! ! ~ ! ~ L F D S t 8 x K ( ^ ^ ! ! ! ^ ! ! ! ^ ! ! ! ! ! ! ! ! ! ^ ^ ! L D S S a j q y t a a S D D D D F F F L L L L L L ! ! L ",
"S S S S S S a a r w 5 x c H L L ! ! ! ! ~ ^ ! ^ ^ ! ! ~ ! ! ! ! L L L F S S S S t f 7 r r r t u t a a a a a a a S a S S S S S D ",
"r r r r r r r r r w 5 l d S S S S D L L L L L L L F H F F F F D D S S S S a t r r 9 f 1 3 3 r 3 r w r r r r r r r r r r t t r r ",
"w 3 3 3 3 3 3 3 3 3 2 l d S S S S S S D D D S S S S S S S a a a a t t t r w w 3 1 k n 7 < < 3 3 3 3 3 w w w 3 3 3 w r 3 w w w w ",
"O O O O O O O O O o 7 b d S S S S S a S S S S S S a a t a t r 4 w w 3 3 < 3 $ < 7 N V l & o   X o X O O O O $ $ O O X O O X O O ",
"f : > : = = : > : g b N p t a a a S S a a a a t t r r r 3 3 3 3 3 3 < 1 O & ; g N T X.T Z n x k f 9 : ; * * * : f 9 f k f f f 9 ",
"c.c.f.f.w.i.i.q.q.O.T V z r r r r r r t r r r r 3 3 3 3 $ O O % % : j x C ] 8.i.k.c.k.h.c.c.x.h.g.f.f.f.f.r.7.Z A f.n.n.n.n.c.c.",
"3.,.>.3.2.2.2.5.3.3.| B g 4 w w w w w w w < < O O # & = ; g n Y  .u.c.v.v.k.r.5.,.>.=.%.%.%.=.=.=.=.,.>.3.r.v.T B r.5.3.3.3.3.r.",
"[ #.%.[ ( ( ( ( ( #.[ Y N 6 1 < < $ O O O ; = ; f l b T f.g.x.v.k.r.,.>.%.( %.%.[ #.( ( ^ ( / ( ( #.[ #.#.#.[ C n / #.#.#.#.#.( ",
"^ ! / / ! ! ! ! ! ! ( ~ B l : * = 9 g l C Y | 7.q.C N ] 3.=.=.%.$.( #.#.( ( ( ( / ! / ! ! ! ! ^ ^ / ^ ^ [ =./ v x / [ ( ^ ^ / / ",
"! ! ! ^ ! ! ! ! ! ! ! ( C B N T 8.w.u.r.r.2.,.=.%.x l K $.#.#.%.( ( ! ( ~ ! ! ! ! / ! ! ! ! ! ^ ! ! ! / ( #./ l z / #.! ! ! ! / ",
"! ! ! ! ! ! ! ! ! ! ! ! U B O.m.b.j.-.%.%.( ( %.( z l I %.%.( ! ! ! ! ! ! ! ! ! ! ! ! ! ^ ! ! ! ! ! ! ! / #./ k k / ( ! ! ! ! ! ",
"! ! ! ! ! ! ! ! ! ! ! ! c N ..r.%.( ( ! ( / ( %.[ z l I %.( ( ! ! ! ^ ! ! ! ! ! ! ^ ! ^ ! ! ! ! ! ! ! ! ! ( / k z / ( ! ! / ! L ",
"! ! ^ ! ! ! ! ! ! ! ! ! z n I [ / ! ! ! ! ! ! [ / l l P %.! ! ! ! ! ! ! ! ! ( ! ! ! ! ! ! ! ! ! ! / ! ! ! ( / j k / / ! ! ! ( L ",
"! H ! ! ! ! ! ! ! ! ! H q l P ( ^ ! ! ! ! ! ! / / x l K ( ~ ! ^ ~ ! ! ! ^ ^ ( ! ! ! ! ! ! ! ! ^ ! ! / ! ~ ( / l k / ^ / ! ! / #.",
"^ ! H ! ! ! ! ! ! ! ! D 9 N ( ( ! ! ! ! ! ! ^ ^ / x v P ^ ! ! ! ! ! ! ! ! ! ^ ! ! ! ! ! ^ ! ! ! ! ! ! ! ! / ~ h g ( / ! ! / ! ! ",
"! ! ! ! ! ! ! ! ! ! ! u 9 x ( / ! ! ! ! ! / ^ ^ ^ l l J ! ! ! ! ! ! ! ! ! ! ! ! ! ^ ! ! ! ! ! ! ! ! ! ! ~ / / h j / / ! ! ! ! ! ",
"! ! ! ! ! ! ! ! ! ! H u , C / ~ ! ! ! F ! ^ ^ / ^ l g G ! ! ! ! ! ! ! ! ! ^ ! ! ! ! ! ! ^ ! ! ! ! ! ! ! / / / k k / ! ~ ! ! ! ! ",
"! ^ ! ! ! ! ! ! ! ! H 0 g I / ! ! ! ! ! ! ! ! / ^ l g s L ! ! ! ! ! ! ! ! ! ! ! ! ! ! ! ! ! ! ! / ! ! ! ! ! / l z ~ ! ! ! ! ! ! ",
"! ! ! ! ! ! ! ! ! ! S q l P ^ ! ! ! ! ! ! ! ! ! ~ l g s S S F H H ! ! ! ! ! ! ! ^ ! ! ! ! ! ! ! ! ! ! ! ! L H h k ! ! ! ! ! ! / ",
"! ! ! ^ ! ! ^ ! ( F S 9 l P ! ! ! / ^ #./ ! ! / ~ l l u a a a a S S D D D D F F H H L ! L H L F H H H F D H D g z ! ! ! ! ! ! ! ",
"^ ! ! ! ! ! ! ! F S a j k G ! ! ! ! ! ! / ! ! / L g g 3 r r r t t t t t t t a t a a S S a a S S S S S a a a u f k ! ! / ! ! ! ! ",
"! ! ! ! ! F L D a a u h k a D ! ! ! ! ! ! ! ! ! L g l 2 < 3 3 3 3 3 4 5 w r r 4 r r r r r r r r r r t r r r 4 7 j H ~ ! ! ! ! ! ",
"H H F S S a a t r w 5 h q t a a D F ! ! ! ! ! ! L l N g & # X O o % O % O O O $ O < < < 3 3 3 3 3 3 3 3 3 3 3 j j S D F L ! H F ",
"a t t t t r r 3 3 < - l 8 3 w r t a S D F L L ! J h X.V V V n h l g , , : = * * * & o & o & o o % o O O o 1 6 N j a a a a a a a ",
"w 3 w 3 3 < < % O # f N l 6 < 3 3 r r t t t a a s g X.i.g.c.c.x.g.i.i.i.y.7.@.8.@.o.X.X.X.W A B B N v v l l b V j 3 r r e r w w ",
"< $ 1 2 ; : = 7 g x Z T Z v 7 % O < 3 4 r w e r r 9 C v.v.6.5.3.3.6.6.6.r.r.v.6.x.v.k.x.v.v.v.c.c.c.f.f.w.y.+.A l 2 < 3 3 < < < ",
"k z U E  .@.8.r.d.3.w.r.w.d.8.Z l : & % $ < 3 3 1 f n [ #.( ( ( ( [ ( #.#.$.#.#.[ ` #.%.#.#.=.>.>.2.3.3.r.r.k.O.V l ; ; & = : f ",
"r.r.2.5.-.,.-.:.%.%.#.#.[ =.a.k.p.;.R x f = ; 6 7 v n ^ #.#.#.$.%.( ( ^ ! ! ( ( ( ( / #.#.( ( ( [ [ #.( ( ( =.w.A V n C E  .8.w.",
"#.#.( ( ( ( ( ( ( ( / ( ( / / ( ( ,.3.r.8. .C l b V x / #.#.( ( ^ ^ ! ! ! ! ! ! ~ ! ^ ^ / / ^ ( / ( ( ( ( ( %.>.T V q.v.6.3.=.$.",
"( ( ( ( ( ^ ! ! ! ! ~ ! ! ! ! ! ( ! ( ( =.3.5.8.X.V x / #.#.^ ! ! ! ! ! ! ! ! ! ^ ! ! ! ^ ! ^ ! ! ! ! ^ ! ( ( ( A Z -.=.[ $.( ( ",
"! ! ! ! ~ ! ! ! ! ! ! ! ! ! ! ! ! ! ~ ! ! ! ( =.| V n ( #.( ^ ! ! ! ! ! ^ ! ^ ! ! ! ! ! ! ! ^ ^ ! ! ! ! ! ! ( ( U N P %.%.( ( ( ",
"! ! ! ! ! ! ! ! ! ! ! ! ! ! ! ! ! ! ! ! ! ! ! ! G N x ( ^ / ^ ! ^ ! ! ^ ! ^ ! ! ! ! ! ! ! ^ ^ ^ ! ^ ! ! ! ! ! ( R B K ` #.^ / ! ",
"! ! ! ! ! ! ! ^ ! ! ! ! ! ! ! ! ! ! ! ! ! ! ! ! s B x / / ! ! ! ! ! ! ! ! ! ! ! ! ^ ^ ^ ^ ^ ^ ^ ! ! ! ! ! ! ! ! M V M ( ( ! ! ! ",
"! ! ! ! ! ! ! ( ! ! ! ^ ! ! ^ ! ! ! ! ! ! ! ! H u n x H ! ! ! ! ! ^ ! ! ! ^ ! ! ! ! ! ^ / / ! ! ! ^ ! ! ! ! ! S d N z ( ( ! ! ! ",
"! ! ! ! ! ! ! %.! ! ! ! ! ! ! ! ! ! ! ! ! ! ! S u z k D F ! ! ! ! ! ^ ! ! ! ! ! ! ! ! ! ! ! ! ! ! ! ! ! ! H D a s l k ( ( ! ! ! ",
"! ! ! ! ! ! ! ( ( ! ! ! ! ! ! ! ! ! ! ! ! ! H t y z k S S D D F H L H ! ! ! ! ! ! ! ! ! ! ! ! ! L ! L F D D a r t g k ^ ( ! ! ! ",
"! ! ! ! ! ! ! ! ( ~ ! ! ^ ! ! ^ ! ! ! ! ! L a y r x j y t t a a a a a u a a S S S S S D D S D D S S S S S a t e r q f P ( ! ! ! "
};
