/* XPM */
static char *player_up_21675266209[] = {
/* columns rows colors chars-per-pixel */
"52 64 255 2 ",
"   c None",
".  c #291F33",
"X  c #2A1F33",
"o  c #311F32",
"O  c #321F32",
"+  c #331F32",
"@  c #341F32",
"#  c #351F32",
"$  c #391E30",
"%  c #381F31",
"&  c #3A1F31",
"*  c #3D1F30",
"=  c #3C1F31",
"-  c #3E1F30",
";  c #1C2035",
":  c #1D2035",
">  c #1E2034",
",  c #1F2034",
"<  c #1E2035",
"1  c #202034",
"2  c #212034",
"3  c #222034",
"4  c #232034",
"5  c #242034",
"6  c #252034",
"7  c #262034",
"8  c #262134",
"9  c #272134",
"0  c #282033",
"q  c #2D2032",
"w  c #2E2032",
"e  c #282134",
"r  c #2C2134",
"t  c #2D2134",
"y  c #2E2234",
"u  c #2F2234",
"i  c #372133",
"p  c #322234",
"a  c #332234",
"s  c #342234",
"d  c #352234",
"f  c #362334",
"g  c #372334",
"h  c #3A2334",
"j  c #3C2334",
"k  c #3C2434",
"l  c #451F2F",
"z  c #4D1E2E",
"x  c #4E1E2E",
"c  c #5D1E2C",
"v  c #401F30",
"b  c #411F30",
"n  c #431F30",
"m  c #611E2C",
"M  c #621E2C",
"N  c #691E2B",
"B  c #7A1D28",
"V  c #472533",
"C  c #4A2533",
"Z  c #4C2633",
"A  c #4D2633",
"S  c #4F2634",
"D  c #512633",
"F  c #532633",
"G  c #542733",
"H  c #592733",
"J  c #6E232E",
"K  c #75242E",
"L  c #652631",
"P  c #642732",
"I  c #662933",
"U  c #672933",
"Y  c #672A33",
"T  c #682933",
"R  c #6B2933",
"E  c #6C2A33",
"W  c #6D2A33",
"Q  c #6E2A33",
"!  c #6F2A33",
"~  c #702A33",
"^  c #712A33",
"/  c #722A33",
"(  c #752A32",
")  c #7F2D33",
"_  c #B1151B",
"`  c #BF1419",
"'  c #B7191F",
"]  c #B8191E",
"[  c #861D27",
"{  c #891C26",
"}  c #891D26",
"|  c #8A1C26",
" . c #8F1C25",
".. c #8C1C26",
"X. c #8D1C26",
"o. c #8E1C26",
"O. c #901C25",
"+. c #911C25",
"@. c #961C25",
"#. c #9E1C23",
"$. c #9D1C24",
"%. c #A51B23",
"&. c #A01C23",
"*. c #A31C23",
"=. c #A91B22",
"-. c #802D33",
";. c #842D33",
":. c #8C2E32",
">. c #8E2E32",
",. c #922F32",
"<. c #932F32",
"1. c #942F32",
"2. c #952F32",
"3. c #9B3133",
"4. c #9D3032",
"5. c #9C3033",
"6. c #9D3033",
"7. c #9E3032",
"8. c #9F3032",
"9. c #AE2A2C",
"0. c #BB2224",
"q. c #BB2728",
"w. c #B22F2F",
"e. c #B32F2F",
"r. c #B42F2F",
"t. c #B62E2E",
"y. c #B72E2E",
"u. c #B92B2B",
"i. c #BB2A2B",
"p. c #BA2C2B",
"a. c #B82D2D",
"s. c #B92D2D",
"d. c #BB2C2C",
"f. c #A03032",
"g. c #A13132",
"h. c #A23132",
"j. c #A33132",
"k. c #A43132",
"l. c #A63132",
"z. c #AB3232",
"x. c #AB3333",
"c. c #AF3030",
"v. c #AE3131",
"b. c #AF3131",
"n. c #AC3132",
"m. c #AC3232",
"M. c #AD3232",
"N. c #AE3232",
"B. c #AF3232",
"V. c #B23030",
"C. c #B33030",
"Z. c #B13332",
"A. c #C71418",
"S. c #C7191D",
"D. c #C41A1E",
"F. c #C91A1E",
"G. c #CA1A1E",
"H. c #CD1A1D",
"J. c #D61A1C",
"K. c #D71A1C",
"L. c #D11F1F",
"P. c #DB1A1A",
"I. c #DA1A1B",
"U. c #DD191B",
"Y. c #DE191B",
"T. c #DC1A1A",
"R. c #DD1A1A",
"E. c #DD1A1B",
"W. c #DE1A1B",
"Q. c #D81A1C",
"!. c #D91A1C",
"~. c #E31313",
"^. c #E21717",
"/. c #E71414",
"(. c #E91313",
"). c #EA1313",
"_. c #ED1111",
"`. c #EE1010",
"'. c #EF1010",
"]. c #EE1111",
"[. c #EF1111",
"{. c #EC1212",
"}. c #ED1212",
"|. c #EC1313",
" X c #ED1313",
".X c #EE1212",
"XX c #EA1314",
"oX c #E81414",
"OX c #ED1414",
"+X c #ED1515",
"@X c #EE1414",
"#X c #ED1616",
"$X c #ED1717",
"%X c #EE1616",
"&X c #EE1717",
"*X c #EF1717",
"=X c #E21818",
"-X c #E0191B",
";X c #E4191A",
":X c #E5191A",
">X c #E6191A",
",X c #E71A1A",
"<X c #E71B1B",
"1X c #E31D1D",
"2X c #E41C1C",
"3X c #E9191A",
"4X c #E81B1B",
"5X c #E91B1B",
"6X c #EA1A1A",
"7X c #EB1A1A",
"8X c #ED1818",
"9X c #EC1919",
"0X c #ED1919",
"qX c #EE1818",
"wX c #EF1818",
"eX c #EE1919",
"rX c #EF1919",
"tX c #EC1A1A",
"yX c #F11110",
"uX c #F21515",
"iX c #F01817",
"pX c #F01818",
"aX c #F01918",
"sX c #F01919",
"dX c #F11919",
"fX c #F21918",
"gX c #F31918",
"hX c #C52123",
"jX c #C12727",
"kX c #C32626",
"lX c #C42626",
"zX c #CB2323",
"xX c #CF2020",
"cX c #CE2121",
"vX c #C82424",
"bX c #CF2424",
"nX c #CE2524",
"mX c #CE2525",
"MX c #CF2525",
"NX c #C22929",
"BX c #C22A2A",
"VX c #C42929",
"CX c #D12020",
"ZX c #D12121",
"AX c #D12222",
"SX c #D12323",
"DX c #D22323",
"FX c #D72121",
"GX c #D02424",
"HX c #D12424",
"JX c #D02524",
"KX c #D92121",
"LX c #DA2020",
"PX c #DB2020",
"IX c #DD2020",
/* pixels */
"                          1 5 1 1 1 5 1 5 1 1 1 5 1 5 1 , 1 1 5 1 5 5 5 1 5 5 1                         ",
"                          5 1 1 1 , 1 1 1 1 , < 1 1 5 1 < . 1 1 1 1 1 1 1 1 1 5 1                       ",
"                        1 O - - - - * * - - - - - i s s s s s s s s s s a i w 1 1 5                     ",
"                    1 1 1 +.I.Q.J.J.J.J.I.K.K.K.K.9.4.4.5.5.5.3.4.4.4.4.4.f.! 1 5 1 5                   ",
"                    , s [ G.sXrXrXrXrXrXrXrXrXrXrXFXmXmXmXmXmXmXNXM.M.M.M.M.1.I y 1 1 1                 ",
"                  . O m >XrX9XrX9X9X9X9X9X9X9X9XrXrXrXrXrXrXrXrXPXt.t.V.M.x.M.l.A y 1 5 5               ",
"              1 1 1 ..-X9X9XrX9X9XrX9XrX9X9X9XrX9XrX9X9X9X9XrXrX9X>X>XHXx.M.M.x.f.W 1 1 1 5             ",
"              1 # { S.rXrX9XrX9X9XrX9X9X9XrX9XrX9X9X9XrXrX9X9X9XrXrXrX1XmXw.x.M.N.1.Q / Z 1 1           ",
"            1 1 l -XrX9X9X9XrX9X9XrX9X9X9XrX9X9X9XrXrX9XrX9X9X9X9X9X9XrX5XNXV.x.M.M.M.Z./ 1 1 5         ",
"          5 1 < n E.rX9XrX9XrX9X9XrX9XrX9X9XrX9X9X9X9X9X9X9XrXrX9XrXrX9XrX>XHXx.x.M.M.M.Q 1 1 1 1       ",
"      1 1 # ..@.%.>XrXrX9XrX9X9X9X9XrX9XrXrX9X9XrX9X9XrX9XrX9X9X9XrX9X9XrXrX1XmXw.x.M.M.<./ / Z 1 5     ",
"      1 < n E.iXsXrX9X9X9X9X9XrXrX9X9X9X9X9X9XrXrX9X9XrX9X9XrX9X9X9X9XrX9XrXrX5XNXw.n.x.m.m.Z.Q 1 5 5   ",
"      5 1 l I.rX9X9X9XrXrXrX9X9X9X9XrXrXrX9X9X9X9X9X9XrX9XrX9X9XrX9X9XrX9X9XrX9X9XnXx.M.x.n.m.Q 1 5 1   ",
"    5 1 M =.-XrXrXrX9X9X9X9X9XrXrX9X9X9X9X9XrXrX9XrX9X9X9XrX9XrXrX9X9XrX9XrX9X9X8XSXx.M.n.n.m.Q 1 1 5   ",
"  5 1 1 +.gX9XrX9X9XrX9X9X9X9XrXrX9X9X9X9XrX9X9XrX9XrX9X9X9XrX9X9X9X9X9X9X9XrXrXrXFXt.M.n.m.m.Q 1 5 1   ",
"  1 5 1 ..rX9X9X9XrX9X9XrXrX9X9X9X9XrXrX9X9XrX9X9X9XrX9XrX9X9X9X9XrXrX9XrX9X9X9XrX9X2Xt.z.n.m.Q 1 1 5   ",
"1 5 1 < ..sXrXrX9XrX9X9X9XrX9X9XrX9X9XrX9X9X9XrXrX9X9X9XrX9X9XrX9X9X9XrX9XrXrX9XrXrX5Xt.z.x.N.E 1 5 1 5 ",
"5 1 0 n %.sX8X8X9XrX9XrX9X9XrX9XrX9X9XrX9XrX9X9X9X9XrX9XrX9X9XrXrXrX9X9X9X9X9X9X9X8X5XVXw.x.N.E 1 1 5 1 ",
"1 1 - H.9X8X{.#X9X9XrX9XrXrX9X9X9X9X9X9XrX9XrX9X9XrX9XrX9X9X9X9X9X9XrX9XrX9X9XrX9XrX8X5XnXM.V.Q 1 1 1 5 ",
"5 1 - Q.rX8X{.#XrX9X9X9X9X9X9XrX9XrXrX9X9X9XrX9X9XrX9X9X9XrXrX9X9XrX9X9XrX9X9XrX9X9X8X8XHXx.n.2.^ a 1 1 ",
"1 1 - Q.rX9X_.|.rX9XrXrXrX9X9X9X9XrXrX9X9X9XrX9X9XrX9X9X9XrXrX9X9X9XrX9X9X9X9X9XrX9XrX8XSXx.x.n.f.i 1 5 ",
"1 < - K.rX9X{.{.{.8X9X9X9X9XrXrX9X9X9X9XrX9XrX9X9XrX9XrX9X9X9X9XrX9XrX9XrX9XrX9X9X9X8X{.L.x.n.n.4.f 1 5 ",
"5 1 - K.sX8X{.{._.9X9X9X9XrX9X9XrX9X9XrX9XrX9X9X9X9XrX9XrX9X9XrX9XrX9X9XrX9X9X9XrXrX8X{.L.x.x.N.4.f 1 1 ",
"1 1 - I.rX#X{.{.+X9XrXrX9X9XrX9XrX9X9XrX9X9X9XrXrX9X9X9XrX9X9XrX9X9X9XrX9X9XrXrXrX8X8X{.L.x.x.N.4.i 1 1 ",
"5 1 - I.rX9X{.#X8XrXrX9X9XrX9X9X9X9X9XrX9XrX9X9X9X9XrX9XrX9X9X9XrX9X9XrX9X9X9XrX9X9XrX{.L.x.x.9.6.f 1 1 ",
"1 1 - Q.rX8X{.{.#X8XrX9X9XrX9XrX9XrX9X9X9XrX9XrXrX9XrX9X9X9XrX9XrX9X9XrX9XrX9X9XrX9X8X{.L.x.M.M.4.i 5 5 ",
"1 1 - K.rXrX{.{.{.9X9X9X9X9XrX9XrX9XrX9X9X9XrX9X9XrX9X9X9XrX9XrX9X9X9X9XrX9XrX9XrX9XrXyXL.x.n.M.4.i 5 1 ",
"1 < - Q.sX#X{.{.{.+X9XrXrX9X9X9X9X9XrX9XrX9X9X9X9X9X9XrX9XrX9X9X9XrXrX9X9X9XrX9X9X9XrX{.L.x.M.M.6.f 1 1 ",
"5 1 - K.rXrX|.{.{.rX9X9XrX9X9XrX9XrX9X9XrX9X9XrXrX9X9XrX9X9XrX9X9XrXrX9X9X9XrX9X9XrX+X{.L.x.M.M.4.f 1 1 ",
"1 1 - Q.rX9X_._.|.rXrX9XrX9X9XrX9X9XrX9XrX9X9XrXrX9X9XrX9XrX9X9X9X9X9X9XrX9XrX9X9XrX9X{.L.x.M.M.4.i 1 1 ",
"5 1 - Q.rX#X{.+XrXrX9X9X9X9X9X9XrXrX9X9X9X9X9X9X9X9X9X9X9X9XrXrXrX9X9XrX9XrX9X9X9X9X#X{.L.x.M.M.6.f 5 1 ",
"1 1 - I.9X9X#XrX9X9X9XrX9XrXrX9X9X9X9XrX9XrXrX9X9XrXrX9XrX9X9X9XrX9X9XrX9X9X9XrXrXrXrX{.L.x.M.M.6.i 1 5 ",
". , - J.9XrXrX9X9XrXrX9X9X9X9X9X9X9X9X9X9XrXrX9X9XrXrX9X9XrX9X9X9X9XrX9X9X9XrX9XeX7X8X|.HXz.m.m.g.s 1 5 ",
"< , - I.rX9X9XrX9X9X9XrXrX9XrXrXrXrX9XrX9X9X9X9XrX9X9X9X9X9XrXrX9XrX9X9XrX9XrX9XeXeXeX8XHXz.m.m.8.s 1 1 ",
"1 , * J.rX9XrXrX9XrX9X9X9X9XrX9X9X9X9X9XrX9XrX9X9X9X9XrXrX9X9X9X9X9XrXrX9XrX9X9XeXeXeXaXHXz.n.m.g.s 1 5 ",
"1 1 - J.rX9X#X#X+X9XrX9X9XrX9X9X9XrXrX9XrX9X9X9X9XrX9XrX9X9XrX9XrX9X9X9X9X9X9XrX8X8X8X|.HXz.m.m.8.s 1 5 ",
"1 1 - I.rX8X{.{._.9X9XrX9X9XrXrX9XrX9X9XrX9X9XrX9X9X9XrXrX9X9X9X9X9X9XrXrXrX9X9XeX8X_._.L.z.n.Z.8.s 5 1 ",
"5 1 - K.rX8X{.{.|.rX9X9XrX9X9X9XrX9X9XrX9X9XrX9X9XrX9X9X9X9X9XrXrXrX9X9X9X9X9XrX8X+X_._.L.m.m.m.8.s 1 1 ",
"1 1 - K.rX8X{.{._.+XrX9X9X9XrX9X9XrX9X9X9XrX9X9X9XrXrX9X9XrXrX9X9X9XrX9X9X9X9XrXeX8X_._.L.z.m.m.8.s 1 5 ",
"1 < - K.rX8X{.{.|.9XrX9XrX9X9XrX9X9X9XrX9XrX9XrX9X9XrX9XrX9X9X9X9XrX9X9XrXrX9X9X8X+X_._.L.z.m.m.8.s 1 1 ",
"5 1 - K.rX+X_._.{.8XrX9XrX9X9X9XrX9X9XrX9X9X9XrXrX9X9X9XrX9X9XrX9X9XrX9X9X9XrXrX9X8X8X8XHXz.m.m.g.i 1 5 ",
"1 1 - Q.rXrX+X_.{.rXrX9XrX9XrX9XrX9X9XrX9XrXrX9X9X9XrX9XrX9X9XrXrX9XrX9X9XrX9X9X9X8X#X#XZXz.m.m.8.s 1 1 ",
"5 1 - Q.rX9X_._.{.#XrX9X9XrX9X9X9X9XrX9XrX9X9X9XrX9X9X9X9X9XrX9X9XrX9X9X9X9XrX9X8X#X_._.L.z.n.Z.8.s 1 5 ",
"1 1 - I.rX9X_._.{.9X9X9X9X9X9XrXrX9X9X9X9X9X9XrX9X9XrXrXrX9X9X9X9X9X9XrXrX9X9X9XrX|._._.L.m.m.m.8.s 1 5 ",
"1 1 - Q.9X+X_._.{.8XrXrX9XrXrX9XrX9X9XrX9X9XrX9XrXrX9X9X9X9XrXrXrX9XrXrX9X9XrXrXrX8X_._.L.n.m.m.8.s 1 1 ",
"1 < - K.rX9X+X_.{.rXrX9X9X9X9X9X9XrX9X9XrX9XrX9XrXrXrX9XrXrX9XrXrX9XrX8X9XrXrX8XrX|._.'.L.n.m.m.8.s 1 1 ",
"5 1 & I.rXrX_._.{.#X9XrXrX9X9XrX9XrXrX9X9X9XrXrXsXsXsXsXrX#X{.{.|.|.|.|.|.|.|.|.|.{._._.L.z.n.m.g.s 5 1 ",
"1 1 - K.9X9X_._.{.9X9X9XrX9X9X+X9X+X#X#X#XrXLXhX&.#.#.$.$.' #X{._._.{._.{._._._.{._._._.L.n.m.m.8.s 1 5 ",
"5 1 - I.rX9X_._._.9X9X9XrX9X8X{._._._.{.{.9Xu.-.5 1 1 5 1 c Y.XX_._._._._._._._._._._._.L.z.x.M.8.s 1 1 ",
"1 1 - Q.rX9X_._.{.9XrX9X9X9X#X{._._._.{.-Xa.L s 5 1 5 1 1 w z G.uX_._._._._._._._._._._.L.x.M.M.8.s 1 5 ",
"1 1 - K.rX+X_._.{.#XrXrXrXrX#X{._._._.E.0.( k 1 5 1 1 5 5 1 5 B ] |.|._._._._._._._.{._.L.z.M.M.f.s 1 5 ",
"1 < - Q.rX9X+X_.OXrX9X9X9XrX#X{._._._.q.-.5 1 1 1       1 5 1 1 M E.|._._._._._._._.{.|.H.z.M.M.4.i 1 1 ",
"5 1 - K.rXrX9X+X9XrXrX9XrXrX+X_._.^.u.L i 5 1 5         5 1 5 1 w z A._._._._._._.'._.VXw.M.x.M.f.s 1 5 ",
"1 1 - Q.rX9XrX9X9X9X9X9X9X9X8X_.E.vXM.A < 1 5 1         1 5 1 5 1 0 A.'._._._._._.^.cXw.x.M.M.M.f.s 1 5 ",
"5 1 - Q.rX9X9X9XrX9X9XrX9XrX+X_.kXx.x.F < 1 1 5         5 1 5 1 1 0 _ ~././././.|.L.z.z.M.x.f.f.1.s 1 1 ",
"1 1 - I.9XrXrX9XrX9X9XrX9X9X9X_.lXx.M.F 1 1             1 5 1 5 1 1 $ J a.a.a.a.a.r.n.n.M.l.C h s 5 5   ",
"1 1 - I.rX9XrXrX9X9XrX9XrXrX<XSXu.4.^ j 1 5               1 1 5 5 1 1 k W W W W W ^ W ^ ^ Y y 1 1 1     ",
"1 1 & J.9XrX8XrX+XrXrXuX+X>X!.n.M.>.5 1 5 1                 5 1 1 5 5 1 1 1 5 1 1 1 1 1 1 1 1 5 5       ",
"5 1 * J.rX9X|.{._.+X_.{.yXvXC.N.Z.>.e 5 1                         1 5 1 1 5 1 5 1 5 1 5 1 5 1 1         ",
"1 1 - I.rX8XyX{._._.{.^.L.a.x.N.;.H 5 1 5                         5 1 5 5 1 5 1 5 1 5 1 5 1 5           ",
"5 1 - S.-X8X{.{.{.|._.I.n.M.M.M.G < 1 5 5                                                               ",
"  1 . s #.iXiXiXiX8XnXt.Z.M.M.M.G 1 1                                                                   ",
"    . ; J { { { { { K Y T T T T C   1                                                                   ",
"        , , , , , 1 , 1 1 1 1 1                                                                         "
};
