/* XPM */
static char *player_right_11675266208[] = {
/* columns rows colors chars-per-pixel */
"51 64 151 2 ",
"   c None",
".  c #000000",
"X  c #0D0101",
"o  c #05060C",
"O  c #09090E",
"+  c #1B0100",
"@  c #11080B",
"#  c #0C0B12",
"$  c #090C19",
"%  c #0C1118",
"&  c #240403",
"*  c #2B0302",
"=  c #1B1C2D",
"-  c #171A27",
";  c #151E3D",
":  c #181E3D",
">  c #211F33",
",  c #2E1F32",
"<  c #331F32",
"1  c #3B1F31",
"2  c #1F2034",
"3  c #222034",
"4  c #2C2133",
"5  c #24233C",
"6  c #332234",
"7  c #3C2334",
"8  c #430605",
"9  c #480403",
"0  c #410E16",
"q  c #500F16",
"w  c #6E0C0C",
"e  c #7F0D0D",
"r  c #6E171F",
"t  c #471F2F",
"y  c #561E2D",
"u  c #5B1D2C",
"i  c #401F30",
"p  c #601827",
"a  c #601B29",
"s  c #631521",
"d  c #7D1D28",
"f  c #462533",
"g  c #4B2533",
"h  c #522633",
"j  c #592733",
"k  c #5E2833",
"l  c #652933",
"z  c #6A2933",
"x  c #742B33",
"c  c #792B33",
"v  c #172247",
"b  c #1C2245",
"n  c #1D2955",
"m  c #2A374F",
"M  c #2C356C",
"N  c #2C3770",
"B  c #2E3870",
"V  c #323D7C",
"C  c #3C3E7D",
"Z  c #32425F",
"A  c #3D4670",
"S  c #41567B",
"D  c #42587F",
"F  c #9A0F0D",
"G  c #9C100F",
"H  c #9F171E",
"J  c #9E181F",
"K  c #A3100F",
"L  c #A8161D",
"P  c #B41312",
"I  c #BE1B1F",
"U  c #BF1414",
"Y  c #841B25",
"T  c #8B1C26",
"R  c #861E28",
"E  c #951C25",
"W  c #9A1C24",
"Q  c #A21C23",
"!  c #B81B20",
"~  c #B31B20",
"^  c #822D33",
"/  c #8C2E32",
"(  c #942F32",
")  c #9C3032",
"_  c #AE2528",
"`  c #B42F2F",
"'  c #BB2C2C",
"]  c #BA2527",
"[  c #B3302F",
"{  c #A33132",
"}  c #AC3232",
"|  c #B13131",
" . c #C11414",
".. c #C31A1F",
"X. c #CB1A1E",
"o. c #CD1616",
"O. c #D11616",
"+. c #DD1516",
"@. c #D61A1C",
"#. c #DB1B1C",
"$. c #E51314",
"%. c #ED1313",
"&. c #EF1817",
"*. c #E41B1B",
"=. c #ED1919",
"-. c #F11111",
";. c #F11919",
":. c #C12627",
">. c #CD2626",
",. c #C32929",
"<. c #C82828",
"1. c #D32323",
"2. c #DB2020",
"3. c #37438A",
"4. c #40458C",
"5. c #4D6693",
"6. c #4A5AB9",
"7. c #5672A3",
"8. c #4E5FC2",
"9. c #5465CF",
"0. c #5466D1",
"q. c #596CDC",
"w. c #6076DA",
"e. c #5B6EE1",
"r. c #5D71E4",
"t. c #6076E5",
"y. c #657DEB",
"u. c #637AE6",
"i. c #6D8FD7",
"p. c #6D92D1",
"a. c #6A86EB",
"s. c #7190F0",
"d. c #7698F4",
"f. c #7A9EF7",
"g. c #7A9FF8",
"h. c #7CA5EC",
"j. c #7FA7FA",
"k. c #82ACFB",
"l. c #86B2FF",
"z. c #8AB5FF",
"x. c #8EB8FF",
"c. c #93B9FF",
"v. c #9ABEFE",
"b. c #9DC0FE",
"n. c #A4C4FE",
"m. c #A9C6FE",
"M. c #AECAFD",
"N. c #B6CFFD",
"B. c #BED4FD",
"V. c #C2D6FC",
"C. c #C9DAFC",
/* pixels */
"                              3 > 3 3 3 3 3 3 3 3 3 3 3 > > 3 3 3 3                                   ",
"                            3 3 5 = 3 3 3 3 3 3 3 3 3 3 > > 3 3 3 3 3   3                             ",
"                          3 3 3 4 6 6 6 6 6 6 6 6 < 1 i 1 1 1 1 1 1 6 3 3 3                           ",
"                      3 3 3 3 3 l ) { ) ) ) ) ) ) ] #.#.@.#.#.@.@.#.d : 3 3 3 3                       ",
"                    3 3 3 f z z / | } } ` >.>.>.>.2.;.=.=.=.;.=.=.;.I T E y 3 3 =                     ",
"                  3 3 3 6 x | } } } ` ` ' *.&.=.;.;.=.=.=.=.=.=.=.=.=.;.;.E 1 1 < 5                   ",
"                3 3 3 6 ( { } } } | #.*.=.=.=.=.=.=.=.=.=.=.=.=.=.=.=.=.&.*.#.#.d = 3                 ",
"              3 3 3 f x { } } } ' 1.=.=.=.=.=.=.=.=.=.=.=.=.=.=.=.=.=.=.=.=.&.;...R 6 3               ",
"            3 3 3 6 x } } } } | >.&.=.=.=.=.=.=.=.=.=.=.=.=.=.=.=.=.=.=.=.=.=.=.=.#.1 = 3             ",
"            3 2 6 ( } } } } | *.=.=.=.=.=.=.=.=.=.=.=.=.=.=.=.=.=.=.=.=.=.=.=.=.=.@.1 5 3             ",
"          3 3 g c { } } } ' 1.=.=.=.=.=.=.=.=.&.=.=.=.=.=.=.=.=.=.=.=.=.=.=.=.=.=.*.Q u 3 3           ",
"        3 3 3 l | } } } ` 1.;.=.=.=.=.=.=.=.=.=.=.=.=.=.=.=.=.=.=.=.=.=.=.=.=.=.=.=.;.T 3 3 3         ",
"        3 3 3 z } } } ` *.=.=.=.=.=.=.=.=.=.=.=.=.=.=.=.=.=.=.=.=.=.=.=.=.=.=.=.=.=.;.R > 3 3         ",
"          3 2 l } } } ` *.=.=.=.=.=.=.=.=.=.=.=.=.=.=.=.=.=.=.=.=.=.=.=.=.=.;.=.;.=.;.T 2 3           ",
"        3 3 6 x | } | ' *.=.=.=.=.=.=.=.=.=.=.=.=.=.=.=.=.=.=.=.=.=.=.=.=.+.U U U  . .r = > >         ",
"      3 3 6 ( } } } <.=.=.=.=.=.=.=.=.=.=.=.=.=.=.=.=.=.=.=.=.=.=.=.=.=.;.e X X X X X X o = > >       ",
"      3 3 6 ) } } } <.=.=.=.=.=.=.=.=.=.=.=.=.=.=.=.=.=.=.=.=.=.=.=.=.+.w & o V 3.3.3.3.A 5 - %       ",
"      3 3 6 ) } } } >.=.=.=.=.&.=.=.=.=.=.=.=.=.=.=.=.=.=.=.=.=.=.=.;.O.X $ v 0.r.r.a.a.w.A - .       ",
"      3 3 6 ) } } } >.=.=.=.=.=.=.=.=.=.=.=.=.=.=.=.=.=.=.=.=.=.=.=.=.X.+ M q.q.r.r.j.l.j.j.D o       ",
"      3 3 6 ) } } } >.=.=.=.=.=.=.=.=.=.=.=.=.=.=.=.=.=.=.=.=.=.=.;.K q A 6.e.q.a.g.l.j.j.b.p.5.%     ",
"      3 3 6 ) } } } <.;.=.=.=.=.=.=.=.=.=.=.=.=.=.=.=.=.=.=.=.=.*. .s v 0.r.e.a.d.b.j.l.l.b.l.h.m =   ",
"      3 3 6 ) } } } >.=.=.=.=.=.=.=.=.=.=.=.=.=.=.=.=.=.=.=.=.=.O.* M q.q.e.r.j.j.j.l.l.b.B.b.l.l.A . ",
"      3 3 6 ) } } } >.=.=.=.=.=.=.=.=.=.=.=.=.=.=.=.=.=.=.=.=.;.O.+ N e.q.e.a.j.l.l.l.b.N.C.B.M.x.A . ",
"      3 3 6 ) } } } >.=.=.=.=.=.=.=.=.=.=.=.=.=.=.=.=.=.=.=.=.=.O.+ N r.q.q.a.j.z.b.l.b.B.C.C.M.x.5.. ",
"      3 3 6 ) } } } >.=.=.=.=.=.=.=.=.=.=.=.=.=.=.=.=.=.=.=.=.;.O.+ N r.e.e.r.j.n.B.b.l.b.B.b.l.x.D . ",
"      3 3 6 ) } } } >.=.=.=.=.=.=.=.=.=.=.=.=.=.=.=.=.=.=.=.=.&.O.+ N r.e.e.t.k.z.b.l.j.l.b.b.l.z.D . ",
"      3 3 6 ) } } } >.=.=.=.=.=.=.=.=.=.=.=.=.=.=.=.=.=.=.=.=.=.O.+ N r.e.e.t.k.l.l.j.b.b.l.l.l.z.A . ",
"      3 3 6 ) } } } >.=.=.=.=.=.=.=.=.=.=.=.=.=.=.=.=.=.=.=.=.=.O.+ N e.r.e.r.k.l.l.l.b.N.z.l.l.j.5.. ",
"      3 3 6 ) } } } >.=.=.=.=.=.=.=.=.=.=.=.=.=.=.=.=.=.=.=.=.=.O.+ B e.e.e.t.k.z.l.l.b.b.z.l.l.b.D . ",
"      3 3 6 ) } } } >.=.=.=.=.=.=.=.=.=.=.=.=.=.=.=.=.=.=.=.=.=.O.+ B r.e.e.r.d.j.j.z.l.l.l.l.l.l.D . ",
"      3 3 6 ) | } } <.=.=.=.=.=.=.=.=.=.=.=.=.=.=.=.=.=.=.=.=.&.O.+ M e.e.e.r.e.s.j.l.l.l.l.j.j.z.D . ",
"      3 3 6 ) } } } >.=.=.=.=.=.=.=.=.=.=.=.=.=.=.=.=.=.=.=.=.=.*.P u n 0.r.e.e.a.s.j.l.l.l.b.h.Z 5   ",
"      3 3 6 ) } } } >.&.=.=.=.=.=.=.=.=.=.=.=.=.=.=.=.=.=.=.=.=.=.&.F * 4.9.e.e.q.e.d.f.f.g.i.7.%     ",
"      3 3 6 ) } } | >.=.=.=.=.=.=.=.=.=.=.=.=.=.=.=.=.=.=.=.=.=.=.=.=.o.* V q.q.q.q.q.q.q.q.B .       ",
"      3 3 6 ) } } } >.=.=.=.=.=.=.=.=.=.=.=.=.=.=.=.=.=.=.=.=.=.=.=.&.=.P p ; ; ; ; ; ; ; : % .       ",
"      3 3 6 ) } } } >.=.=.=.=.=.=.=.=.=.=.=.=.=.=.=.=.=.=.=.=.=.=.=.=.=.;.G 8 9 9 9 9 9 8 @ # #       ",
"      3 3 6 ) } } } >.=.=.=.=.=.=.=.=.=.=.=.=.=.=.=.=.=.=.=.=.=.=.=.=.=.;.=.=.=.%.$.$.%.O.1 3 3       ",
"      3 > 6 ) } } { >.=.=.=.=.=.=.=.=.=.=.=.=.=.=.=.=.=.=.=.=.=.=.=.=.=.=.=.=.=.%.%.-.-.@.1 3 3       ",
"      3 5 6 ) } } } >.=.=.=.=.=.=.=.=.=.=.=.=.=.=.=.=.=.=.=.=.=.=.=.=.=.=.=.=.=.%.%.-.&.@.6 2 3       ",
"      3 = 6 ) } } } >.=.=.=.=.=.=.=.=.=.=.=.=.=.=.=.=.=.=.=.=.=.=.=.=.=.=.=.=.=.%.%.%.&.@.1 3 3       ",
"      3 3 6 ) } } } ` ' =.=.=.=.=.=.=.=.=.=.=.=.=.=.=.=.=.=.=.=.=.=.=.=.=.=.=.=.&.;.%.=.@.1 2 3       ",
"      3 3 6 ) } } } } | *.=.=.=.=.=.=.=.=.=.=.=.=.=.=.=.=.=.=.=.=.=.=.=.=.=.=.=.=.$.%.;.@.1 3 3       ",
"      3 3 6 ) } } } } ` *.=.=.=.=.=.=.=.*.=.=.=.=.=.=.=.=.=.=.=.=.=.=.=.=.=.=.=.%.%.%.$.X.1 3 3       ",
"      3 3 3 7 x } } } | ` 1.=.=.=.=.=.=.=.=.=.=.=.=.=.=.=.=.=.=.=.=.=.=.=.=.=.=.%.%.%.L t 3 3         ",
"      3 3 3 g ^ } } } } } ' 2.*.=.=.=.=.=.=.=.=.=.=.=.=.=.=.=.=.=.=.=.=.=.=.=.=.%.%.-.Y = >           ",
"      3 3 7 ) } } } } } } } ` *.=.*.=.=.=.=.=.=.=.=.=.=.=.=.=.=.=.=.=.=.=.=.=.&.%.%.$.Y > > 5         ",
"      3 j ( } } } } } } } } | ` ' ' =.=.=.=.=.=.=.=.=.=.%.%.%.%.$.%.%.%.%.%.%.%.-.+.s 1 > 5 >         ",
"      3 l | } } } } } } } } | ,.:.<.*.=.=.=.=.=.=.=.=.=.%.%.&.%.&.%.%.%.%.%.$.L H T , = > > >         ",
"  3 3 4 z } } } } } } } } } ' *.=.=.=.=.=.=.=.=.=.=.=.=.=.=.=.=.=.=.=.=.=.=.X.7 3 3 4 6 4 3 3         ",
"3 3 4 ^ { } } } } } } [ 2.*.*.=.=.=.=.=.=.=.=.=.=.=.=.=.=.=.=.=.=.=.;.;.;.W i 3 2 4 ^ _ ~ <           ",
"5 7 l { } } } } } } ' >.*.=.=.=.=.=.=.=.=.=.=.=.=.=.=.=.=.=.=.=.=.=...W W u 3 h j l ] 2.*.R u         ",
"2 z } } } } } } } } >.=.=.=.=.=.=.=.=.=.=.=.=.=.=.=.=.=.=.=.=.=.=.*.d 2 3 > 6 ) } ' *.=.=.&.E ,       ",
"3 l } } } } } } | 2.*.=.=.=.=.=.=.=.=.=.=.=.&.=.=.=.=.=.=.=.;.;.#.u , > 5 2 4 ) <.*.=.=.=.=.#.! 1     ",
"2 l } } } } } } | *.;.=.=.=.=.=.=.=.=.=.=.=.=.=.=.=.=.=.=.*.Q E T , 3 > = f z { >.;.=.=.=.=.&.@.1 2   ",
"3 l } } } } } } ' *.=.=.=.=.=.=.=.=.=.=.=.=.=.=.=.=.=.&.*.X.< > 3 3 3 3 4 z } } >.=.=.=.=.&.&.@.1     ",
"2 l | } } } } <.*.;.=.=.=.=.=.=.=.=.=.=.=.=.=.=.=.=.=.;.W 1 , = 3 3 3 6 / { | 2.=.=.=.=.=.=.=.@.1     ",
"3 l } } } } } >.;.=.=.=.=.=.=.=.=.=.=.=.=.=.=.=.;.! E E u 3 3 3 3 3 2 6 ) } ` *.=.=.=.=.=.=.;.@.1     ",
"3 k { } } } } >.=.=.=.=.=.=.=.=.=.=.=.=.=.=.*.#.#.d 2 3 3 3 3 3 3 3 4 7 ) } | *.;.=.=.=.=.=.*...<     ",
"3 4 f { } } } >.;.=.=.=.=.=.=.=.=.=.=.=.;.;.W 1 i < 3 3 3 3 3 3 3 2 k ) } } ` *.=.=.=.=.=.;.E 7 3 3   ",
"3 2 3 l / } } ,.1.>.2.;.=.;.=.=.=.=.;.I T T u 2 3 3 3 3 3 3 3 3 3 3 z } } | ` *.=.=.=.=.=.;.T : 3     ",
"    3 2 l ) ) ) ) ) ,.*.=.*.@.@.@.#.#.d 2 3 3 3 3 3 3 3 5 3 3 3 3 3 z } } } | *.=.=.=.*.#.#.d 3       ",
"        6 6 6 6 6 6 c ' =.E 1 7 1 1 1 , 3 3 3 3 3 3 3         3 3 3 l | } | ` *.;.=.;.E 1 1 6 3       ",
"          3 2 3 > > f z R y = 3 3 2 2 3 3 3 3 3 3 3             3   h l z l x R T T T y = 2 3         ",
"                  3 3 3 2 3 3                                         3 2 3 3 2 2 2 2 = 5             "
};
