/* XPM */
static char *player_up_11675266209[] = {
/* columns rows colors chars-per-pixel */
"52 64 255 2 ",
"   c None",
".  c #291F33",
"X  c #2A1F33",
"o  c #311F32",
"O  c #321F32",
"+  c #331F32",
"@  c #341F32",
"#  c #351F32",
"$  c #391E30",
"%  c #381F31",
"&  c #3A1F31",
"*  c #3D1F30",
"=  c #3C1F31",
"-  c #3E1F30",
";  c #1C2035",
":  c #1D2035",
">  c #1E2034",
",  c #1F2034",
"<  c #1E2035",
"1  c #202034",
"2  c #212034",
"3  c #222034",
"4  c #232034",
"5  c #242034",
"6  c #252034",
"7  c #262034",
"8  c #262134",
"9  c #272134",
"0  c #282033",
"q  c #2D2032",
"w  c #2E2032",
"e  c #282134",
"r  c #2C2134",
"t  c #2D2134",
"y  c #2E2234",
"u  c #2F2234",
"i  c #372133",
"p  c #322234",
"a  c #332234",
"s  c #342234",
"d  c #352234",
"f  c #362334",
"g  c #372334",
"h  c #3A2334",
"j  c #3C2334",
"k  c #3C2434",
"l  c #451F2F",
"z  c #4D1E2E",
"x  c #4E1E2E",
"c  c #5D1E2C",
"v  c #401F30",
"b  c #411F30",
"n  c #431F30",
"m  c #611E2C",
"M  c #621E2C",
"N  c #691E2B",
"B  c #7A1D28",
"V  c #472533",
"C  c #4A2533",
"Z  c #4C2633",
"A  c #4D2633",
"S  c #4F2634",
"D  c #512633",
"F  c #532633",
"G  c #542733",
"H  c #592733",
"J  c #6E232E",
"K  c #75242E",
"L  c #652631",
"P  c #642732",
"I  c #662933",
"U  c #672933",
"Y  c #672A33",
"T  c #682933",
"R  c #6B2933",
"E  c #6C2A33",
"W  c #6D2A33",
"Q  c #6E2A33",
"!  c #6F2A33",
"~  c #702A33",
"^  c #712A33",
"/  c #722A33",
"(  c #752A32",
")  c #7F2D33",
"_  c #B1151B",
"`  c #BF1419",
"'  c #B7191F",
"]  c #B8191E",
"[  c #861D27",
"{  c #891C26",
"}  c #891D26",
"|  c #8A1C26",
" . c #8F1C25",
".. c #8C1C26",
"X. c #8D1C26",
"o. c #8E1C26",
"O. c #901C25",
"+. c #911C25",
"@. c #961C25",
"#. c #9E1C23",
"$. c #9D1C24",
"%. c #A51B23",
"&. c #A01C23",
"*. c #A31C23",
"=. c #A91B22",
"-. c #802D33",
";. c #842D33",
":. c #8C2E32",
">. c #8E2E32",
",. c #922F32",
"<. c #932F32",
"1. c #942F32",
"2. c #952F32",
"3. c #9B3133",
"4. c #9D3032",
"5. c #9C3033",
"6. c #9D3033",
"7. c #9E3032",
"8. c #9F3032",
"9. c #AE2A2C",
"0. c #BB2224",
"q. c #BB2728",
"w. c #B22F2F",
"e. c #B32F2F",
"r. c #B42F2F",
"t. c #B62E2E",
"y. c #B72E2E",
"u. c #B92B2B",
"i. c #BB2A2B",
"p. c #BA2C2B",
"a. c #B82D2D",
"s. c #B92D2D",
"d. c #BB2C2C",
"f. c #A03032",
"g. c #A13132",
"h. c #A23132",
"j. c #A33132",
"k. c #A43132",
"l. c #A63132",
"z. c #AB3232",
"x. c #AB3333",
"c. c #AF3030",
"v. c #AE3131",
"b. c #AF3131",
"n. c #AC3132",
"m. c #AC3232",
"M. c #AD3232",
"N. c #AE3232",
"B. c #AF3232",
"V. c #B23030",
"C. c #B33030",
"Z. c #B13332",
"A. c #C71418",
"S. c #C7191D",
"D. c #C41A1E",
"F. c #C91A1E",
"G. c #CA1A1E",
"H. c #CD1A1D",
"J. c #D61A1C",
"K. c #D71A1C",
"L. c #D11F1F",
"P. c #DB1A1A",
"I. c #DA1A1B",
"U. c #DD191B",
"Y. c #DE191B",
"T. c #DC1A1A",
"R. c #DD1A1A",
"E. c #DD1A1B",
"W. c #DE1A1B",
"Q. c #D81A1C",
"!. c #D91A1C",
"~. c #E31313",
"^. c #E21717",
"/. c #E71414",
"(. c #E91313",
"). c #EA1313",
"_. c #ED1111",
"`. c #EE1010",
"'. c #EF1010",
"]. c #EE1111",
"[. c #EF1111",
"{. c #EC1212",
"}. c #ED1212",
"|. c #EC1313",
" X c #ED1313",
".X c #EE1212",
"XX c #EA1314",
"oX c #E81414",
"OX c #ED1414",
"+X c #ED1515",
"@X c #EE1414",
"#X c #ED1616",
"$X c #ED1717",
"%X c #EE1616",
"&X c #EE1717",
"*X c #EF1717",
"=X c #E21818",
"-X c #E0191B",
";X c #E4191A",
":X c #E5191A",
">X c #E6191A",
",X c #E71A1A",
"<X c #E71B1B",
"1X c #E31D1D",
"2X c #E41C1C",
"3X c #E9191A",
"4X c #E81B1B",
"5X c #E91B1B",
"6X c #EA1A1A",
"7X c #EB1A1A",
"8X c #ED1818",
"9X c #EC1919",
"0X c #ED1919",
"qX c #EE1818",
"wX c #EF1818",
"eX c #EE1919",
"rX c #EF1919",
"tX c #EC1A1A",
"yX c #F11110",
"uX c #F21515",
"iX c #F01817",
"pX c #F01818",
"aX c #F01918",
"sX c #F01919",
"dX c #F11919",
"fX c #F21918",
"gX c #F31918",
"hX c #C52123",
"jX c #C12727",
"kX c #C32626",
"lX c #C42626",
"zX c #CB2323",
"xX c #CF2020",
"cX c #CE2121",
"vX c #C82424",
"bX c #CF2424",
"nX c #CE2524",
"mX c #CE2525",
"MX c #CF2525",
"NX c #C22929",
"BX c #C22A2A",
"VX c #C42929",
"CX c #D12020",
"ZX c #D12121",
"AX c #D12222",
"SX c #D12323",
"DX c #D22323",
"FX c #D72121",
"GX c #D02424",
"HX c #D12424",
"JX c #D02524",
"KX c #D92121",
"LX c #DA2020",
"PX c #DB2020",
"IX c #DD2020",
/* pixels */
"                        3 3 3 3 3 3 3 3 3 3 3 3 3 3 3 3 3 3 3 3 3 3 3 3 3 3 3                           ",
"                      3 3 3 3 3 3 3 3 3 3 , 3 3 3 , 3 , , , 3 , 3 , , , 3 , 3                           ",
"                    3 3 3 t a a s s s s a s s s s s s - - - - - - - - - - - o 3                         ",
"                  3 3 3 3 Q 4.4.4.4.4.4.3.5.5.5.5.3.9.J.!.J.J.!.J.J.J.J.J.!.O., 3 3                     ",
"                3 3 3 t I 1.m.m.m.m.m.VXHXHXMXMXMXMXPX0X0XsX0X0X0XsX0X0X0XsXG.[ @ 3                     ",
"              3 3 3 t Z l.m.m.m.C.r.a.IX0X0X0X0X0X0X0X0X0X0X0X0X0X0X0X0X0X0X0X:XM o 3                   ",
"            3 3 3 , Q h.z.m.m.m.HX5X2X0X0X0X0X0X0X0X0X0X0X0X0X0X0X0X0X0X0X0X0X0X-X.., 3 3               ",
"          3 3 Z Q Q 1.m.m.z.r.MX2X0X0X0X0X0X0X0X0X0X0X0X0X0X0X0X0X0X0X0X0X0X0X0X0XG.{ @ 3               ",
"        : . . ~ Z.m.m.m.m.C.NX7X0X0X0X0X0X0X0X0X0X0X0X0X0X0X0X0X0X0X0X0X0X0X0X0X0XsX-Xn , 3             ",
"      2 , , : Q m.m.m.m.m.SX7X0X0X0X0X0X0X0X0X0X0X0X0X0X0X0X0X0X0X0X0X0X0X0X0X0X0X0XW.n , 3 3           ",
"    2 2 C ~ ~ ,.m.m.m.Z.MX2X0X0X0X0X0X0X0X0X0X0X0X0X0X0X0X0X0X0X0X0X0X0X0X0X0X0X0X0X7X%.@...o , 3       ",
"  5 2 2 ~ Z.Z.m.m.m.C.VX7X0X0X0X0X0X0X0X0X0X0X0X0X0X0X0X0X0X0X0X0X0X0X0X0X0X0X0X0X0X0X0XsXE.b . 3       ",
"  3 3 3 Q m.m.m.m.m.MX7X0X0X0X0X0X0X0X0X0X0X0X0X0X0X0X0X0X0X0X0X0X0X0X0X0X0X0X0X0X0X0X0X0XP.b : 3       ",
"  3 3 , Q m.m.m.m.m.SX0X0X0X0X0X0X0X0X0X0X0X0X0X0X0X0X0X0X0X0X0X0X0X0X0X0X0X0X0X0X0X0X0X0X:X=.M 3 3     ",
"  3 3 3 Q m.m.m.m.a.FX0X0X0X0X0X0X0X0X0X0X0X0X0X0X0X0X0X0X0X0X0X0X0X0X0X0X0X0X0X0X0X0X0X0X0XgXO.3 3 3   ",
"  3 3 , Q m.m.m.r.2X0X0X0X0X0X0X0X0X0X0X0X0X0X0X0X0X0X0X0X0X0X0X0X0X0X0X0X0X0X0X0X0X0X0X0X0XsXO., 3 3   ",
"3 3 3 3 E m.m.m.r.7X0X0X0X0X0X0X0X0X0X0X0X0X0X0X0X0X0X0X0X0X0X0X0X0X0X0X0X0X0X0X0X0X0X0X0X0X0XX., . , 3 ",
"3 3 3 , E m.m.e.NX5X0X0X0X0X0X0X0X0X0X0X0X0X0X0X0X0X0X0X0X0X0X0X0X0X0X0X0X0X0X0X0X0X0X0X0X#XiX*.b e 3 3 ",
"3 3 3 3 Q m.z.MX7X0X0X0X0X0X0X0X0X0X0X0X0X0X0X0X0X0X0X0X0X0X0X0X0X0X0X0X0X0X0X0X0X0X0X0X#X[.qX7XH.= , 3 ",
"3 3 t ~ 2.m.z.HX0X0X0X0X0X0X0X0X0X0X0X0X0X0X0X0X0X0X0X0X0X0X0X0X0X0X0X0X0X0X0X0X0X0X0X0X#X[.qX0XJ.- , 3 ",
"3 , i h.m.m.m.DX8X0X0X0X0X0X0X0X0X0X0X0X0X0X0X0X0X0X0X0X0X0X0X0X0X0X0X0X0X0X0X0X0X0X0X0X[.).0X0X!.- , 3 ",
"3 3 a 4.m.m.m.SX[.0X0X0X0X0X0X0X0X0X0X0X0X0X0X0X0X0X0X0X0X0X0X0X0X0X0X0X0X0X0X0X0X0X#X#X[.).qX0XJ.- , 3 ",
"3 3 i 4.m.m.m.L.[.0X0X0X0X0X0X0X0X0X0X0X0X0X0X0X0X0X0X0X0X0X0X0X0X0X0X0X0X0X0X0X0X0X0X[.).[.qX0X!.- , 3 ",
"3 3 i 8.m.m.z.L.[.8X0X0X0X0X0X0X0X0X0X0X0X0X0X0X0X0X0X0X0X0X0X0X0X0X0X0X0X0X0X0X0X0X#X).[.[.qX0XJ.- 3 3 ",
"3 3 s 4.m.m.m.L.[.8X0X0X0X0X0X0X0X0X0X0X0X0X0X0X0X0X0X0X0X0X0X0X0X0X0X0X0X0X0X0X0X0XqX[.[.).qX0XJ.= , 3 ",
"3 , s 4.m.m.m.L.[.8X0X0X0X0X0X0X0X0X0X0X0X0X0X0X0X0X0X0X0X0X0X0X0X0X0X0X0X0X0X0X0X0X8X).).[.qX0X!.- 3 3 ",
", , s 4.m.m.z.SX@X0X0X0X0X0X0X0X0X0X0X0X0X0X0X0X0X0X0X0X0X0X0X0X0X0X0X0X0X0X0X0X0X0XqX).`.[.#X0XJ.- , 3 ",
"3 . s h.m.m.z.HX8X0X0X0X0X0X0X0X0X0X0X0X0X0X0X0X0X0X0X0X0X0X0X0X0X0X0X0X0X0X0X0X0X0XqX[.[.).0X0XJ.- 3 3 ",
"3 3 s h.m.m.z.DX0X0X0X0X0X0X0X0X0X0X0X0X0X0X0X0X0X0X0X0X0X0X0X0X0X0X0X0X0X0X0X0X0X0X#X).).[.qX0X!.- , 3 ",
"3 , s 4.m.m.m.DX8X0X0X0X0X0X0X0X0X0X0X0X0X0X0X0X0X0X0X0X0X0X0X0X0X0X0X0X0X0X0X0X0X0X0X[.[.[.qX0X!.- , 3 ",
"3 3 a 4.m.m.m.L.[.8X0X0X0X0X0X0X0X0X0X0X0X0X0X0X0X0X0X0X0X0X0X0X0X0X0X0X0X0X0X0X0X0X7X[.[.).qX0XK.= , 3 ",
"3 3 s 4.m.m.m.L.[.0X0X0X0X0X0X0X0X0X0X0X0X0X0X0X0X0X0X0X0X0X0X0X0X0X0X0X0X0X0X0X0X0X0XqX#X#X0X0XK.- 3 3 ",
"3 3 s 4.m.m.z.SX#X0X0X0X0X0X0X0X0X0X0X0X0X0X0X0X0X0X0X0X0X0X0X0X0X0X0X0X0X0X0X0X0X0X0X0X0X0X0X0X!.- , 3 ",
"3 3 s 4.m.m.z.HX#X0X0X0X0X0X0X0X0X0X0X0X0X0X0X0X0X0X0X0X0X0X0X0X0X0X0X0X0X0X0X0X0X0X0X0X0X0X0X0X!.- 3 3 ",
"3 3 i 4.m.m.m.SXsX0X0X0X0X0X0X0X0X0X0X0X0X0X0X0X0X0X0X0X0X0X0X0X0X0X0X0X0X0X0X0X0X0X0X0X0X0X0X0XJ.- , 3 ",
"3 3 i f.m.m.m.SX#X0X#X0X0X0X0X0X0X0X0X0X0X0X0X0X0X0X0X0X0X0X0X0X0X0X0X0X0X0X0X0X0X0X0X0X#X#X0X0X!.- , 3 ",
"3 3 a 4.m.m.m.L.[.[.$X7X0X0X0X0X0X0X0X0X0X0X0X0X0X0X0X0X0X0X0X0X0X0X0X0X0X0X0X0X0X0X0X).).[.#XsXJ.- 3 3 ",
"3 3 s 4.m.m.m.L.`.[.#X#X0X0X0X0X0X0X0X0X0X0X0X0X0X0X0X0X0X0X0X0X0X0X0X0X0X0X0X0X0X0X#X[.[.[.0X0XJ.- , 3 ",
", , s h.m.m.z.L.`.).#X0X0X0X0X0X0X0X0X0X0X0X0X0X0X0X0X0X0X0X0X0X0X0X0X0X0X0X0X0X0X0X7X[.[.).0X0X!.- , 3 ",
"3 . s 8.m.z.z.L.[.[.#X0X0X0X0X0X0X0X0X0X0X0X0X0X0X0X0X0X0X0X0X0X0X0X0X0X0X0X0X0X0X0X#X[.).[.#X0X!.- , 3 ",
"3 , s h.m.m.m.DX#X#X#X0X0X0X0X0X0X0X0X0X0X0X0X0X0X0X0X0X0X0X0X0X0X0X0X0X0X0X0X0X0X0X0X[.[.[.$X0XJ.- 3 3 ",
"3 3 s 4.m.m.m.SX#X#X0X0X0X0X0X0X0X0X0X0X0X0X0X0X0X0X0X0X0X0X0X0X0X0X0X0X0X0X0X0X0X0X#X).).[.7X0XJ.- , 3 ",
"3 3 s 4.m.m.z.L._.).#X0X0X0X0X0X0X0X0X0X0X0X0X0X0X0X0X0X0X0X0X0X0X0X0X0X0X0X0X0X0X0X0X[.[.).0X0X!.- , 3 ",
"3 , s 4.m.m.z.L.[.[.#X0X0X0X0X0X0X0X0X0X0X0X0X0X0X0X0X0X0X0X0X0X0X0X0X0X0X0X0X0X0X0X7X[.[.[.0X0XJ.- , 3 ",
". : s 8.m.m.m.L.`.).#X0X0X0X0X0X0X0X0X0X0X0X0X0X0X0X0X0X0X0X0X0X0X0X0X0X0X0X0X0X0X0X0X[.).[.#X0X!.- , 3 ",
", . s 8.m.m.m.L.`.[.[.0X0X0X0X0X0X0X0X0X0X0X0X0X0XsX0X0X0X0X0X0X0X0X0X0X0X0X0X0X0X0X7X[.).[.0X0XJ.- 3 3 ",
", , s f.m.m.m.L.`.`.).[.[.$X[.XX@X).).[.@X[.iXsXsXsXsXsX0X0X0X0X0X0X0X0X0X0X0X0X0X0X0X).[.[.$X0XJ.- , 3 ",
"3 3 s 8.m.m.m.L.`.).[.`.`.).`.).[.[.[.).[.#X] $.$.$.&.$.vXW.0X7X#X#X#X#X#X0X0X0X0X0X#X[.).[.$X0X!.- , 3 ",
"3 3 s 4.m.m.m.L.`.[.`.`.[.`.).`.`.[.).`.).W.c , , , 3 5 ) u.7X[.`.`.`.`._.$X0X0X0X0X8X[.[. XqX0XJ.- , 3 ",
"3 , s 4.m.m.m.L.`.[.).`.).`.[.`.).[.`.uXS.z q , 3 3 3 3 a P a.=X`.).[.)._.qX0X0X0X7X8X[.[.[.qX0X!.- , 3 ",
", , s h.m.m.z.L.`.).`.`.[.`.).`.).[. X] B . ; , 3 3 3 3 , k ( 0.W._.`.`._.$X0X0X0X0XqX).).[.qX0XJ.- 3 3 ",
"3 . s 8.m.m.z.cXXX[.[.).).`.).`.[.).W.m : . : .       3 3 3 5 ) q./.)._._.$X0XqX0X0XqX X`.).qX0XJ.- , 3 ",
"3 , s h.m.m.m.C.q.).[.[.`.`.`.[.[.A.z q 3 3 3 3         3 3 3 a L u.^.`.[.8X8X7X0X0X0XqXqXqX0X0X!.- , 3 ",
"3 3 s 4.m.m.m.z.e.cX^.[.`.).`.).`.` . 2 3 3 3 3         3 3 3 , Z m.vXW.`.qX7XqX0X0XqX7X0X0X0X0XJ.- , 3 ",
"3 3 a <.h.h.z.m.m.z.xX)././././.~._ . 3 3 3 3 3         3 3 3 , D z.z.kX).#X0X0X0X0X0X0X0X0X0XsX!.- , 3 ",
"  3 5 s h C l.m.m.m.r.a.a.a.u.a.J = 3 3 3 3 3 3             3 3 D m.x.kX`.qX0X0X0X0X0X0X0X0X0X0XJ.- 3 3 ",
"    3 3 , t I Q ~ Q Q Q E Q Q E k , 3 3 3 3 3               3 3 k ~ 4.a.L.<X0X0X0X0X0X7XqX0X0X0XK.= , 3 ",
"      3 3 3 3 3 , . 3 , 3 , , 3 3 3 3 3 3 3                 3 3 2 0 >.m.Z.!.7X0XqX7XqX8X8XqX0X0XK.- 3 3 ",
"        3 3 3 3 3 3 3 3 3 3 3 3 3 3 3                         3 2 5 >.Z.m.e.zX[.).[.[.).).).qX0XP.= , 3 ",
"          3 3 3 3 3 3 3 3 3 3 3 3 3 3                         3 2 0 H ;.m.z.u.SX/.[.[.[.`.[.qX0X!.- 3 3 ",
"                                                              3 3 3 , D m.m.m.e.P.). X[.[.#X0X:XD.= , 3 ",
"                                                                  3 3 G m.m.m.m.r.nXiXiX0XuXsX$.@ 0 3   ",
"                                                                  3   V I E E E I K { { { { { N , 3     ",
"                                                                        : , , , 2 , , , , , , ,         "
};
