/* XPM */
static char *player1675266209[] = {
/* columns rows colors chars-per-pixel */
"52 64 132 2 ",
"   c None",
".  c #0F0101",
"X  c #130101",
"o  c #1C0302",
"O  c #0D142A",
"+  c #14142A",
"@  c #19162E",
"#  c #151831",
"$  c #151E3D",
"%  c #1D1D3B",
"&  c #201E3E",
"*  c #351F32",
"=  c #3C1F30",
"-  c #1F2034",
";  c #222034",
":  c #2B2133",
">  c #352234",
",  c #392233",
"<  c #460604",
"1  c #480604",
"2  c #510705",
"3  c #5E0A0A",
"4  c #4E131F",
"5  c #610604",
"6  c #600907",
"7  c #620909",
"8  c #401321",
"9  c #451F2F",
"0  c #4F192C",
"q  c #521422",
"w  c #51192C",
"e  c #5D1E2C",
"r  c #421F30",
"t  c #611E2C",
"y  c #711D2A",
"u  c #781D29",
"i  c #4C2633",
"p  c #502633",
"a  c #662933",
"s  c #6C2A33",
"d  c #722A33",
"f  c #7A2C33",
"g  c #1C2954",
"h  c #212F61",
"j  c #363E7E",
"k  c #432E59",
"l  c #403162",
"z  c #8A0D0C",
"x  c #960E0C",
"c  c #8C141B",
"v  c #971419",
"b  c #981419",
"n  c #AE1211",
"m  c #B11212",
"M  c #BE1414",
"N  c #B7191F",
"B  c #901C25",
"V  c #9E1C23",
"C  c #A11C23",
"Z  c #A91B22",
"A  c #B61B20",
"S  c #812D33",
"D  c #942F32",
"F  c #9E3032",
"G  c #A72D2F",
"H  c #AB2B2D",
"J  c #B62E2E",
"K  c #B82F2E",
"L  c #B5302F",
"P  c #A43132",
"I  c #AC3232",
"U  c #B13131",
"Y  c #C50E0E",
"T  c #C11414",
"R  c #CE1515",
"E  c #C41A1E",
"W  c #D11615",
"Q  c #D81618",
"!  c #D71A1C",
"~  c #D91A1C",
"^  c #E31414",
"/  c #ED1313",
"(  c #E61B1B",
")  c #ED1919",
"_  c #F01515",
"`  c #F01919",
"'  c #C52123",
"]  c #CF2525",
"[  c #C12A2A",
"{  c #D22424",
"}  c #D82121",
"|  c #344184",
" . c #3A4084",
".. c #364289",
"X. c #394388",
"o. c #3F4FA1",
"O. c #404995",
"+. c #404FA3",
"@. c #4151A6",
"#. c #4656B0",
"$. c #4D5EC2",
"%. c #5363CB",
"&. c #5567D2",
"*. c #596BDB",
"=. c #5B6EE1",
"-. c #5D70E5",
";. c #6177E6",
":. c #647BE7",
">. c #6075EA",
",. c #657EEB",
"<. c #6781E9",
"1. c #6882EA",
"2. c #6E8BEE",
"3. c #7597F3",
"4. c #7598F3",
"5. c #799DF6",
"6. c #7AA0F7",
"7. c #7DA4F9",
"8. c #84AEFD",
"9. c #86B2FF",
"0. c #8AB4FF",
"q. c #94BAFE",
"w. c #9ABEFE",
"e. c #9DC0FE",
"r. c #A2C3FE",
"t. c #A9C7FE",
"y. c #AECAFD",
"u. c #B2CDFD",
"i. c #BAD1FD",
"p. c #C2D5FC",
"a. c #C7D8FC",
"s. c #CADBFC",
/* pixels */
"                          ; ; ; ; ; ; ; ; ; ; ; ; ; ; ; ; ; ; ; ; ; ; ; ; ; ; ;                         ",
"                          ; ; ; - - ; ; ; ; ; - ; - ; ; ; ; ; ; ; ; - ; ; ; ; ; ;                       ",
"                        ; ; : > > > > > > > , = = = = = = = , > > > > > > > : : ; ;                     ",
"                    ; ; ; - , D F F F F F F ' ! ~ ! ! ! ~ ~ ~ H F F F D F F s - ; ; ;                   ",
"                    ; ; ; i f I I U { { ] ] ( ` ) ) ` ) ) ` ) } ] ] ] ] ] U D a > - ; ;                 ",
"                  ; ; : > S I I U [ ) ) ) ) ) ) ) ) ) ) ) ) ) ) ` ) ` ` ( [ L P i : ; ; ;               ",
"              ; ; ; & , D P I I ] ( ) ) ) ) ) ` ) ) ) ) ) ) ) ) ) ) ) ) ) ( { I P s ; ; ; ;             ",
"              ; > a s f I I U ] ( ` ) ) ) ) ) ) ) ) ) ) ) ) ) ) ) ) ) ) ) ) { I I D s d i ; ;           ",
"            ; - , P U I I U [ ) ) ) ) ) ) ) ) ) ) ) ) ) ) ) ) ) ) ) ) ) ) ` } K H I I U d ; ; ;         ",
"          ; ; ; , F I I I { ) ) ) ) ) ) ) ) ) ) ) ) ) ) ) ) ) ) ) ) ) ) ) ) ( ( K I I U s - ; ; ;       ",
"      ; ; : s s f P I U ] ( ) ) ) ) ) ) ) ) ) ) ) ) ) ) ) ) ) ) ) ) ) ) ) ) ` ( } [ I I D d d i ; ;     ",
"      ; ; , P I I I U [ ) ) ) ) ) ) ) ) ) ) ) ) ) ) ) ) ) ) ) ) ) ) ) ) ) ) ) ) ) } L I I I U d ; ; ;   ",
"      ; ; , F I I I ] ) ) ) ) ) ) ) ) ) ) ) ) ) ) ) ) ) ) ) ) ) ) ) ) ) ) ) ) ) ) ) ( L I I I s ; ; ;   ",
"      ; ; > P I I I { ) ) ) ) ) ` ) ` ` ` ` ` ` ` ` ` ` ` ) ` ` ` ` ` ` ` ) ) ) ) ) ( L I I I s ; ; ;   ",
"      ; ; > F I I K } ) ) ) ) ) W M M M T M T M T M T T M T M T T M T M T ( ) ) ) ) ( [ U I I s ; ; ;   ",
"      : ; > F I K ( ( ) ) ) ) ) 3 . . X . . . . . . . X . X . . X . . . o T ` ) ) ) ) ) ] I I s ; ; ;   ",
"    : - ; > P [ } ) ) ) ) ` W 6 k ..............X....................... .q x ` ) ) ) ) ] I I s ; ; ; ; ",
"  ; ; ; ; > F { ` ) ) ) ) W v @ @.>.,.,.,.,.,.,.,.,.,.,.,.,.,.,.1.1.1.-.*.g q M ( ) ) ) } K I s - ; ; ; ",
"  ; ; ; ; , F { ` ) ) _ ) 6 @ %.*.:.8.8.8.8.8.8.8.8.8.9.8.8.8.8.7.9.9.4.*.*. .o T ` ) ) ) ( K s ; ; ; ; ",
"  ; ; ; p S P { ) ) ` W 6 k @.*.2.5.9.9.9.9.9.9.9.9.9.9.9.9.0.t.r.9.0.7.5.-.$. .q x ` ) ) ( K D s > ; ; ",
"  ; ; ; s U I ] _ ) W b @ o.>.:.6.9.9.9.9.9.9.9.9.9.9.9.9.0.w.i.i.q.0.9.8.2.-.*.g q M ^ ) ) K I P > ; ; ",
"  ; ; ; s I I { / _ 5 @ %.*.:.8.9.9.9.9.9.9.9.9.9.9.9.9.9.w.s.s.s.a.e.9.9.9.4.=.*.j o Y ` ( J I F > ; ; ",
"  ; ; ; s I I ] ) / 5 O &.=.:.8.9.9.9.9.9.9.0.9.9.9.9.9.9.0.r.p.i.e.9.e.y.q.3.=.=.| X Y / ( J I F > & ; ",
"  ; ; ; s U I ] / / 5 O &.=.:.8.9.9.9.9.9.9.9.9.9.9.9.9.9.0.9.y.y.7.9.q.i.q.3.=.-.X.X Y / ( J I F > ; ; ",
"  ; ; ; s U I { ) / 5 O &.=.:.8.9.9.9.9.9.9.9.9.9.9.9.9.9.9.9.9.0.0.7.9.9.e.4.=.-.| X Y / ( K I F > ; ; ",
"  ; ; ; s I I ] ) / 5 O &.-.:.9.9.9.9.9.9.9.9.9.9.9.9.9.9.9.9.9.e.u.e.9.9.9.4.=.=.| X Y / ( K I F > ; ; ",
"  ; ; ; s I I { / / 5 O &.*.:.8.9.9.9.9.9.9.9.9.9.9.9.9.9.9.9.9.e.i.e.9.9.9.4.=.-.X.X Y ` ( K I F > ; ; ",
"  ; ; - s I I { _ / 5 O &.-.:.8.9.9.9.9.9.9.9.9.9.9.9.9.9.9.9.9.7.0.7.9.9.9.4.=.=.| X Y _ ( K I F > ; ; ",
"  ; ; ; s I I ] _ / 5 O &.=.-.1.7.0.9.9.9.9.9.9.9.9.9.9.9.9.9.9.9.9.9.9.7.2.<.=.-.| X Y _ ( J I F > & : ",
"  ; ; ; s I I ] _ / 5 O &.=.=.=.2.7.9.9.9.9.9.9.9.9.9.9.9.9.9.9.9.9.9.7.7.<.=.=.-.| X Y _ ( J I F > ; - ",
"  ; ; ; s U I ] ) / 5 + %.=.=.=.-.<.8.9.9.9.9.9.9.9.9.9.9.9.9.9.9.9.7.6.=.=.=.=.*. .X Y _ ( J I F > ; ; ",
"  ; ; ; s I I ] _ / T c & @.-.-.-.-.<.<.<.<.<.<.1.1.<.<.<.1.<.<.<.2.<.<.=.=.=.&.h w n ^ / ( L I F * ; ; ",
"  ; ; ; a I I { ) / ` W 2 l #.*.=.=.=.=.*.=.=.=.=.=.=.=.=.=.=.=.=.=.=.=.=.-.%.o.= z _ _ / ( J I F > ; ; ",
"  ; ; - s I I { ) ) ) ) ) 3 # &.*.*.*.*.*.*.*.*.*.*.*.*.*.*.*.*.*.*.*.*.*.*.| . M ) / ) ) ) L I F > ; ; ",
"  ; ; ; s I I ] ` ) ) ) ) T c % $ $ $ $ $ $ $ $ $ $ $ $ $ $ - $ $ $ $ $ - $ i n ^ ) ) / ) ( L I F > ; ; ",
"  ; ; ; s U I { ) / / ) ) ` R 2 < < 1 1 1 1 1 < < < < < < < < < < < < < < < z ` / ) ) / ) ( L I F > ; ; ",
"  ; ; ; s I I { ) / / / ) ) ) ) ) ) ) ( ) ) ( ( ) ( ) ( ) ) ) ) ) ( ) ) ( ( ) ) ) ) / / / ( J I F > ; ; ",
"  ; ; ; s I I { ` / / / ) ) ) ) ) ) ) ) ) ) _ ) ) ) ) / ) ) ) ) ) ) ) ) ( ) ) ) ) / / / / ( J I F > ; ; ",
"  ; ; ; s I H { / / / / / ) ) ) ) ) ) ) ) ) ) ) ) ) ) ) ) ) ) ) ) ) ) ) ) ) ) ) ) ) / / / ( J I F > ; ; ",
"  ; ; ; s I I { / / / / ) ) ) ) ) ) ) ) ) ) ) ) ) ) ) ) ) ) ) ) ) ) ) ) ) ) ) ) _ / / / / ( L I F * ; ; ",
"  ; ; ; a I I { ) / ) ) ) ) ) ) ) ) ) ) ) ) ) ) ) ` ) ) ) ) ) ) ) ) ) ) ) ) ) ) ) ) / ) _ ( L I F > ; ; ",
"  ; ; ; s U I { ` / / ) ) ) ) ) ) ) ) ) ) ) ) ) ) ) ) ) ) ) ) ) ) ) ) ) ) ) ) ) ) ) ) / / ( L I F > ; ; ",
"  ; ; ; s I I ] / / / / ) ) ) ) ) ) ) ) ) ) ) ) ) ) ) ) ) ) ) ) ) ) ) ) ) ) ) ) ) / / / / ( J I F > ; ; ",
"  ; ; ; s I I { / / / / ) ) ) ) ) ) ) ) ) ) ) ) ) ) ) ) ) ) ) ) ) ) ) ) ) ) ) ) ) / / / / ( J I F > ; ; ",
"  ; ; - s I I { / / / / ) ) ) ) ) ) ) ) ) ) ) ) ) ) ) ) ) ) ) ) ) ) ) ) ) ) ) ) ) / / / / ^ J I F > ; ; ",
"  ; ; ; s I I { / / / / / ) ) / ) ) ) ) ) ) ) ) ) ) ) ) ) ) ) ) ) ) ) ) ) ) ) / ) / / / / ^ J I F > ; ; ",
"  ; ; ; s I I ] / / / / / / / / / / / / / / / / ` ` ` ` / ) / / / / / / / / / / / / / / / ( J I F > ; ; ",
"  ; ; - s I I { / / / / / / / / / / / / / / / Q C V V V V N / / / / / / / / / / / / / / / ) J I F > ; ; ",
"  : - - s I I { ) / / / / / / / / / ) ) ) ) ` A : ; ; ; - t ) ) ) ) ) / / / / / / / / / / ( J I F > ; ; ",
"  ; ; ; s I I { / / / / / / / / / ) ) ) ) ) ` A : ; ; ; ; t ) ) ) ) ( / / / / / / / / / / ( J I F , ; ; ",
"  ; ; - s I I ] ) / / / / / / / / ) ) ) ) ) ` A : ; ; ; % t ) ) ) ) ) ) / / / / / / / / / ( J I F > ; ; ",
"  ; ; ; s I I { _ / / ) / / / / ) ) ) ) ) ) ` A :       % e ( ) ) ) / / / / / / / / ) / / ( J I F > ; ; ",
"  ; ; ; s I I ] ) / ) ) / / / / / ) ) ) ) ) ` A ;       - t ) ) ) ) ) ) ) / / / / / ) ) ) ( K I F > ; ; ",
"  ; ; ; s I I { ) ) ) ) / / / / ) ) ) ) ) ) ` A :       - t ( ) ) ) ) ) ) / / / / / ) ) ) ( K I F > ; ; ",
"  ; ; ; s I I { ) ) ) ) / / / / / ) ) ) ) ) ` A ;       - t ) ) ) ) ) ) ) / / / ) ) ) ) ) ) L I F > ; ; ",
"  ; ; ; s I I { ) ) ) / / / / / ) ) ) ) ) ) ` A :       - e ) ) ) ) ) ) ) ) / ) ) ) ) ) ) ( K I F > ; ; ",
"  ; ; ; s I I [ } ) ) ) ) ) ) ) ) ) ) ) ) ) / A :       - e ) ) ) ) ) ) ) ) ) ) ) ) ) ) ) ) K I F > ; - ",
"    ; ; a P I I U ~ ) ) ) ) ) ) ) ) ) ) ) ) ( Z :       - e ! ) ) ) ) ) ) ) ) ) ) ) ) ) ) ~ U P D > ; : ",
"      ; : i F I U U } ` ) ) ) ) ) ) ) ) ` ) u > &       ; : 9 E ` ) ) ) ) ) ) ) ) ) ) ) { U U f > & ;   ",
"        - > P I I I [ } ) ` ) ) ) ` ) ` ~ B r - ;         ; ; y A ) ) ) ) ` ) ) ) ) ) } [ I U s - ;     ",
"          > D F F F F H ! ~ ~ ! ! ! ! ~ Z ; ; ;             ; - e ! ! ! ! ~ ~ ~ ! ! ! G F F F a -       ",
"            > > > > > > , , = = = = = = = ;                   ; : = = = , = = , = = , > > > > >         ",
"              ; - - ; - - - - - - - - ; -                       ; - - ; - - & ; - ; - - - - ;           ",
"                                                                                                        "
};
