/* XPM */
static char *player_up_stop1675266208[] = {
/* columns rows colors chars-per-pixel */
"52 64 201 2 ",
"   c None",
".  c #361F31",
"X  c #341F32",
"o  c #3C1F30",
"O  c #3D1F30",
"+  c #3C1F31",
"@  c #1D2035",
"#  c #1E2034",
"$  c #1F2034",
"%  c #1E2035",
"&  c #262033",
"*  c #272033",
"=  c #202034",
"-  c #212034",
";  c #222034",
":  c #232034",
">  c #242034",
",  c #252034",
"<  c #262034",
"1  c #282033",
"2  c #2B2033",
"3  c #2C2134",
"4  c #2D2134",
"5  c #2E2234",
"6  c #2F2234",
"7  c #362233",
"8  c #322234",
"9  c #332234",
"0  c #342234",
"q  c #352234",
"w  c #362334",
"e  c #372334",
"r  c #392032",
"t  c #382334",
"y  c #3A2334",
"u  c #451F2F",
"i  c #5B1E2C",
"p  c #5E1E2C",
"a  c #421F30",
"s  c #611E2C",
"d  c #621E2C",
"f  c #711D2A",
"g  c #781D29",
"h  c #482533",
"j  c #4C2633",
"k  c #4D2633",
"l  c #4E2633",
"z  c #502633",
"x  c #652933",
"c  c #662933",
"v  c #672933",
"b  c #682933",
"n  c #6A2933",
"m  c #6B2933",
"M  c #6C2A33",
"N  c #6D2A33",
"B  c #6E2A33",
"V  c #6F2A33",
"C  c #702A33",
"Z  c #712A33",
"A  c #722A33",
"S  c #762B33",
"D  c #7A2B33",
"F  c #7A2C33",
"G  c #7B2C33",
"H  c #B7191F",
"J  c #901C25",
"K  c #9E1C23",
"L  c #9D1C24",
"P  c #A11C23",
"I  c #A81B22",
"U  c #AA1B22",
"Y  c #B01B21",
"T  c #B61B20",
"R  c #B71B20",
"E  c #802C33",
"W  c #822D33",
"Q  c #922F32",
"!  c #932F32",
"~  c #942F32",
"^  c #952F32",
"/  c #962F32",
"(  c #9D3032",
")  c #9C3033",
"_  c #9C3133",
"`  c #9E3032",
"'  c #9F3032",
"]  c #A72C2E",
"[  c #B32F2F",
"{  c #B72C2C",
"}  c #B72D2D",
"|  c #B52E2E",
" . c #B42F2F",
".. c #B52F2F",
"X. c #B62E2E",
"o. c #B72E2E",
"O. c #B82D2D",
"+. c #B92D2D",
"@. c #B82E2E",
"#. c #A03032",
"$. c #A13132",
"%. c #A23132",
"&. c #A33132",
"*. c #A63132",
"=. c #A73132",
"-. c #A93232",
";. c #AB3232",
":. c #AE3131",
">. c #AC3232",
",. c #AD3232",
"<. c #AC3332",
"1. c #AE3232",
"2. c #AF3232",
"3. c #B13030",
"4. c #B23030",
"5. c #B33030",
"6. c #B03332",
"7. c #B13332",
"8. c #C41A1E",
"9. c #D81618",
"0. c #D31B1D",
"q. c #D61A1C",
"w. c #D71A1C",
"e. c #D11F1F",
"r. c #D8191C",
"t. c #D81A1C",
"y. c #DA1A1C",
"u. c #E81313",
"i. c #ED1111",
"p. c #EE1010",
"a. c #EE1111",
"s. c #ED1212",
"d. c #ED1313",
"f. c #EE1212",
"g. c #E81414",
"h. c #E81616",
"j. c #EC1414",
"k. c #ED1414",
"l. c #ED1515",
"z. c #EE1414",
"x. c #ED1616",
"c. c #ED1717",
"v. c #EE1616",
"b. c #EE1717",
"n. c #EF1717",
"m. c #E3191A",
"M. c #E71B1B",
"N. c #E11D1D",
"B. c #E21D1D",
"V. c #E31D1D",
"C. c #E41C1C",
"Z. c #E51C1C",
"A. c #E81818",
"S. c #E81919",
"D. c #EA1919",
"F. c #E8191A",
"G. c #E81A1A",
"H. c #E81B1B",
"J. c #E91B1B",
"K. c #EA1A1A",
"L. c #EB1A1A",
"P. c #ED1818",
"I. c #EC1919",
"U. c #ED1919",
"Y. c #EE1818",
"T. c #EF1818",
"R. c #EE1919",
"E. c #EF1919",
"W. c #EC1A1A",
"Q. c #F11918",
"!. c #F01919",
"~. c #F11919",
"^. c #F21918",
"/. c #C02225",
"(. c #CD2525",
"). c #CF2424",
"_. c #CE2525",
"`. c #CF2525",
"'. c #CD2626",
"]. c #C22929",
"[. c #C02A2A",
"{. c #C12B2A",
"}. c #C22A2A",
"|. c #C42929",
" X c #D12020",
".X c #D12121",
"XX c #D12222",
"oX c #D12323",
"OX c #D22323",
"+X c #D72121",
"@X c #D52222",
"#X c #D62222",
"$X c #D72222",
"%X c #D02424",
"&X c #D12424",
"*X c #D02524",
"=X c #D02525",
"-X c #D82121",
";X c #D92121",
":X c #DA2020",
">X c #DB2020",
/* pixels */
"                          - - > - - - - > - - - - > - - - - - - > - - - - - > -                         ",
"                          > - - - - - - - - - - - - - - - - - - - - - - - - - - -                       ",
"                        - - > q q q 9 q q q q 9 q q q q 9 q q q q q q q q q 6 ; > -                     ",
"                    - - - - y / ( ( ( ( ( _ ) ) ) ) ) _ ) ) ) _ _ ( ( ( ( ( B ; - - >                   ",
"                    - - - l G -.,.,.,.-.5.`.`.&X`.`.&X&X`.`.&X&X|.,.,.,.,.,./ c 6 $ - -                 ",
"                  > - > q E 6.,.,.6.X.X.|.I.I.!.I.I.I.!.I.I.I.!.>XX.X.6.-.,.,.*.l 3 - - -               ",
"              - - - $ y / *.,.-.-.O.C.J.J.I.!.I.I.I.I.I.I.I.I.I.I.J.J.&X-.,.,.-.*.n - - - -             ",
"              - 6 n B D -.,.,.,.].+XI.!.I.I.I.I.I.!.I.!.I.!.I.!.I.I.I.C.`. .-.,.,.Q B Z l - -           ",
"            - - y &.,.,.,.-.,.O.-X!.I.I.I.I.!.I.I.I.I.I.I.I.I.I.I.I.!.I.W.].6.,.-.,.,.6.Z ; ; ;         ",
"          - - $ q &.,.,.,.,.O.Z.I.I.I.!.I.!.I.I.!.I.!.I.!.I.!.I.I.I.!.I.I.W.&X,.,.,.,.,.Z % ; % -       ",
"      > - 6 n Z G -.-.,.,.].-XI.I.!.I.I.I.I.I.I.I.I.I.!.I.I.I.!.I.I.I.I.I.!.B.&X3.-.,.,.! Z Z j - -     ",
"      - - q &.,.,.,.,.,.X.-Xn.I.I.I.!.I.I.!.I.!.!.I.I.I.!.I.I.I.!.I.!.I.I.I.I.I.|.3.,.,.,.,.7.B - > >   ",
"      - - w &.,.-.,.,.O.C.I.I.I.I.!.I.!.I.I.I.I.I.!.I.I.I.!.I.!.I.I.I.!.I.I.I.!.J.&X,.;.,.;.,.B - - -   ",
"      - - t ( ,.,.,.-.O.J.I.I.I.I.I.I.I.!.I.!.I.I.I.!.I.I.I.I.I.!.I.I.I.!.I.I.I.n.&X;.,.;.,.,.B $ - >   ",
"      > - w &.,.,.,.5.].J.!.I.!.I.!.I.I.I.I.I.!.I.I.I.I.I.!.I.I.I.!.I.!.I.!.I.!.n.+X .3.,.,.,.n - - -   ",
"      - - w ( ,.,.-.&XI.I.I.I.I.I.I.!.I.!.I.I.I.!.I.!.I.I.I.!.I.I.I.I.I.I.I.I.I.I.W.Z. .;.;.,.B - > -   ",
"    - - - t &.-.,.,.XXv.I.I.I.!.I.I.I.!.I.!.I.I.I.!.I.!.I.I.I.!.I.!.I.!.I.!.I.!.I.I.J.X.-.,.,.n - - - > ",
"  - > - - t &.,.,.O.-XI.!.I.I.I.!.I.I.I.I.I.!.I.I.I.I.I.!.I.I.I.I.I.I.I.I.I.I.I.I.I.J.].X.,.,.B $ - - - ",
"  - - - ; q ( -.X.Z.I.I.I.!.I.!.I.!.I.!.I.I.I.I.I.!.I.I.I.!.I.!.I.!.I.I.I.!.I.I.!.I.I.I.`.-.,.B - - > - ",
"  > > - z W -.,.O.J.I.I.I.I.I.I.I.I.I.I.!.I.!.I.I.I.!.I.I.I.I.I.I.I.!.I.I.I.!.I.I.I.I.I.&X,.,./ B 9 - - ",
"  - - - B ,.,.,.X.J.v.I.I.I.I.I.I.I.I.I.I.!.I.I.I.!.I.!.I.I.I.I.I.I.I.!.I.I.I.I.!.I.!.I.XX,.-.,.&.q ; ; ",
"  - - - B ,.,.-.O.g.v.I.I.!.I.!.!.I.!.I.I.I.!.I.I.I.I.I.!.I.!.I.!.I.I.I.!.I.!.I.I.I.I.f.XX-.,.,.( q ; ; ",
"  > - - B 6.,.-.{ u.v.I.!.I.I.I.I.I.I.!.I.I.I.I.I.!.I.I.I.I.I.!.I.!.I.!.I.I.I.!.I.!.n.f.e.,.,.,.( q ; ; ",
"  - - - n ,.-.,.{ u.v.!.I.I.I.!.!.I.I.I.!.I.!.I.I.I.!.I.!.I.I.I.I.I.I.I.!.I.I.I.I.I.I.f.e.-.,.,.( q ; ; ",
"  > - - B ,.-.-.O.g.v.I.I.I.!.I.I.!.I.I.I.!.I.!.I.!.I.I.I.!.I.!.I.!.I.I.I.I.I.!.I.I.T.f.e.,.,.,.( q ; ; ",
"  - - - B ,.,.,.X.u.v.I.I.!.I.I.I.I.!.I.I.I.I.I.I.I.!.I.I.I.I.I.I.I.!.I.!.I.I.I.I.!.n.f.e.-.-.,.( 9 ; ; ",
"  - - - n ,.,.-.O.g.v.I.I.I.I.I.I.I.I.I.I.!.I.I.I.I.I.I.I.!.I.I.I.I.I.I.I.!.I.!.I.I.n.f.e.-.,.,.( q ; ; ",
"  - - - B ,.,.,.{ g.v.I.I.!.I.!.!.I.!.I.I.I.!.I.!.I.!.I.I.I.!.I.!.I.!.I.I.I.I.I.I.I.I.f.e.,.,.,.( q % ; ",
"  > - - B ,.,.-.{ u.v.I.I.I.I.I.I.I.I.!.I.I.I.!.I.I.I.!.I.I.I.!.I.!.I.!.I.I.I.!.!.I.n.f.e.,.,.,.#.q ; ; ",
"  - - - B ,.,.-.X.g.v.I.I.I.I.!.!.I.I.I.!.I.I.I.!.I.I.I.!.I.I.I.I.I.I.I.!.I.I.I.I.I.I.f.e.-.,.,.( q ; ; ",
"  > - - n ,.,.,.{ u.v.I.!.I.!.I.I.!.I.!.I.!.I.!.I.!.I.!.I.!.I.!.I.!.I.I.I.!.I.!.I.I.n.f.e.-.-.,.( q ; ; ",
"  - - - B ,.,.-.{ u.v.I.I.I.I.I.I.I.I.I.I.I.I.I.I.I.I.I.I.I.I.I.I.I.!.I.I.I.I.I.I.I.I.f.e.,.,.,.( q ; ; ",
"  - - - B ,.,.-.X.g.n.!.I.!.I.!.I.!.I.!.I.!.I.!.I.!.I.!.I.!.I.!.I.!.I.I.I.I.I.!.!.I.I.f.XX,.,.,.( q - - ",
"  - - - B ,.,.,.O.J.I.I.I.I.I.I.I.I.I.I.I.I.I.I.I.I.I.I.I.I.I.I.I.I.!.I.!.I.I.I.I.I.I.!.&X,.,.,.( q - - ",
"  - - - n ,.,.-. .J.I.I.I.!.I.I.I.!.I.I.I.!.I.I.I.!.I.I.I.!.I.I.I.I.I.I.I.!.I.!.I.I.I.v.&X,.-.,.( q - > ",
"  > - - B ,.,.-.O.J.v.v.I.I.!.I.I.I.!.I.I.I.!.I.I.I.!.I.I.I.!.I.!.I.!.I.I.I.I.I.I.I.v.v.XX-.,.,.&.q - - ",
"  - > - B ,.-.,.{ g.u.f.I.I.I.I.I.I.I.!.I.I.I.I.I.I.I.!.I.I.I.I.I.!.I.!.I.I.I.!.I.v.f.f.e.-.,.,.( q - - ",
"  - - - B ,.,.-.{ j.f.f.n.I.!.I.!.I.I.I.!.I.!.I.!.I.I.I.!.I.!.I.I.I.I.I.!.I.I.I.J.v.p.p.e.,.-.,.( q - - ",
"  - - - n ,.,.,.{ u.p.f.I.I.I.I.I.!.I.!.I.I.I.!.I.!.I.!.I.I.I.!.I.!.I.I.I.!.I.!.I.v.f.p.e.,.,.,.( q - > ",
"  - - - B ,.,.-.{ u.f.u.n.I.!.I.I.I.I.I.!.I.I.I.I.I.I.I.!.I.I.I.I.I.!.I.I.I.I.I.v.v.f.f.e.-.,.,.( q - - ",
"  - - - B ,.,.,.X.A.v.I.I.I.I.!.I.!.I.I.I.I.I.!.I.I.I.I.I.!.I.I.I.I.I.!.I.I.I.I.I.I.v.I.XX,.,.,.( q - > ",
"  > - - n ,.,.-.X.A.v.g.!.I.I.I.I.I.!.I.!.I.I.I.!.I.!.I.I.I.!.I.!.I.I.I.!.I.!.I.!.v.v.n.XX-.-.,.( q - - ",
"  - > - B ,.,.-.{ j.u.z.I.!.I.!.I.I.I.I.I.!.I.!.I.I.I.!.I.I.I.I.I.!.I.!.I.I.I.!.J.v.f.p.e.,.,.,.&.q - - ",
"  - - - n ,.,.,.{ u.p.f.I.I.I.I.!.I.!.I.I.I.I.I.!.I.I.I.!.I.!.I.I.I.I.I.!.I.I.I.v.v.p.p.e.-.,.,.( q - > ",
"  - - - M 1.1.;.{ g.u.f.n.I.I.I.I.!.I.I.I.I.I.!.I.I.I.I.!.I.I.I.I.!.I.!.I.I.I.I.I.v.p.p.e.-.-.,.( q ; ; ",
"  - - - M 1.;.;.{ g.p.f.n.I.I.J.I.I.I.I.!.I.I.I.!.I.!.I.I.I.I.J.I.I.I.I.!.I.I.I.I.v.f.p.e.-.,.,.( q ; ; ",
"  - - - M 1.1.;.{ u.i.i.z.f.f.f.f.z.u.f.f.f.f.f.!.!.!.!.!.n.f.f.f.f.f.u.f.f.f.f.f.u.p.p.e.-.,.,.( q ; ; ",
"  > - $ M 1.;.;.{ u.i.f.f.f.p.f.f.f.z.z.z.f.n.9.P K K P K H j.z.f.v.f.v.f.f.u.p.f.f.p.p.e.,.,.,.( 9 ; ; ",
"  - > - M 1.;.;.X.g.i.i.i.i.i.i.f.f.I.I.I.I.!.T & - - - $ s J.I.I.I.I.v.f.p.i.i.i.i.f.p.XX,.,.,.( q ; ; ",
"  - - - M 1.;.;.{ g.i.f.i.i.i.i.v.T.I.I.!.I.!.T 2 - - - $ s J.v.I.!.I.I.v.u.i.f.i.f.p.p.e.-.,.,.( q ; ; ",
"  - - - M 1.;.;.{ g.f.j.i.i.i.i.v.I.!.I.I.!.!.H 2 - - - $ s J.I.!.I.I.I.I.f.f.p.i.u.z.f.e.-.-.,.( q ; ; ",
"  - - - M 1.1.;.X.g.v.T.f.i.i.i.v.I.I.I.I.I.!.H 2       $ s c.T.I.I.I.I.I.f.p.p.f.f.I.f.e.,.,.,.( q ; ; ",
"  - - - M 1.;.;.O.J.!.I.c.j.f.i.v.I.I.I.I.I.!.T &       $ s J.T.!.I.!.I.I.z.f.u.v.I.I.v.&X-.,.,.( q ; ; ",
"  > - - M 1.1.;.X.J.I.I.J.f.i.i.n.I.I.!.!.I.!.T 2       $ s I.I.I.I.I.I.I.f.f.p.v.I.I.I.&X;.,.,.( q ; ; ",
"  - > - M 1.1.;.O.J.I.I.I.g.f.f.v.I.I.I.I.I.!.R &       @ s J.I.I.I.!.I.I.z.f.f.T.I.I.!.&X;.,.,.#.q ; ; ",
"  - - - M 1.;.;.o.J.!.I.I.c.c.T.I.I.!.I.!.I.I.T &       @ p J.I.I.!.I.I.I.n.I.n.I.I.I.!.&X;.;.,.( q ; ; ",
"  - - - B ,.-.,.6.`.B.I.I.I.I.I.I.I.!.I.!.I.!.H 2       % s I.I.!.I.I.!.I.!.I.I.I.I.I.+X].<.;.,.( q - - ",
"    - - c &.,.,.,.-.%XJ.I.!.I.!.I.!.I.I.I.I.m.I &       % p y.J.I.I.I.I.I.I.!.I.I.J.C.5.;.,.,.=.Q q - - ",
"      - 6 h &.-.,.,.3.+.I.I.I.I.I.I.I.I.!.I.g X -       = 2 a 8.^.I.I.I.I.I.I.I.!.+XX.,.;.,.,.S q > -   ",
"        $ q &.,.,.,.-.o.`.C.!.!.I.!.!.I.y.J u $ -         = - f Y !.!.!.!.!.!.I.+X{.-.,.,.,.,.B - -     ",
"          q ~ ( ( ( ( ( _ { 9.9.w.w.w.y.U & - -             - $ p q.w.w.t.w.w.0.] ( ( ( ( ( ( c -       ",
"            q 9 9 q 9 q q r + a O + o O . >                   - 2 o O + + + O + q 9 q 9 q q q 9         ",
"              - - $ - $ - $ ; % $ $ $ $ -                       - $ $ $ $ $ $ $ $ - $ - $ - -           ",
"                                                                                                        "
};
