/* XPM */
static char *player_left_11675266208[] = {
/* columns rows colors chars-per-pixel */
"51 64 151 2 ",
"   c None",
".  c #000000",
"X  c #0D0101",
"o  c #05060C",
"O  c #09090E",
"+  c #1B0100",
"@  c #11080B",
"#  c #0C0B12",
"$  c #090C19",
"%  c #0C1118",
"&  c #240403",
"*  c #2B0302",
"=  c #1B1C2D",
"-  c #171A27",
";  c #151E3D",
":  c #181E3D",
">  c #211F33",
",  c #2E1F32",
"<  c #331F32",
"1  c #3B1F31",
"2  c #1F2034",
"3  c #222034",
"4  c #2C2133",
"5  c #24233C",
"6  c #332234",
"7  c #3C2334",
"8  c #430605",
"9  c #480403",
"0  c #410E16",
"q  c #500F16",
"w  c #6E0C0C",
"e  c #7F0D0D",
"r  c #6E171F",
"t  c #471F2F",
"y  c #561E2D",
"u  c #5B1D2C",
"i  c #401F30",
"p  c #601827",
"a  c #601B29",
"s  c #631521",
"d  c #7D1D28",
"f  c #462533",
"g  c #4B2533",
"h  c #522633",
"j  c #592733",
"k  c #5E2833",
"l  c #652933",
"z  c #6A2933",
"x  c #742B33",
"c  c #792B33",
"v  c #172247",
"b  c #1C2245",
"n  c #1D2955",
"m  c #2A374F",
"M  c #2C356C",
"N  c #2C3770",
"B  c #2E3870",
"V  c #323D7C",
"C  c #3C3E7D",
"Z  c #32425F",
"A  c #3D4670",
"S  c #41567B",
"D  c #42587F",
"F  c #9A0F0D",
"G  c #9C100F",
"H  c #9F171E",
"J  c #9E181F",
"K  c #A3100F",
"L  c #A8161D",
"P  c #B41312",
"I  c #BE1B1F",
"U  c #BF1414",
"Y  c #841B25",
"T  c #8B1C26",
"R  c #861E28",
"E  c #951C25",
"W  c #9A1C24",
"Q  c #A21C23",
"!  c #B81B20",
"~  c #B31B20",
"^  c #822D33",
"/  c #8C2E32",
"(  c #942F32",
")  c #9C3032",
"_  c #AE2528",
"`  c #B42F2F",
"'  c #BB2C2C",
"]  c #BA2527",
"[  c #B3302F",
"{  c #A33132",
"}  c #AC3232",
"|  c #B13131",
" . c #C11414",
".. c #C31A1F",
"X. c #CB1A1E",
"o. c #CD1616",
"O. c #D11616",
"+. c #DD1516",
"@. c #D61A1C",
"#. c #DB1B1C",
"$. c #E51314",
"%. c #ED1313",
"&. c #EF1817",
"*. c #E41B1B",
"=. c #ED1919",
"-. c #F11111",
";. c #F11919",
":. c #C12627",
">. c #CD2626",
",. c #C32929",
"<. c #C82828",
"1. c #D32323",
"2. c #DB2020",
"3. c #37438A",
"4. c #40458C",
"5. c #4D6693",
"6. c #4A5AB9",
"7. c #5672A3",
"8. c #4E5FC2",
"9. c #5465CF",
"0. c #5466D1",
"q. c #596CDC",
"w. c #6076DA",
"e. c #5B6EE1",
"r. c #5D71E4",
"t. c #6076E5",
"y. c #657DEB",
"u. c #637AE6",
"i. c #6D8FD7",
"p. c #6D92D1",
"a. c #6A86EB",
"s. c #7190F0",
"d. c #7698F4",
"f. c #7A9EF7",
"g. c #7A9FF8",
"h. c #7CA5EC",
"j. c #7FA7FA",
"k. c #82ACFB",
"l. c #86B2FF",
"z. c #8AB5FF",
"x. c #8EB8FF",
"c. c #93B9FF",
"v. c #9ABEFE",
"b. c #9DC0FE",
"n. c #A4C4FE",
"m. c #A9C6FE",
"M. c #AECAFD",
"N. c #B6CFFD",
"B. c #BED4FD",
"V. c #C2D6FC",
"C. c #C9DAFC",
/* pixels */
"                                  3 3 3 3 3 3 3 3 3 3 3 > 5 > 3 3 3 3 3                               ",
"                            3   > > 3 3 2 3 > > 3 3 3 3 > > > > 3 3 3 3 3                             ",
"                          3 3 3 , 1 1 7 1 1 1 1 1 7 6 6 6 6 6 6 6 6 4 3 3 3                           ",
"                      3 3 3 3 2 d #.#.@.#.@.#.@.#.] ) ) ) ) ) { { ) l : 3 3 3 3                       ",
"                    > > 2 y E T ! ;.;.;.=.=.=.=.=.2.1.>.>.>.| } } } / z z g 3 3 3                     ",
"                  3 < i 1 W ;.=.=.=.=.=.=.=.=.=.=.&.&.=.=.=.' ` | } } } | x 6 3 3 3                   ",
"                3 2 d #.#.*.=.=.=.=.=.=.=.=.=.=.=.=.=.=.=.=.*.*.*.| } } } } ( 4 3 3 3                 ",
"              3 , R ..&.=.=.=.=.=.=.=.=.=.=.=.=.=.=.=.=.=.=.=.=.=.1.' } } } { x g 3 3 3               ",
"            3 2 1 @.;.=.=.=.=.=.=.=.=.=.=.=.=.=.=.=.=.=.=.=.=.=.=.;.1.| } } } | x 6 > > 3             ",
"            3 3 1 @.=.=.=.=.=.=.=.=.$.=.=.=.=.=.=.=.=.=.=.=.=.=.=.=.=.*.` } } } { ( 6 3 3             ",
"          3 > u Q *.=.=.=.=.=.=.=.=.=.=.=.=.=.=.=.=.=.=.=.=.=.=.=.=.=.=.1.' } } } { c g 3 3           ",
"        3 3 > T ;.=.=.=.=.=.=.=.=.=.=.=.=.=.=.=.=.=.=.=.=.=.=.=.=.=.=.=.;.1.` | } } | z 3 3 3         ",
"        > 3 2 R ;.=.=.=.=.=.=.=.=.=.=.=.=.=.=.=.=.=.=.=.=.=.=.=.=.=.=.=.=.*.*.| } } } l 3 3 3         ",
"          , 3 R ;.;.=.;.=.=.=.=.=.=.=.=.=.=.=.=.=.=.=.=.=.=.=.=.=.=.=.=.=.=.*.| } } } l 3 3           ",
"        > > = s  . . . .P o.=.=.=.=.=.=.=.=.=.=.=.=.=.=.=.=.=.=.=.=.=.=.=.=.*.' | } } x 6 3 3         ",
"      3 > = O X X X X X X F &.=.=.=.=.=.=.=.=.=.=.=.=.=.=.=.=.=.=.=.=.=.=.=.=.=.>.} } } ( 6 3 3       ",
"      # - 5 V 3.3.3.3.V o & w +.=.=.=.=.=.=.=.=.=.=.=.=.=.=.=.=.=.=.=.=.=.=.=.=.>.} } } ) 6 3 3       ",
"      . = A w.y.a.r.r.0.b $ + o.=.=.=.=.=.=.=.=.=.=.=.=.=.=.=.=.=.=.=.=.=.=.=.;.>.} } } ) 6 3 3       ",
"      . S k.k.l.j.r.e.e.q.M + o.=.=.=.=.=.=.=.=.=.=.=.=.=.=.=.=.=.=.=.=.=.=.=.=.>.} } } ) 6 3 3       ",
"    % 5.p.l.l.l.k.h.a.e.e.6.C q K ;.=.=.=.=.=.=.=.=.=.=.=.=.=.=.=.=.=.=.=.=.=.=.>.} } } ) 6 3 3       ",
"  - m h.c.c.l.l.l.l.d.r.e.r.9.v s  .*.=.=.=.=.=.=.=.=.=.=.=.=.=.=.=.=.=.=.=.=.=.>.} } } ) 6 2 3       ",
". S k.k.m.V.x.l.l.l.l.j.r.r.q.q.M & O.;.=.=.=.=.=.=.=.=.=.=.=.=.=.=.=.=.=.=.=.=.>.} } } ) 6 3 3       ",
". D x.M.B.C.N.n.z.l.z.k.r.r.e.r.M + O.=.=.=.=.=.=.=.=.=.=.=.=.=.=.=.=.=.=.=.=.=.<.} } } ) 6 3 3       ",
". D x.N.V.C.B.n.z.c.z.j.u.e.e.r.B + O.=.=.=.=.=.=.=.=.=.=.=.=.=.=.=.=.=.=.=.=.=.>.} } } ) 6 3 3       ",
". D z.z.m.V.x.l.x.V.m.k.u.e.e.r.B + O.=.=.=.=.=.=.=.=.=.=.=.=.=.=.=.=.=.=.=.=.=.>.} } } ) 6 3 3       ",
". D z.z.x.b.z.l.z.c.c.k.r.e.e.r.B + O.=.=.=.=.=.=.=.=.=.=.=.=.=.=.=.=.=.=.=.=.=.>.} } } ) 6 3 3       ",
". 5.l.l.l.l.c.x.l.k.l.k.u.e.e.r.B + O.&.=.=.=.=.=.=.=.=.=.=.=.=.=.=.=.=.=.=.=.=.>.} } } ) 6 2 3       ",
". A z.l.z.x.V.n.l.l.l.k.r.e.e.r.N + O.;.=.=.=.=.=.=.=.=.=.=.=.=.=.=.=.=.=.=.=.=.>.} } } ) 6 3 3       ",
". D z.l.l.z.b.z.l.l.z.j.r.r.e.r.N + O.=.=.=.=.=.=.=.=.=.=.=.=.=.=.=.=.=.=.=.=.=.>.} } } ) 6 3 3       ",
". D z.l.l.l.l.l.l.l.j.d.r.r.e.r.N + O.;.=.=.=.=.=.=.=.=.=.=.=.=.=.=.=.=.=.=.=.;.<.} } } ) 6 3 3       ",
". D z.l.l.l.l.l.l.z.s.r.e.e.e.e.M + O.;.=.=.=.=.=.=.=.=.=.=.=.=.=.=.=.=.=.=.=.=.>.} } } ) 6 3 3       ",
"  2 Z h.l.l.l.z.k.a.t.e.e.r.0.n u P $.=.=.=.=.=.=.=.=.=.=.=.=.=.=.=.=.=.=.=.=.=.>.} } } ) 6 3 3       ",
"    % 7.i.f.f.j.d.r.e.e.e.8.4.0 F =.=.=.=.=.=.=.=.=.=.=.=.=.=.=.=.=.=.=.=.=.=.=.>.} } } ) 6 3 3       ",
"      . N e.q.e.q.q.q.q.q.M & o.=.=.=.=.=.=.=.=.=.=.=.=.=.=.=.=.=.=.=.=.=.=.=.=.>.{ } } ) 6 3 3       ",
"      . $ ; 2 2 ; ; ; ; ; a P *.&.=.=.=.=.=.=.=.=.=.=.=.=.=.=.=.=.=.=.=.=.=.=.=.>.} } } ) 6 3 3       ",
"      # # @ * 8 9 9 9 9 9 G =.=.=.=.=.=.=.=.=.=.=.=.=.=.=.=.=.=.=.=.=.=.=.=.=.;.>.} } } ) 6 3 3       ",
"      3 > 1 @.%.%.$.%.$.=.=.=.=.=.=.=.=.=.=.=.=.=.=.=.=.=.=.=.=.=.=.=.=.=.=.=.=.>.} } } ) 6 3 3       ",
"      3 2 1 @.%.-.-.&.=.=.=.=.=.=.=.=.=.=.=.=.=.=.=.=.=.=.=.=.=.=.=.=.=.=.=.=.=.>.} } } ) 6 3 3       ",
"      3 > 1 @.%.%.%.%.=.=.=.=.=.=.=.=.=.=.=.=.=.=.=.=.=.=.=.=.=.=.=.=.=.=.=.=.=.>.} } } ) 6 3 3       ",
"      3 : 1 @.%.-.%.%.=.=.=.=.=.=.=.=.=.=.=.=.=.=.=.=.=.=.=.=.=.=.=.=.=.=.=.=.=.>.} } } ) 6 3 3       ",
"      3 3 1 @.=.=.%.=.=.=.=.=.=.=.=.=.=.=.=.=.=.=.=.=.=.=.=.=.=.=.=.=.=.=.=.*.,.` } } } ) 6 3 3       ",
"      3 3 7 @.&.%.%.=.=.=.=.=.=.=.=.=.=.=.=.=.=.=.=.=.=.=.=.=.=.=.=.=.=.=.=.*.` } } } } ) 6 2 3       ",
"      3 > 1 X.%.-.-.%.=.=.*.=.=.=.=.=.=.=.=.=.=.=.=.=.=.=.=.=.=.=.=.=.=.&.=.*.` } } } } ) 6 3 3       ",
"        > > t W %.%.%.=.=.=.=.=.=.=.=.=.=.=.=.=.=.=.=.=.=.=.=.=.=.=.=.=.;.1.` } } } } x 7 3 3 3       ",
"          3 3 Y -.$.-.=.=.=.=.=.=.=.=.=.=.=.=.=.=.=.=.=.=.=.=.=.=.=.=.*.2.' } } } } } c g 4 3 3       ",
"        > 3 = Y $.-.%.%.=.=.=.=.=.=.=.=.=.=.=.=.=.=.=.=.=.=.=.=.=.=.=.*.` } } } } } } } ) 7 3 3       ",
"        3 3 > 1 u $.-.%.%.%.%.%.%.%.%.%.%.%.%.=.=.=.=.=.=.=.=.=.*.' ` ` } } } } } } } } } ( j 3       ",
"        3 3 3 2 < T H L $.%.%.%.%.%.%.%.%.%.%.=.=.=.=.=.=.=.=.=.=.<.<.,.| } } } } } } } } } l 2       ",
"        > 3 4 4 4 3 3 1 X.=.=.=.=.=.=.=.=.=.=.=.=.=.=.=.=.=.=.=.=.=.=.*.` } | } } } } } } } z 3 3 3   ",
"          < ~ _ ^ 4 > > i W ;.;.=.=.=.=.=.=.=.=.=.=.=.=.=.=.=.=.=.=.=.=.*.*.2.| } } } } } } { ^ 4 3 3 ",
"        u R *.2.' l j h 5 u W W ..&.=.&.=.=.=.=.=.&.=.=.=.=.=.=.=.=.=.=.=.;.=.<.' } } } } } } { l 7 3 ",
"      4 E &.=.=.*.' | ) 6 2 3 2 d *.=.&.=.=.=.=.=.=.=.=.=.=.=.=.=.=.=.=.=.=.=.=.>.} } } } } } } | l 3 ",
"    < ! #.=.=.=.=.*.<.) 6 : > 3 < u #.&.=.=.=.=.=.=.=.=.=.=.=.=.=.=.=.=.=.=.=.=.=.2.| } } } } } } l 3 ",
"  3 1 @.;.=.=.=.=.&.>.) l f 3 3 : 6 T W Q *.=.=.=.=.=.=.=.=.=.=.=.=.=.=.=.=.=.=.=.*.[ } } } } } | l 2 ",
"    1 @.;.=.=.=.=.=.>.| [ z 4 3 3 3 3 3 1 ..=.=.=.=.=.=.=.=.=.=.=.=.=.=.=.=.=.=.=.*.' } } } } } } l 3 ",
"    1 @.=.=.=.=.=.=.=.2.[ ) / 6 3 3 3 3 > 1 W ;.=.=.=.=.=.=.=.=.=.=.=.=.=.=.=.=.=.=.*.<.} } } } } z 3 ",
"    1 @.=.=.=.=.=.=.=.*.| } ) 6 3 3 3 3 3 3 u E E ..=.=.=.=.=.=.=.=.=.=.=.=.=.=.=.=.;.>.} } } } | l 2 ",
"    1 ..*.=.=.=.=.=.;.*.[ | ) f 3 3 3 3 3 3 3 3 : d #.#.*.=.=.=.=.=.=.=.=.=.=.=.=.=.=.>.} } } } { k 3 ",
"  3 4 1 W &.=.=.=.=.=.*.| } } ) k 2 3 3 3 3 3 3 > < f 1 W ;.;.=.=.=.=.=.=.=.=.=.;.=.=.1.} } } ) f 4 3 ",
"    > : R &.=.&.=.=.=.*.[ } } } z 3 3 3 3 3 3 3 > > 3 = u T T I ;.=.=.=.;.=.=.=.2.>.1.' } } / l 4 2 3 ",
"      2 d #.#.#.=.=.=.*.[ } } } z 3 3 3 3 3 3 3 3 3 3 3 3 3 2 d #.@.#.@.@.*.=.*.:.) ) ) ) ) l 2 5     ",
"      3 4 7 1 W ;.;.;.*.` | } | z 3 3 3         3 3 3 3 3 3 3 4 1 1 1 7 7 E =.,.x 6 6 6 6 6 6         ",
"        3 2 2 y T T T R z l z z h   3             3 3 3 3 3 3 3 > 2 2 3 2 y R z f 2 2 3 3 3           ",
"            3 3 2 2 2 3 3 2 3 3                                         3 2 2 3 3 3                   "
};
