/* XPM */
static char *player_left_stop1675266208[] = {
/* columns rows colors chars-per-pixel */
"49 64 137 2 ",
"   c None",
".  c #010101",
"X  c #0E0101",
"o  c #09090E",
"O  c #13080B",
"+  c #010810",
"@  c #0C0B12",
"#  c #0F131C",
"$  c #2F0504",
"%  c #350402",
"&  c #3D0503",
"*  c #0D0F20",
"=  c #171623",
"-  c #171E2B",
";  c #1C1B2C",
":  c #151D3C",
">  c #181E3E",
",  c #211F32",
"<  c #341F32",
"1  c #3C1F30",
"2  c #1F2034",
"3  c #212034",
"4  c #2C2134",
"5  c #24243F",
"6  c #342234",
"7  c #3A2334",
"8  c #480503",
"9  c #430809",
"0  c #550B0D",
"q  c #7C0D0D",
"w  c #7B161E",
"e  c #441F2F",
"r  c #4B1F2E",
"t  c #541F2E",
"y  c #411F30",
"u  c #481F30",
"i  c #651E2B",
"p  c #691B28",
"a  c #731622",
"s  c #4E2633",
"d  c #512633",
"f  c #7F202A",
"g  c #672933",
"h  c #6C2A33",
"j  c #732B33",
"k  c #7B2C33",
"l  c #1D274E",
"z  c #1D2750",
"x  c #23264C",
"c  c #242A56",
"v  c #2B3A53",
"b  c #2C366F",
"n  c #3F3870",
"m  c #313C78",
"M  c #403E7D",
"N  c #344462",
"B  c #3F4975",
"V  c #43587F",
"C  c #991010",
"Z  c #9E171E",
"A  c #AC171D",
"S  c #B31211",
"D  c #BB1313",
"F  c #871D27",
"G  c #8B1C26",
"H  c #951B24",
"J  c #9F1C23",
"K  c #A41C23",
"L  c #AD1B21",
"P  c #882E33",
"I  c #942F32",
"U  c #992F32",
"Y  c #9D3032",
"T  c #A92A2D",
"R  c #B62E2E",
"E  c #BA2D2D",
"W  c #A82F30",
"Q  c #A33132",
"!  c #AC3232",
"~  c #B23131",
"^  c #C11414",
"/  c #CC1A1D",
"(  c #C81514",
")  c #DC1717",
"_  c #DD1718",
"`  c #D61A1C",
"'  c #DB1B1C",
"]  c #E61213",
"[  c #ED1414",
"{  c #E41A1A",
"}  c #ED1919",
"|  c #F11211",
" . c #F11919",
".. c #DF201F",
"X. c #CF2525",
"o. c #C32929",
"O. c #D32323",
"+. c #D92121",
"@. c #353F81",
"#. c #37438A",
"$. c #445B82",
"%. c #4E6895",
"&. c #4656B0",
"*. c #4B5CBD",
"=. c #5774A6",
"-. c #4E5FC2",
";. c #5769D6",
":. c #596CDC",
">. c #6178DF",
",. c #5B6EE1",
"<. c #5E72E4",
"1. c #6076E4",
"2. c #6279E6",
"3. c #657DEA",
"4. c #6F94D5",
"5. c #6E90D9",
"6. c #6C88EC",
"7. c #7495F2",
"8. c #799DF6",
"9. c #7A9FF8",
"0. c #7DA6EE",
"q. c #7EA7F0",
"w. c #7DA4F9",
"e. c #7FA8FA",
"r. c #83ADFB",
"t. c #86B2FF",
"y. c #8AB5FF",
"u. c #8FB9FF",
"i. c #92BAFF",
"p. c #9ABEFE",
"a. c #9DC0FE",
"s. c #A2C3FE",
"d. c #ADC9FD",
"f. c #B6CFFD",
"g. c #BFD4FD",
"h. c #C2D6FC",
"j. c #C9DAFC",
/* pixels */
"                                , 3 3 3 3 3 3 3 3 3 3 3 3 3 3 3 3 3 3 3                           ",
"                            3 3 , , 3 3 3 3 3 , 3 3 3 3 3 , 3 3 3 3 3 ,                           ",
"                          3 3 3 < 1 1 1 1 1 1 1 1 < 6 6 6 6 6 6 6 6 3 3 3                         ",
"                    3 3 3 3 3 3 H ` ` ` ` ` ' ` ' W Y Y U Q U U Q U 7 3 3 3 3 3                   ",
"                    3 3 3 i H G /  .}  . .} }  . .+.X.X.O.o.~ ! ! ! k h g 4 3 3 3                 ",
"                  3 < y 1 L  . .} } } } } } } } } } } }  .+.~ ~ ~ ! ! ! ! s 4 3 3 3               ",
"              3 3 3 G ' ' { } } } } } } } } } } } } } } } } { } O.! ! ! ! Q g 3 3 3 3             ",
"              3 < F /  .} } } } } } } } } } } } } } } } } } } } ..X.~ ! ! ! U g 6 3 3 3           ",
"            , , e {  .} } } } } } } [ } } } } } } } } } } }  .}  .} E R ! ! ! Q s 4 , , 3         ",
"            , , u '  .} } } } } } } } } } } } } } } } } } } } }  .} } O.! ! ! ! Q g , 5 3         ",
"          3 3 g K {  .} } } } } } } } } } } } } } } } } } } } } } } } ..O.~ ! ! ! I h 4 3 3       ",
"        3 3 3 H  . . .} } } } }  .} } } } } } } } } } } } } } } } } }  .{ o.~ ! ! ! Q 7 3 3       ",
"        3 3 3 H  . .} } } } } } } } } } } } } } } } } } }  .} } }  .} } } { O.! ! ! Q 6 3 3       ",
"        3 3 3 H  . . . . .} } } } } } } } } } } } } } } } } } } } } } } } } O.W ! ! Y 6 3 3       ",
"        3 , - w ^ ^ ^ ^ D ) } } } } } } } } } }  .} } } } } } } } } } } } } +.R W ! Q s 6 ,       ",
"      3 3 ; . X X X X X X C  .} } } } } } } } } } } } } } } } } } } } } } }  .{ E ! ! ! g 2 3     ",
"      @ = 5 @.#.#.#.#.b . % q {  . .} } } } }  .} } } [ } } } } } } } } } }  .{ R ! ! ! j 3 3 3   ",
"      . 2 B 1.3.3.<.<.-.> + $ _ } } } } } } } } } } } } } } } } } } } } } } } ..R ! ! ! h 3 3 3   ",
"      . $.r.r.t.w.<.,.:.;.z $ { } } } } } } } } } } } } } } } } } } } } }  .} } R ! ! ! h 3 3 3   ",
"    = %.4.t.t.t.r.7.6.<.,.&.n 0 D  .} } } } } } } } } } } } } } } } } } } } } } R ! ! ! h 3 3 3   ",
"  - v 0.i.i.t.t.t.t.7.<.,.<.*.: a ( { } } } } } } } } }  .} } } } } } } } } } ..R ! ! ! h 3 3 3   ",
". V r.t.d.g.y.t.t.t.r.w.<.,.:.;.x & ]  .} } } } } } } } } } } } } } } } } } } } R ! ! ! h 3 3 3   ",
". $.u.d.h.j.f.a.t.t.t.w.<.,.,.,.x % {  .} } } } } } } } } } } } } } } } } } } } R ! ! ! h 3 3 3   ",
". $.u.f.h.j.g.a.t.p.u.w.<.,.,.<.z % _  .} } } } } } } } } } } } } } } } } } } } R ! ! ! j 3 3 3   ",
". $.t.y.d.h.u.t.u.h.s.w.<.,.,.,.z % {  .} } } } } } } } } } } } } } } } } } } { R ! ! ! j 3 3 3   ",
". $.y.t.u.a.t.t.y.p.u.w.<.,.,.:.z % {  .} } } } } } } } } } } } } } } } } } } } R ! ! ! h 3 3 3   ",
". $.t.t.t.t.p.u.t.t.t.w.<.<.,.,.l % { [ } } } } } } } } } } } }  .} } } } } } } R ! ! ! h 3 3 3   ",
". $.y.t.t.u.g.a.t.t.y.w.<.,.,.:.l % {  .[ } } } } } } } } } } } } } } } } }  ...E ! ! ! h 3 3 3   ",
". $.y.t.t.t.a.u.t.t.t.e.<.,.,.,.l % {  . .} } } } } } } } } } } } } } } } } } { R ! ! ! h 3 3 3   ",
". $.y.t.t.t.t.t.t.t.e.7.<.,.,.,.l % { } } } } } } } } }  .} } } } } } } } } } } R ! ! ! h 3 3 3   ",
". $.t.t.t.t.t.t.t.t.6.,.,.,.,.;.l % { } } } } } } } }  .} } } }  .} } } } } } } R ! ! ! h 3 3 3   ",
"  2 N q.y.t.t.y.e.6.<.<.,.<.-.l a D [ } } } } } } } } } } } } } } } } } } }  ...R ! ! ! h 3 3 3   ",
"    # =.5.w.8.8.7.<.,.:.,.*.M 9 S  .}  .} } } } } } } } } } } } }  .} } } } } { R ! ! ! j , 3 3   ",
"      . m :.:.:.:.:.;.;.:.c % _ } } }  .} } } } } } } } } } } } }  .} } } } } { R ! ! ! h 3 3 3   ",
"      . # > : : : : : l : a D } } } } } } } } } } } } } } } } } } } } } } } } { R ! ! ! h 3 3 3   ",
"      o o O 9 8 8 8 8 8 8 S  .} } } } } } } } } } } } } } } } } } } } } } } } } R ! ! ! h 3 3 3   ",
"      3 2 e ` [ [ ] [ [ } } } } } } } } } } } } } } } } } } } } } } } } } } } } R ! ! ! h 3 3 3   ",
"      3 3 y ` [ ] | [ } } } } } } } }  .} } } } } } } } } } } } } } } } } } } } R ! ! ! h 3 3 3   ",
"      3 > e _ [ | [ } } } } } } } } } } } } } } } } } } } } } } } } } } } } } ..R ! ! ! j 3 3 3   ",
"      3 - s _ [ ] [ [ } } } } } } }  .} } } } } } } } } } } } } } } } } }  .{ } R ! ! ! h 2 3     ",
"      3 3 y '  .[ } } } } } } } } } } } } } [ } } } } } } } } [ } } } } } } +.R ~ ! ! ! h 3       ",
"      3 3 y '  .[ [ } } } } } } } } } } } } } } } } } } } } } } } } } } }  .O.! ! ! ! P d 3       ",
"      3 , u ` ] ] | [ } } } } } } } } } } } } } } } } }  . .} } } } } } } } O.! ! ! Y 6 3 3       ",
"        , , e L | [ } } } } } } } } } } } } } } } } } }  .} } } } } }  .} o.~ ! ! ! Y 7 3 3       ",
"        , 3 2 H | | [ } } } } } } } } } } } } } } } } } } } } } } }  .{ O.~ ! ! ! ! Q 6 , ,       ",
"        3 3 , G ] ] [ [ } } } [ } } }  .} } } } } } } } } } } }  .{ { O.! ! ! ! ! ! U 7 ,         ",
"        , , , 1 p ] | | | | | [ [ ] [ [ [ [  .} } } } } }  .} } +.R R ~ ! ! ! ! ! k 7 5 3         ",
"          , , > < H A Z Z J A [ [ [ [ [ [ [ [ } } } } } } } } } ..o.o.o.! ! ! ! ! j , , 3         ",
"            4 3 3 3 3 3 4 3 t {  .} } } } } } } } [ } } } } } } } }  .O.! ! ! ! ! h 3 3 3         ",
"              3 3 3 3 6 P I T } } } } } } } } } } } } }  .} } } } }  .O.! ! ! Q d 6 3             ",
"                3 3 3 6 Q E X.} } } } } } } } } } } } } } } } } } } } O.! ! ! Q 6 3 3             ",
"                  3 3 s Q +.} } } } } } } } } } } } } } } } } } } } } X.! ! ! Q 7 3 3             ",
"                  3 2 u ' } } } } } } } } } } } } } } } } } } } } }  .+.! ! ~ Q 7 3               ",
"                  3 3 7 H / } } } } } } } } } } }  .} } } } } } } }  .O.! ! I h 4 3               ",
"                    3 3 2 J } } } } } } } } } } } } } } } } } } } } { O.! ! j 3 3 3               ",
"                        3 K  .} } } } }  .} } } } } } } } } } } } } o.~ ! ~ j 3 3 3               ",
"                        3 K  .} } } } } } } } } } } } } } } } } } } E ! W k s , 3                 ",
"                        3 H ' } } } } } } } } } } } } } } } } } } ..~ ! Q 7 , ,                   ",
"                        3 < i { } } } } } } } } } } } } } } } } +.~ W ! Q 7 5                     ",
"                          , u {  .} } } } } } } }  .} } } { X.X.o.! ~ U h 4 3                     ",
"                          2 u ` ` _ } } } } } } } } } { { O.! ! ! ! Q h 3 3 3                     ",
"                              < 7 i } }  . . . . . ...R R R ! ~ ! ! s 4 3                         ",
"                                2 e F F F F F F F F F g g g h h g g 7 2                           ",
"                                    3 2 3 3 2 2 3 2 2 2 , 2 2 3 3 >                               "
};
