/* XPM */
static char *player_left_21675266208[] = {
/* columns rows colors chars-per-pixel */
"51 64 152 2 ",
"   c None",
".  c #000000",
"X  c #0D0101",
"o  c #05060C",
"O  c #09090E",
"+  c #1B0100",
"@  c #11080B",
"#  c #0C0B12",
"$  c #090C19",
"%  c #0C1118",
"&  c #240403",
"*  c #2B0302",
"=  c #171E2B",
"-  c #1B1C2D",
";  c #171522",
":  c #1E1F34",
">  c #151E3D",
",  c #181E3D",
"<  c #211F33",
"1  c #2C1F32",
"2  c #321F32",
"3  c #3B1F31",
"4  c #1F2034",
"5  c #222034",
"6  c #2B2134",
"7  c #24233C",
"8  c #332234",
"9  c #3C2334",
"0  c #430605",
"q  c #480403",
"w  c #410E16",
"e  c #500F16",
"r  c #6E0C0C",
"t  c #7F0D0D",
"y  c #6E171F",
"u  c #441E2F",
"i  c #4A1F2F",
"p  c #571E2D",
"a  c #5C1D2B",
"s  c #411F30",
"d  c #601827",
"f  c #631521",
"g  c #711D2A",
"h  c #7C1D28",
"j  c #462533",
"k  c #4A2533",
"l  c #512633",
"z  c #592733",
"x  c #5E2833",
"c  c #7A232C",
"v  c #652933",
"b  c #6A2933",
"n  c #732B33",
"m  c #7A2C33",
"M  c #172247",
"N  c #1C2245",
"B  c #1D2955",
"V  c #2A374F",
"C  c #2C356C",
"Z  c #2C3770",
"A  c #2E3870",
"S  c #323D7C",
"D  c #3C3E7D",
"F  c #32425F",
"G  c #3D4670",
"H  c #41567B",
"J  c #42587F",
"K  c #9A0F0D",
"L  c #9C100F",
"P  c #A3100F",
"I  c #B41312",
"U  c #BE1B1F",
"Y  c #B81518",
"T  c #861D27",
"R  c #8C1C26",
"E  c #981C24",
"W  c #AD1B21",
"Q  c #A21C23",
"!  c #B81B20",
"~  c #B21B21",
"^  c #86252C",
"/  c #8C2E32",
"(  c #842D33",
")  c #932F32",
"_  c #9C3032",
"`  c #A82D2F",
"'  c #B52E2E",
"]  c #BC2C2C",
"[  c #BA2527",
"{  c #A92E30",
"}  c #A43132",
"|  c #AC3232",
" . c #B13131",
".. c #C11414",
"X. c #CB1517",
"o. c #C41418",
"O. c #C41A1F",
"+. c #CB1A1E",
"@. c #D11616",
"#. c #DC1717",
"$. c #D61A1C",
"%. c #DC1C1D",
"&. c #E41616",
"*. c #ED1414",
"=. c #EF1817",
"-. c #E51B1B",
";. c #ED1919",
":. c #F11919",
">. c #F11413",
",. c #CD2626",
"<. c #C32929",
"1. c #D32323",
"2. c #DA2020",
"3. c #37438A",
"4. c #40458C",
"5. c #4D6693",
"6. c #4A5AB9",
"7. c #5672A3",
"8. c #4E5FC2",
"9. c #5465CF",
"0. c #5466D1",
"q. c #596CDC",
"w. c #6076DA",
"e. c #5B6EE1",
"r. c #5D71E4",
"t. c #6076E5",
"y. c #657DEB",
"u. c #637AE6",
"i. c #6D8FD7",
"p. c #6D92D1",
"a. c #6883EA",
"s. c #6B88EC",
"d. c #7190F0",
"f. c #7698F4",
"g. c #7A9EF7",
"h. c #7A9FF8",
"j. c #7CA5EC",
"k. c #7FA7FA",
"l. c #82ACFB",
"z. c #86B2FF",
"x. c #8AB5FF",
"c. c #8EB8FF",
"v. c #93B9FF",
"b. c #9ABEFE",
"n. c #9DC0FE",
"m. c #A4C4FE",
"M. c #A9C6FE",
"N. c #AECAFD",
"B. c #B6CFFD",
"V. c #BED4FD",
"C. c #C2D6FC",
"Z. c #C9DAFC",
/* pixels */
"                                  < 6 5 5 5 6 : 5 5 5 5 5 5 5 5 5 5 5 5                               ",
"                            5   < < : 4 5 5 5 5 4 5 5 5 4 6 5 5 5 5 5 5 5                             ",
"                          5 5 5 1 3 s 3 3 3 s 3 3 9 8 8 8 8 8 8 8 8 6 5 6 5                           ",
"                      5 5 5 5 4 h %.$.$.$.$.$.$.$.[ _ _ _ _ _ _ _ _ v : 4 5 5 5                       ",
"                    5 < 4 p R R ! :.:.;.;.;.;.;.:.-.,.,.1.,. .| | | / b b j 5 5 5                     ",
"                  5 2 s 3 E :.:.;.;.;.;.;.;.;.;.;.=.;.;.=.-.]  .' | | | | n 6 6 5 5                   ",
"                5 4 h %.$.-.:.=.;.;.;.;.;.;.;.;.;.;.;.;.;.;.-.;.-. .| | | } / 8 5 5 5                 ",
"              5 6 T U :.;.=.=.=.;.;.;.;.;.;.;.;.;.;.;.;.;.;.;.;.;.1.] | | | } m j 5 5 5               ",
"            5 5 3 $.:.;.;.;.;.;.;.;.;.;.;.;.;.;.;.;.;.;.;.;.;.;.;.;.1. .| | |  .m 8 < < 5             ",
"            5 5 3 $.;.;.;.;.;.;.;.;.;.;.;.;.;.;.;.;.;.;.;.;.;.;.;.;.;.-. .| | | } / 8 < 5             ",
"          5 5 p Q -.=.;.;.;.;.;.;.;.;.;.;.;.;.;.;.;.;.;.;.;.;.;.;.;.;.-.1.<.| | | } m k 5 5           ",
"        5 5 5 R :.=.;.;.;.;.;.;.;.;.;.;.;.;.;.;.;.;.;.;.;.;.;.;.;.;.;.;.;.1.' | | |  .b 5 5 5         ",
"        6 < 5 T =.=.=.:.;.;.;.;.;.;.;.;.;.;.;.;.;.;.;.;.;.;.;.;.;.;.;.;.;.;.-. .| | | b 4 < 6         ",
"          < 4 T :.:.:.:.;.;.;.;.;.;.;.;.;.;.;.;.;.;.;.;.;.;.;.;.;.;.;.;.;.;.-. .| | | v 5 5           ",
"        < < - y o.Y Y ..Y X.;.;.;.;.;.;.;.;.;.;.;.;.;.;.;.;.;.;.;.;.;.;.;.;.-.]  .| | n 8 7 <         ",
"      5 < - o X X X X X X K :.;.;.;.;.;.;.;.;.;.;.;.;.;.;.;.;.;.;.;.;.;.;.;.;.;.,.| | | ) 8 5 5       ",
"      # ; 7 S 3.3.3.3.S o & r #.=.;.;.;.;.;.;.;.;.;.;.;.;.;.;.;.;.;.;.;.;.;.;.;.,.| | | _ 8 5 5       ",
"      . - G w.a.a.r.r.9.N $ + @.=.;.;.;.;.;.;.;.;.;.;.;.;.;.;.;.;.;.;.;.;.;.;.;.,.| | | _ 8 5 5       ",
"      . H l.l.z.k.r.r.q.0.C + X.=.;.;.;.;.;.;.;.;.;.;.;.;.;.;.;.;.;.;.;.;.;.;.;.,.| | | _ 8 5 5       ",
"    % 5.p.z.z.z.z.g.a.r.r.6.D e P :.;.;.;.;.;.;.;.;.;.;.;.;.;.;.;.;.;.;.;.;.;.;.,.| | | _ 8 5 5       ",
"  = V j.v.v.z.z.z.z.f.r.r.r.9.M f o.;.;.;.;.;.;.;.;.;.;.;.;.;.;.;.;.;.;.;.;.;.;.,.| | | _ 8 4 5       ",
". H l.z.M.C.c.z.z.z.z.k.r.e.q.q.C & X.;.;.;.;.;.;.;.;.;.;.;.;.;.;.;.;.;.;.;.;.=.,.| | | _ 8 4 5       ",
". J c.N.C.Z.B.b.z.z.x.l.r.r.e.r.A + @.;.;.;.;.;.;.;.;.;.;.;.;.;.;.;.;.;.;.;.;.;.,.| | | _ 8 5 5       ",
". J c.B.C.Z.C.m.x.v.c.l.r.w.e.r.A + @.;.;.;.;.;.;.;.;.;.;.;.;.;.;.;.;.;.;.;.;.=.,.| | | _ 8 5 5       ",
". J x.z.M.C.v.z.x.V.M.k.u.e.e.r.Z + @.=.;.;.;.;.;.;.;.;.;.;.;.;.;.;.;.;.;.;.;.;.,.| | | _ 8 5 5       ",
". J x.z.c.b.x.z.x.b.v.l.r.e.e.r.Z + @.=.;.;.;.;.;.;.;.;.;.;.;.;.;.;.;.;.;.;.;.;.,.| | | _ 8 5 5       ",
". 5.x.z.z.x.b.c.z.z.z.l.u.e.e.r.Z + @.=.;.;.;.;.;.;.;.;.;.;.;.;.=.;.;.;.;.;.;.;.,.| | | _ 8 4 5       ",
". G x.z.z.c.V.M.l.z.z.l.r.e.e.r.Z + @.;.;.;.;.;.;.;.;.;.;.;.;.;.;.;.;.;.;.;.;.;.,.| | | _ 8 5 5       ",
". J x.z.z.x.v.c.z.z.x.k.r.r.e.r.Z + @.;.;.;.;.;.;.;.;.;.;.;.;.;.;.;.;.;.;.;.;.;.,.} | | _ 8 4 6       ",
". J x.z.z.z.z.z.z.z.k.f.r.e.e.r.Z + @.=.;.;.;.=.;.;.;.;.;.;.;.;.;.;.;.;.;.;.;.;.,.| | | _ 8 4 5       ",
". J x.z.z.z.z.z.z.x.d.r.r.e.e.e.Z + @.:.;.;.;.;.;.;.;.;.;.;.;.;.;.;.;.;.;.;.;.;.,.| | | _ 8 5 5       ",
"  4 F j.z.z.z.x.l.s.r.r.e.r.9.B a I &.=.;.;.;.;.;.;.;.;.;.;.;.;.;.;.;.;.;.;.;.:.,.| | | _ 8 5 5       ",
"    % 7.i.h.g.h.f.e.e.e.e.8.4.w K :.;.;.;.;.;.;.;.;.;.;.;.;.;.;.=.;.;.;.;.;.;.2.<.| | | _ 8 5 5       ",
"      . A e.q.e.q.q.q.q.e.Z & @.;.;.;.;.;.;.;.;.;.;.;.;.;.;.;.;.;.;.;.;.;.;.-. .| | | | _ 8 5 5       ",
"      . $ , , , > > > > > a I &.;.;.;.;.;.;.;.;.;.;.;.;.;.;.;.;.;.;.;.;.;.;.-.' | | | | _ 8 4 5       ",
"      # # @ * q q q q q q L :.;.;.;.;.;.;.;.;.;.;.;.;.;.;.;.;.;.;.;.;.;.;.;.;. .| | | | _ 8 5 5       ",
"      6 : 3 $.*.*.*.*.*.;.;.;.;.;.;.;.;.;.;.;.;.;.;.;.;.;.;.;.;.;.;.;.;.;.;.-. .} | | | _ 8 5 5       ",
"      5 < 3 $.=.*.*.*.*.;.;.;.;.;.;.;.;.;.;.;.;.;.;.;.;.;.;.;.;.;.;.;.;.;.;.;.' | | | | _ 8 5 5       ",
"      5 < 3 @.*.*.*.*.;.;.;.;.=.;.;.;.;.;.;.;.;.;.;.;.;.;.;.;.;.;.;.;.;.;.-.,. .| | | | _ 8 5 5       ",
"      5 < 3 $.*.*.*.;.;.;.;.;.-.=.;.;.;.;.;.;.;.;.;.;.;.;.;.;.;.;.;.;.;.;.,.| | | | | | _ 8 5 5       ",
"      5 5 3 $.=.;.=.;.;.;.;.=.=.;.;.;.;.;.;.;.;.;.;.;.;.;.;.;.;.;.;.;.;.;.,.| | | | | | _ 8 5 5       ",
"      5 5 3 $.=.*.*.*.;.;.+.W -.;.;.;.;.;.;.;.;.;.;.;.;.;.;.;.;.;.;.;.;.2.<.| | | | | | _ 8 5 5       ",
"      5 4 3 +.&.*.*.;.-.-.T s %.;.;.;.;.;.;.;.;.;.;.;.;.;.;.;.;.;.;.;.-.' | | | | | | | ) 8 5 5       ",
"        4 6 i ^ ] ] ^ i i T +.-.;.;.;.;.;.;.;.;.;.;.;.;.;.;.;.;.;.;.;.-.' | | | | | | m 9 6 5 5       ",
"          5 4 k m m k < d W :.;.;.;.;.;.;.;.;.;.;.;.;.;.;.;.;.;.;.:.-.,. .| | | | | | v 5 5 5 5       ",
"        5 5 5 5 < 1 1 s $.:.;.*.;.;.;.;.;.;.;.;.;.;.;.;.;.;.;.;.;.;.,.| | | | | | } } v 5 5 5 5       ",
"          4 4 4 1 Y o.o.*.*.*.*.*.*.*.*.*.*.;.;.;.;.;.;.;.;.;.;.-.<. .| | | | | | } k 6 4 5 5         ",
"        p g g g T &.>.*.*.*.*.*.*.*.*.*.*.*.*.;.=.;.;.;.;.;.=.2.,. .| | | | } m m b 6 9 l 6           ",
"  5 6 6 R :.:.;.;.;.;.;.;.;.;.;.;.;.;.;.;.;.;.;.;.;.;.;.;.;.;.,.| | | | | | _ 8 5 5 6 b _ 8 5         ",
"5 5 2 W %.;.=.;.;.;.;.;.;.;.;.;.;.;.;.;.;.;.;.;.;.;.;.=.1.' '  .| | | | |  ._ 8 : 6 ( } _ 6           ",
"< i T -.;.;.;.;.;.;.;.;.;.;.;.;.;.;.;.;.=.;.;.;.;.;.;.1.] | | | | | | } m n b x z v } | } c a         ",
": T ;.;.;.;.;.;.;.;.;.;.;.;.;.;.;.;.;.;.;.;.;.;.;.;.2. .| | | | | } } ) 8 5 8 _ | | |  .' =.R 1       ",
"< T :.;.;.;.;.;.;.;.;.;.;.;.;.;.;.;.;.;.;.;.;.;.]  .' | | | | | _ k 9 8 6 4 6 _ | | | ,.-.;.%.! 3     ",
"5 T ;.;.;.;.;.;.;.;.;.;.;.;.;.;.;.=.;.;.;.1.1.,. .| | | | } m n v 6 4 5 4 j v } | | | ,.=.;.;.%.3 4   ",
"4 T :.=.;.;.;.;.;.;.;.;.;.;.;.;.=.-.-.;.2. .| | | | | | | ) 8 5 5 5 5 5 6 b | | | | | ,.:.;.;.$.3     ",
"4 T :.=.;.;.;.;.;.;.;.;.;.;.=.;.1.' ' ' '  .| | |  .|  .n 8 5 5 5 5 5 8 ( } | | | | | ,.;.;.;.$.3     ",
": c 2.-.;.;.;.;.;.;.;.;.;.2.1.,.<.| | | | | | | | / b n j 5 5 5 5 5 4 8 _ | | | | | | ,.:.;.;.$.3     ",
": v { 2.;.-.-.;.-.;.-.;.-.,.| | | | | | | | } _ } x 5 5 5 5 5 5 5 5 6 9 _ | | | | | | <.-.;.-.O.3     ",
"< 6 j {  .' ' ' ' ' '  .'  .| | | | | | |  .n 8 8 6 5 5 5 5 6 4 5 5 x _ | | | | | | |  .' ' m 3 5 5   ",
"5 < 6 v / | | | | | | | { | | | | | | / v b j 5 5 5 5 5 5 5 5 5 5 5 v  .| | | | | | | | | | b : 5     ",
"    5 4 v _ _ _ _ _ } | | } _ _ _ _ } x 4 4 5 5 5 5 5 5 5 5 7 5 5 4 b | | | | | | | | } _ _ x 5       ",
"        8 8 8 8 8 8 n  . .n 8 8 8 8 8 6 5 6 5 5 6 4 5         5 5 4 b | | | |  .| |  .n 8 8 6 5       ",
"          5 5 5 5 4 j v b j 5 5 5 4 5 5 5 5 5 5 5 5             5   l b b b b b b v b j 5 5 5         ",
"                  5 5 5 : 5 5                                         4 4 4 5 4 4 5 4 5 5             "
};
