/* XPM */
static char *player_down_21675266208[] = {
/* columns rows colors chars-per-pixel */
"52 64 145 2 ",
"   c None",
".  c #0F0101",
"X  c #130101",
"o  c #1C0302",
"O  c #0D142A",
"+  c #141429",
"@  c #19162E",
"#  c #151831",
"$  c #151E3D",
"%  c #1D1D3B",
"&  c #2A1F33",
"*  c #201E3E",
"=  c #331F32",
"-  c #3D1F30",
";  c #1F2034",
":  c #212034",
">  c #2C2133",
",  c #352234",
"<  c #3B2334",
"1  c #460604",
"2  c #480604",
"3  c #510705",
"4  c #5E0A0A",
"5  c #4E131F",
"6  c #600907",
"7  c #610908",
"8  c #401321",
"9  c #451F2F",
"0  c #4E1C2D",
"q  c #521422",
"w  c #51192C",
"e  c #5D1E2C",
"r  c #411F30",
"t  c #611E2C",
"y  c #691E2B",
"u  c #7A1D28",
"i  c #472533",
"p  c #4D2633",
"a  c #522633",
"s  c #592733",
"d  c #6E232E",
"f  c #75242E",
"g  c #652732",
"h  c #672933",
"j  c #6C2A33",
"k  c #712A33",
"l  c #7F2D33",
"z  c #1C2954",
"x  c #212F61",
"c  c #363E7E",
"v  c #432E59",
"b  c #403162",
"n  c #8A0D0C",
"m  c #960E0C",
"M  c #8C141B",
"N  c #971419",
"B  c #981419",
"V  c #AE1211",
"C  c #B11212",
"Z  c #BE1414",
"A  c #B1151B",
"S  c #BF1419",
"D  c #B7191F",
"F  c #B8191E",
"G  c #861D27",
"H  c #8B1C26",
"J  c #921C25",
"K  c #9E1C23",
"L  c #A31C23",
"P  c #A91B22",
"I  c #822D33",
"U  c #8D2E32",
"Y  c #932F32",
"T  c #9E3032",
"R  c #AE2A2C",
"E  c #BB2224",
"W  c #BB2728",
"Q  c #B42F2F",
"!  c #B92C2C",
"~  c #A33132",
"^  c #AC3232",
"/  c #B23131",
"(  c #C60E0E",
")  c #C80E0E",
"_  c #C11414",
"`  c #CE1515",
"'  c #C71418",
"]  c #C61A1E",
"[  c #CB1A1E",
"{  c #D11615",
"}  c #D31D1E",
"|  c #D91A1C",
" . c #E51414",
".. c #ED1212",
"X. c #E41A1A",
"o. c #ED1919",
"O. c #F21313",
"+. c #F01817",
"@. c #F01919",
"#. c #C32526",
"$. c #CE2424",
"%. c #C32929",
"&. c #D22222",
"*. c #DB2020",
"=. c #344184",
"-. c #3A4084",
";. c #364289",
":. c #394388",
">. c #3F4FA1",
",. c #404995",
"<. c #404FA3",
"1. c #4151A6",
"2. c #4656B0",
"3. c #4D5EC2",
"4. c #5363CB",
"5. c #5567D2",
"6. c #596BDB",
"7. c #5B6EE1",
"8. c #5D70E5",
"9. c #6177E6",
"0. c #647BE7",
"q. c #6075EA",
"w. c #657EEB",
"e. c #6781E9",
"r. c #6882EA",
"t. c #6E8BEE",
"y. c #7597F3",
"u. c #7598F3",
"i. c #7A9EF7",
"p. c #7AA0F7",
"a. c #7CA3F9",
"s. c #84AEFD",
"d. c #86B2FF",
"f. c #8BB5FF",
"g. c #95BBFE",
"h. c #9ABEFE",
"j. c #9DC0FE",
"k. c #A2C3FE",
"l. c #A9C7FE",
"z. c #AECAFD",
"x. c #B1CCFD",
"c. c #BBD2FD",
"v. c #C2D6FC",
"b. c #C7D8FC",
"n. c #CADBFC",
/* pixels */
"                          : : : : : : : : : : : : : : : : : : : : : : : : : : :                         ",
"                          : : : ; ; ; : ; : ; ; ; : : : : ; : : : : ; ; : : : : :                       ",
"                        : = - - - - - < - - - - - , , , , , , , , , , , , , > : : :                     ",
"                    : : : H | | | | | *.| | | | | R T T T T T T T T T T T ~ j : : : :                   ",
"                    % = G [ @.o.@.o.o.@.o.o.@.o.o.&.&.$.$.$.$.$.%./ ^ ^ ^ ^ Y h , ; : :                 ",
"                  : = t X.@.o.o.o.o.o.o.o.o.o.o.o.o.@.o.o.o.o.@.*.Q Q / ^ ^ ^ ~ p > : : :               ",
"              : : ; H X.o.o.o.o.o.o.o.o.o.o.o.o.o.o.o.o.o.o.o.o.o.o.o.$.^ ^ ^ ^ ~ j ; : : :             ",
"              : , H [ o.o.o.o.o.o.o.o.o.o.o.o.o.o.o.o.o.o.o.o.o.o.o.@.*.$./ ^ ^ ^ Y j k p : :           ",
"            : : 9 X.@.o.o.o.o.o.o.o.o.o.o.o.o.o.o.o.o.o.o.o.o.o.o.o.o.o.o.%./ ^ ^ ^ ^ / k : : :         ",
"          : : ; 9 | o.o.o.o.o.o.o.o.o.o.o.o.o.o.o.o.o.o.o.o.o.o.o.o.o.o.o.o.$.^ ^ ^ ^ ^ k : : : :       ",
"      : : = H J L X.o.o.o.o.o.o.o.o.o.o.o.o.o.o.o.o.o.o.o.o.o.o.o.o.o.o.o.o.*.$./ ^ ^ ^ Y k k p : :     ",
"      : : r X.@.@.o.o.o.o.o.o.o.o.o.o.o.o.o.o.o.o.o.o.o.o.o.o.o.o.o.o.o.o.@.@.o.%./ ^ ^ ^ ^ ^ j : : :   ",
"      : : - | @.o.o.o.o.o.o.o.o.o.o.o.o.o.o.o.o.o.o.o.o.o.o.o.o.o.o.o.o.o.o.o.o.o.$.^ ^ ^ ^ / j : : :   ",
"    : : t P X.o.o.o.o.o.o.o.o.o.o.@.@.@.o.@.@.@.@.@.@.@.@.@.@.o.@.o.@.@.@.o.o.o.o.&.^ ^ ^ ^ ^ j : : :   ",
"  : : : J @.o.o.o.o.o.o.o.o.o.o.` Z _ _ _ _ _ Z _ _ _ _ _ Z _ Z ] Z Z Z _ X.o.o.o.&.Q / ^ ^ ^ j : : :   ",
"  : : : J @.o.o.o.o.o.o.o.o.o.o.4 . . . . . . . . . . . . . . X . . . . o _ @.o.o.o.X.Q ^ ^ ^ j : : :   ",
": : : ; H @.o.o.o.o.o.o.o.+.{ 6 v ;.;.;.;.;.;.;.;.;.;.;.;.;.;.;.;.;.;.;.-.q m o.o.o.o.Q ^ ^ ^ j : : : : ",
": : > r L @.o.o.o.o.o.o.o.{ B @ <.q.w.w.w.w.w.w.w.w.w.e.w.w.w.w.w.w.e.0.6.z q _ X.o.X.%.Q ^ / j : : : : ",
": : - [ o.o...o.o.o.o.+.o.7 @ 4.6.w.s.s.s.s.s.s.s.s.s.d.s.s.s.s.s.s.d.u.7.6.-.o ' o.o.o.$.^ ^ j ; : : : ",
": : - | o.o.....o.+.+.{ 7 v <.6.t.i.s.k.l.f.d.d.d.d.d.d.d.d.d.d.d.d.d.a.u.9.3.-.q m @.o.$.^ ^ Y j , : : ",
"; % - | o.o.....o.o.{ B # ,.q.0.i.f.g.c.v.g.f.d.d.d.d.d.d.d.d.d.d.d.d.d.d.t.8.6.z q Z  .$.^ ^ ^ ~ , : : ",
": & - | o.o.....o.o.7 @ 4.6.0.s.d.g.b.n.n.b.h.d.d.d.d.d.d.d.d.d.d.d.d.d.d.d.u.6.6.c o ) } ^ ^ ^ T , : : ",
": ; - | +.o.......o.7 O 5.7.0.d.d.f.h.c.b.k.f.d.d.d.d.d.d.d.d.d.d.d.d.d.d.d.u.8.8.=.X ( &.^ ^ ^ T , : : ",
": : - | o.........o.4 + 5.7.0.s.g.g.d.l.z.d.d.d.d.d.d.f.d.d.d.d.d.d.d.d.d.d.u.7.8.=.X ( } ^ ^ ^ T , : : ",
": ; - | o.o.......o.6 O 5.7.w.s.z.c.f.d.d.d.d.d.d.d.d.d.d.d.d.d.d.d.d.d.d.d.u.8.8.=.X ( &.^ ^ ^ T , : : ",
": : - | o.o.......+.6 O 5.7.0.s.g.g.d.d.d.d.d.d.d.d.d.d.d.d.d.d.d.d.d.d.d.f.u.6.8.=.X ( &.^ ^ ^ T , : : ",
": ; - | +.o.......+.6 O 5.7.0.d.d.f.g.f.d.d.d.d.d.d.d.d.d.d.d.d.d.d.d.d.d.d.u.8.8.=.X ( &.^ ^ ^ ~ , : : ",
": ; - | o.........o.6 O 5.7.0.s.d.g.b.j.d.d.d.d.d.d.d.d.d.d.d.d.d.d.d.d.d.d.u.7.7.=.X ( &.^ ^ ^ T , : : ",
": : - | o.o.......o.6 O 4.7.8.r.p.f.h.f.d.d.d.d.d.d.d.d.d.d.d.d.d.d.d.d.d.t.0.8.8.=.X ( &.^ ^ ^ T , : : ",
": : - | o.o.......+.6 O 5.7.7.7.t.a.d.d.d.d.d.d.d.d.d.d.d.d.d.d.d.d.d.s.i.8.7.7.8.=.X ( &.^ ^ ^ T , : : ",
": ; - | o.o.......o.7 + 4.8.7.7.8.e.s.d.d.d.d.d.d.d.d.d.d.d.d.d.d.d.d.u.7.7.7.7.7.c X ( &.^ ^ ^ T , : : ",
": : - | o.o...o.o.o.' M * 1.8.7.8.8.e.e.e.e.e.e.r.r.e.r.e.r.e.e.e.e.e.e.7.7.7.6.x w V  .&.^ ^ ^ T , : : ",
"% % - | o.o.o.o.o.o.@.` 3 b 2.6.7.7.7.7.7.7.7.7.7.7.7.7.7.7.7.7.7.7.7.7.7.8.4.>.8 n +.+.&.^ ^ ^ T , : : ",
": & - | o.o.o.o.o.o.o.o.o.7 # 4.6.6.6.6.6.6.6.6.6.6.6.6.6.6.6.6.6.6.6.6.6.6.-.X Z o.o.o.&.^ ^ ^ T , : : ",
": : - | +.o.o.o.o.o.o.o.o.' H % $ $ $ $ $ $ $ $ $ $ $ $ $ $ ; $ ; $ $ $ $ $ 0 C  .o.o.o.&.^ ^ ^ T , : : ",
": ; - | o.o.o...o.o.o.o.o.o.' 3 1 2 1 2 1 1 1 1 1 1 1 1 1 1 2 2 1 1 1 1 1 1 n +.o.o.o...$.^ ^ ^ T , : : ",
": : - | +.o.......o.o.o.o.o.o.o.o.o.X.o.o.X.o.o.o.X.o.o.o.o.o.X.X.o.o.X.o.o.o.o.o.......&.^ ^ ^ T , : : ",
": : - | o.o.......o.o.o.o.o.o.o.o.o.o.o.o.o.o.o.o.o.o.o.o.o.o.o.o.o.o.o.o.o.o.o.o.+.....&.^ ^ ^ ~ , : : ",
": ; - | o.o.......o.o.o.o.o.o.o.o.o.o.o.o.o.o.o.o.o.o.o.o.o.o.o.o.o.o.o.o.o.o.o.o.......[ ^ ^ ^ T , : : ",
": ; - | o.........o.o.o.o.o.o.o.o.o.o.o.o.o.o.o.o.o.o.o.o.o.o.o.o.o.o.o.o.o.o.o.o.......&.^ ^ ^ T , : : ",
": : - | o.+.........o.o.o.o.o.o.o.o.o.o.o.o.o.o.o.o.o.o.o.o.o.o.o.o.o.o.o.o.o.o.o.o.o.o.&.^ ^ ^ T , : : ",
": ; - | o.o.......o.o.o.o.o.o.o.o.o.o.o.o.o.o.o.o.o.o.o.o.o.o.o.o.o.o.o.o.o.o.o.o.o.o...$.^ ^ ^ T , : : ",
": : - | +.........o.o.o.o.o.o.o.o.o.o.o.o.o.o.o.o.o.o.o.o.o.o.o.o.o.o.o.o.o.o.o.o.O.....[ ^ ^ ^ T , : : ",
": : - | o. .......o.o.o.o.o.o.o.o.o.o.o.o.o.o.o.o.o.o.o.o.o.o.o.o.o.o.o.o.o.o.o.o.......&.^ ^ ^ T , : : ",
": : - | @.o.......o.o.o.o.o.o.o.o.o.o.o.o.o.o.o.o.o.o.o.o.o.o.o.o.o.o.o.o.o.o.o.o.......{ R ^ ^ T , : : ",
": : - | o.o.......o.o.o.o.o.o.o.o.o.o.o.o.o.o.o.o.o.o.o.o.o.o.o.o.o.o.o.o.o.o.o.o.......} ^ ^ ^ T , : : ",
": : - | o.o.......o.o.o.o.o.o.o.o.o.o.o.o.o.o.o.@.@.@.@.@.o.............................&.^ ^ ^ ~ , : : ",
": ; - | o.........o.o.o.o.o.o.....+.+...+.+.*.#.L K K K K F o...........................} ^ ^ ^ T , : : ",
": : - | o.o.......o.o.o.o.o............... .W I : : : : ; e | ..........................} ^ ^ ^ T , : : ",
": : - | +.........o.o.o.o.o.o........... .W g , : : : : : , w ] ........................$.^ ^ ^ T , : : ",
": ; - | o.o.......o.o.o.o.o.........O.| E k < : : : : : : : : u C O.....................} ^ ^ ^ T , : : ",
": ; - | o.o.......o.o.o.o.o.o.........W l : : : :       : : : ; t  ................... .$.^ ^ ^ T , : : ",
": : - | o.o.o.o.o.o.o.o.o.o.o..... .! g , : : :         : : : : & w ' ................F / ^ ^ ^ T , : : ",
": : - | o.o.o.o.o.o.o.o.o.o.....| #.^ p : : : :         : : : : @ & _ O...O.........} R ^ ^ ^ ^ ~ , : : ",
": ; - | o.o.o.o.o.o.o.o.o.o.o...#.^ ^ a : : : :         : : : : & & A  . . . . . .} ^ ^ ^ ^ ~ ~ Y , : : ",
": : - | o.o.o.o.o.o.o.o.o.o...O.%.^ ^ a : :             : : > : % & - y ! ! ! ! ! Q ^ ^ / ~ i < , : :   ",
": ; - | o.o.o.o.o.o.o.o.o.o.o.[ ! T k < : :               : : : ; : : < j j j j k j j k j h > : : :     ",
": : - | o.o.o.o.o.o.o. .o.o.*./ ^ U > ; : :                 : : : : : : : : : : : : : : : : : : :       ",
": : - | +.o...............$./ ^ / U > : :                         : : : : : : : : : : : : : : :         ",
": : - | +.o.............&.! ^ ^ I s : : :                         : : : : : : : : : : : : : :           ",
": : < ] X.o.+.........| ^ ^ ^ ^ a : : : :                                                               ",
"  : & = B +.+.+.+.+.$.Q ^ ^ / ^ a : :                                                                   ",
"    : ; d G H H H H f g h g h h p   :                                                                   ",
"        ; ; ; ; ; ; ; : : : : :                                                                         "
};
