/* XPM */
static char *player_right_stop1675266209[] = {
/* columns rows colors chars-per-pixel */
"49 64 137 2 ",
"   c None",
".  c #010101",
"X  c #0E0101",
"o  c #09090E",
"O  c #13080B",
"+  c #010810",
"@  c #0C0B12",
"#  c #0F131C",
"$  c #2F0504",
"%  c #350402",
"&  c #3D0503",
"*  c #0D0F20",
"=  c #171623",
"-  c #171E2B",
";  c #1C1B2C",
":  c #151D3C",
">  c #181E3E",
",  c #211F32",
"<  c #341F32",
"1  c #3C1F30",
"2  c #1F2034",
"3  c #212034",
"4  c #2C2134",
"5  c #24243F",
"6  c #342234",
"7  c #3A2334",
"8  c #480503",
"9  c #430809",
"0  c #550B0D",
"q  c #7C0D0D",
"w  c #7B161E",
"e  c #441F2F",
"r  c #4B1F2E",
"t  c #541F2E",
"y  c #411F30",
"u  c #481F30",
"i  c #651E2B",
"p  c #691B28",
"a  c #731622",
"s  c #4E2633",
"d  c #512633",
"f  c #7F202A",
"g  c #672933",
"h  c #6C2A33",
"j  c #732B33",
"k  c #7B2C33",
"l  c #1D274E",
"z  c #1D2750",
"x  c #23264C",
"c  c #242A56",
"v  c #2B3A53",
"b  c #2C366F",
"n  c #3F3870",
"m  c #313C78",
"M  c #403E7D",
"N  c #344462",
"B  c #3F4975",
"V  c #43587F",
"C  c #991010",
"Z  c #9E171E",
"A  c #AC171D",
"S  c #B31211",
"D  c #BB1313",
"F  c #871D27",
"G  c #8B1C26",
"H  c #951B24",
"J  c #9F1C23",
"K  c #A41C23",
"L  c #AD1B21",
"P  c #882E33",
"I  c #942F32",
"U  c #992F32",
"Y  c #9D3032",
"T  c #A92A2D",
"R  c #B62E2E",
"E  c #BA2D2D",
"W  c #A82F30",
"Q  c #A33132",
"!  c #AC3232",
"~  c #B23131",
"^  c #C11414",
"/  c #CC1A1D",
"(  c #C81514",
")  c #DC1717",
"_  c #DD1718",
"`  c #D61A1C",
"'  c #DB1B1C",
"]  c #E61213",
"[  c #ED1414",
"{  c #E41A1A",
"}  c #ED1919",
"|  c #F11211",
" . c #F11919",
".. c #DF201F",
"X. c #CF2525",
"o. c #C32929",
"O. c #D32323",
"+. c #D92121",
"@. c #353F81",
"#. c #37438A",
"$. c #445B82",
"%. c #4E6895",
"&. c #4656B0",
"*. c #4B5CBD",
"=. c #5774A6",
"-. c #4E5FC2",
";. c #5769D6",
":. c #596CDC",
">. c #6178DF",
",. c #5B6EE1",
"<. c #5E72E4",
"1. c #6076E4",
"2. c #6279E6",
"3. c #657DEA",
"4. c #6F94D5",
"5. c #6E90D9",
"6. c #6C88EC",
"7. c #7495F2",
"8. c #799DF6",
"9. c #7A9FF8",
"0. c #7DA6EE",
"q. c #7EA7F0",
"w. c #7DA4F9",
"e. c #7FA8FA",
"r. c #83ADFB",
"t. c #86B2FF",
"y. c #8AB5FF",
"u. c #8FB9FF",
"i. c #92BAFF",
"p. c #9ABEFE",
"a. c #9DC0FE",
"s. c #A2C3FE",
"d. c #ADC9FD",
"f. c #B6CFFD",
"g. c #BFD4FD",
"h. c #C2D6FC",
"j. c #C9DAFC",
/* pixels */
"                          3 3 3 3 3 3 3 3 3 3 3 3 3 3 3 , 3 3 3 3                                 ",
"                          3 3 3 3 , 3 3 3 3 , , 3 3 3 3 , , 3 3 3 3 3                             ",
"                        3 3 4 6 6 6 6 6 6 6 6 7 1 1 1 1 1 1 1 1 < 3 3 3                           ",
"                  3 3 3 3 3 7 I Q U Y Y Y Y Y T ` ` ` ` ` ` ' ' H 3 3 2 5 3 3                     ",
"                3 3 , 4 g h k ! ~ ! ! o.O.X.O.+. .}  .} }  .}  ./ G H i , , ,                     ",
"              3 3 3 4 s Q ~ ! ! ~ ~ R +.} } } } } } } } } } } } }  . .L 1 y < 3                   ",
"            3 3 3 3 h Q ! ! ! ! O.} { } } } } } } } } } } } } } } } } { ` ' G 3 3 3               ",
"          3 3 3 4 g I ! ! ! ~ X...} } } } } } } } } } } } } } } } } } }  . ./ F 7 3               ",
"        3 3 3 4 s Q ! ! ! ~ o.{ } [ } } } } } } } } } } } } } } } } } } } }  .{ u , ,             ",
"        3 3 3 g Q ! ! ! ! O.{ } } } } } } } } } } } } } } } } } } } } } } } } ' u > 3             ",
"      3 3 6 h I ~ ! ! ~ X.{  . .} } } } } } } } } } } } } } } } } }  .} } }  .{ L i 3 3           ",
"      3 3 6 Q ! ! ! ~ o.} } } } } } } }  .} } } } } } } } } } } } } } } } } } }  .H 3 3 3         ",
"      3 3 6 Q ! ! ! X.} } } } }  .} } } } } } } }  .} } } }  .} } } } } } } } }  .H 3 3 3         ",
"      3 3 6 Y ! ! ! O.} } } } } } } } } } } } } } } } } } } } } } } } }  . . . . .H 3 3 3         ",
"      3 6 s Q ~ ! ~ +.} } } } } } } } } } } } } } } } } } } } } } } } _ ^ ^ ^ ^ ( a ; 3 3         ",
"    3 3 g Q ! ! R { } } } } } } } } } } } } } } } } } } } } } } } }  .C X X X X X X . ; 3 3       ",
"  3 3 3 h ~ ! ! R } } } } } } } } } } } } } } } } } } } } } } } } { q % . b #.#.#.@.m 5 = @       ",
"  3 3 3 h ~ ! ! R { } } } } } } } } } } } } } } } } }  .} } } } } { $ + > -.<.<.3.6.2.B 2 .       ",
"  3 3 3 h ! ! ! E } } } } } } } } } } } } } } } } } } } } } } } } { % z ;.,.:.1.w.r.r.r.$..       ",
"  3 3 3 h ! ! ! ~ { } } } } } } } } } } } } } } } } } } } } }  .D 0 n &.,.,.3.8.r.t.t.t.4.%.#     ",
"  3 3 3 h ~ ! ! R } } } } } } } } } } } } } } } } } } } } } [ ( w : *.,.,.2.7.t.t.t.t.i.u.0.v -   ",
"  3 3 2 h ! ! ! R { } } } } } } } } } } } } } } } } } } } } { & x ;.,.,.<.w.r.t.t.t.y.h.d.t.t.V . ",
"  3 3 2 h ! ! ! R } } } } } } } } } } } } }  .} } [ } } }  .{ % z ,.,.,.<.w.t.r.t.p.f.j.h.d.u.$.. ",
"  3 3 5 h ! ! ! R } } } } } }  .} } } } } } } } } } } } } } { % z ,.,.,.<.w.u.p.t.p.g.j.h.f.u.$.. ",
"  3 3 3 h ! ! ! R .. .} } } } } } } } } } } } } } } } } } } { % z ,.,.,.,.w.s.h.i.t.u.h.d.t.y.$.. ",
"  3 3 3 h ! ! ! R } } } } } } } } } } } } } } } } } } } }  .{ % l ,.,.,.<.w.i.p.y.t.t.p.i.t.t.$.. ",
"  3 3 3 h ! ! ! ~ } } } } } } } } } } }  .} } } } } } } } } { % l ,.,.,.<.w.t.t.t.u.i.t.t.t.t.$.. ",
"  3 3 3 h ! ! ! R } } } } } } }  .} } } } } } } } } } } } [ { % z ,.,.,.<.w.t.t.t.s.h.u.t.t.y.$.. ",
"  3 3 3 h ! ! ! R } } } } } } } } } } } } } } } } } } } } } { % l ,.,.,.<.w.t.t.t.u.a.t.t.t.t.$.. ",
"  3 3 3 h ~ ! ! E ..} } } } } } } } } } } } } } } }  .} } } { % l ,.,.,.<.7.r.t.t.t.t.t.t.t.y.$.. ",
"  3 3 3 h ! ! ! E ..} } } } } } } } } } } } } } } } } } }  .{ % l :.,.,.,.,.6.t.t.t.t.t.t.t.t.$.. ",
"  3 3 3 h ~ ! ! R }  .} } } } } } } } } } } } } } } } } } } } D w l -.<.,.,.<.6.r.y.t.t.y.q.N 2   ",
"  3 3 3 h ! ! ! R } [ } } } } } } }  .} } } } [ } } } }  .} }  .S 9 M *.,.,.,.<.7.9.9.9.5.=.#     ",
"  3 3 3 h ! ! ! R } } } } } } } } } } } } } } } } } } } } } } } } ) % c :.:.:.:.:.;.:.,.m .       ",
"  3 3 3 h ! ! ! R { } } } } } } } } } } } } } } } } } } } } } } } { D a : : : : : : : > * .       ",
"  3 3 3 h ! ! ! ~ } } } } } } } } } } } } } } } } } } } } } } } } }  .S 8 8 8 8 8 8 8 O o @       ",
"  3 3 3 j ! ! ! E } } } } } } } } } } } } } } } } } } } } } } } } } } } } } { ] ] [ ` 1 3 3       ",
"  3 3 3 h ! ! ! ~ } } } } } } } } } } } } } } } } } } } } } } } } } } } } } [ | | [ ' e 3 3       ",
"  3 3 3 h ! ! ! ~ } } } } } } } } } } } } } }  .} } } }  .} } } } } } } } } [ [ | [ ' y 3 3       ",
"    3 3 h ! ! ! E ..} } } } } } } } } } } } } } } } } } } } } } } } } } } } [ | [ [ ' e 3 3       ",
"      3 h ~ ! ! ! E ..} } } } } } } } } } } } } } } } } } } } } [ } } } } } } [ }  .' y 3 3       ",
"      3 d P ! ! ! ! X.} } } } } } }  .} } } } } } } } } } } } } } } } } } }  .[ [ } ' y 3 3       ",
"      3 3 7 Y ! ! ! O.} } } } } } } } } } } } } } } } } } } } } } } } } } } [ ] [ [ ` 1 3 3       ",
"      3 3 6 Q ! ! ! ~ o.} } } } } } } } } } } } } } } } } } } } } } } } } } [ | | A u , 3         ",
"      3 2 7 Y ! ! ! ! R X.{ } } } } } } } } } } } } }  .} } } } } } } } } } [ | | Z > , 3         ",
"        2 6 Y ! ! ! ! ! ! O.} } } } }  .} } } } } } } } } } } } } } } } } } [ ] ] G , 5 3         ",
"        3 3 7 k ! ! ! ! ! ~ E E ' } } } } } } } } } } [ | ] | | [ [ [ [ | | | ) p 1 , 3 3         ",
"        3 3 3 h ! ! ! ! ! E o.o...} } } } } } } } } [ [ [ [ [ [ [ [ A A Z Z Z Z < ; , ,           ",
"        3 3 3 h Q ! ! ! ! O.} } } } } } } } } } } } } } } } } } } { t 3 4 3 3 3 3 3 3             ",
"            3 6 d Q ! ! ! O.} } } } } } } } } } } } } } } } } } } } T I P 7 3 3 3 3               ",
"            3 3 7 Q ! ! ! O.} } } } } } } }  .} } } } } } } } } } } X.E W 7 3 3 3                 ",
"            3 3 7 Q ! ! ! O. .} } } } } } } } } } } } } } } } } } } { ..Q s 3 3                   ",
"              3 7 Q ! ! ! O. .} } } } } } } } } } } }  .} } } } } } } } ' s > 3                   ",
"              3 6 h I ! ! O. .} } } } } } } } } } } } } } } } } } } } / G 1 , ,                   ",
"              3 3 2 j ~ ! O.} } } } }  .} } } } } } } } } } } } } } } J 3 3 3                     ",
"              3 3 3 j ! ! R E } } } } } } } } } } } } } } } } } } }  .J 3                         ",
"                3 3 s k ! ! R } } } } } } } } } } } } } } } } } } }  .J 3                         ",
"                  3 2 7 Q ! R { } } } } } } } } } } } } } } } } } } { H 3                         ",
"                    2 7 Q ! ! R +.} }  .} } } } } } } } } } } } } { i < 3                         ",
"                    3 6 h I ! ! o.O.X...} } } } } } } } } } } } } { r 2                           ",
"                    3 3 2 h Q ! ! ! ! O.} { } } } } } } } } } ' ' / r 2                           ",
"                        3 4 s Q ! ! ! R R R ..}  . .}  . .} } i 1 1                               ",
"                          2 7 g g g g g g g f G G G G G G G F u 2                                 ",
"                              3 3 3 3 2 3 2 2 2 2 3 3 > 2 2 2                                     "
};
