/* XPM */
static char *player_right_21675266208[] = {
/* columns rows colors chars-per-pixel */
"52 64 155 2 ",
"   c None",
".  c #000000",
"X  c #0E0101",
"o  c #05050A",
"O  c #09090D",
"+  c #0A050B",
"@  c #100000",
"#  c #10060B",
"$  c #0C0A11",
"%  c #100F19",
"&  c #2C0708",
"*  c #3D0606",
"=  c #0D1021",
"-  c #101325",
";  c #121822",
":  c #1E1D2F",
">  c #151A35",
",  c #1D1F34",
"<  c #151E3D",
"1  c #351527",
"2  c #371926",
"3  c #2E1F32",
"4  c #361D32",
"5  c #3D1F30",
"6  c #1E2034",
"7  c #222034",
"8  c #2B2134",
"9  c #352334",
"0  c #3A2334",
"q  c #480503",
"w  c #460604",
"e  c #570909",
"r  c #6B0906",
"t  c #6B0A09",
"y  c #790B08",
"u  c #451F2F",
"i  c #4B1F2F",
"p  c #561F2E",
"a  c #5E1E2C",
"s  c #441F30",
"d  c #491E37",
"f  c #401F3C",
"g  c #631E2B",
"h  c #6D1D2A",
"j  c #7F1924",
"k  c #711D2A",
"l  c #781D29",
"z  c #452534",
"x  c #4C2633",
"c  c #542733",
"v  c #592733",
"b  c #5F2833",
"n  c #62212D",
"m  c #7F242D",
"M  c #642933",
"N  c #6B2A33",
"B  c #722A33",
"V  c #7C2C33",
"C  c #243044",
"Z  c #313854",
"A  c #2D3363",
"S  c #293873",
"D  c #2E3D7D",
"F  c #303975",
"G  c #374969",
"H  c #97100F",
"J  c #971011",
"K  c #9D1010",
"L  c #A21213",
"P  c #B21516",
"I  c #BC1A1E",
"U  c #B91313",
"Y  c #871D27",
"T  c #8C1C26",
"R  c #941C25",
"E  c #9B1C24",
"W  c #A51B23",
"Q  c #AA1B22",
"!  c #B71B20",
"~  c #BA1B20",
"^  c #802C33",
"/  c #8C2E33",
"(  c #942F32",
")  c #992F32",
"_  c #9E3032",
"`  c #A8292B",
"'  c #BE2426",
"]  c #B52E2E",
"[  c #BA2D2D",
"{  c #A33132",
"}  c #AC3232",
"|  c #B03332",
" . c #C01414",
".. c #C51418",
"X. c #C61A1E",
"o. c #CD1A1D",
"O. c #C91515",
"+. c #D61716",
"@. c #DD1516",
"#. c #D61A1C",
"$. c #DB1A1C",
"%. c #ED1313",
"&. c #E51B1B",
"*. c #ED1919",
"=. c #F11414",
"-. c #F01817",
";. c #F11919",
":. c #C62425",
">. c #CA2626",
",. c #C42929",
"<. c #D22323",
"1. c #DA2020",
"2. c #37438A",
"3. c #3B4893",
"4. c #4451A5",
"5. c #4655AD",
"6. c #4856AF",
"7. c #5162AE",
"8. c #5A78AC",
"9. c #5672A4",
"0. c #5D7CB1",
"q. c #5263C8",
"w. c #5668D4",
"e. c #596CDC",
"r. c #5466D1",
"t. c #5B6EE1",
"y. c #5C71E4",
"u. c #6076E8",
"i. c #657EEB",
"p. c #6485C1",
"a. c #7499DC",
"s. c #6781E9",
"d. c #6B87EC",
"f. c #6C88ED",
"g. c #779EE2",
"h. c #789FE4",
"j. c #7393F2",
"k. c #779BF1",
"l. c #7A9FF7",
"z. c #78A0E5",
"x. c #7BA1F7",
"c. c #7DA4F9",
"v. c #81ACF7",
"b. c #83AEFC",
"n. c #86B2FF",
"m. c #8AB5FF",
"M. c #8EB8FF",
"N. c #92B9FE",
"B. c #99BDFE",
"V. c #A3C4FF",
"C. c #ACC8FD",
"Z. c #B2CCFD",
"A. c #BDD3FD",
"S. c #C3D6FC",
"D. c #CADAFC",
/* pixels */
"                              7 7 7 7 7 7 7 6 6 6 7 7 7 6 7 7 7 7 7                                     ",
"                            7 7 7 7 7 7 7 7 3 6 6 7 7 6 6 3 6 6 6 3 7 7                                 ",
"                          7 7 7 8 9 9 9 9 9 9 9 9 4 5 5 f 5 5 5 4 0 3 7 7                               ",
"                    7 7 7 7 7 7 N _ _ _ _ _ ) _ _ :.#.#.#.#.#.#.#.o.u , 7 7 7 7                         ",
"                    7 7 7 c N N ) } } } ] >.<.<.<.&.;.*.*.;.*.*.*.*.W T Y 4 3 6 ,                       ",
"                  7 7 8 9 V | } } } ] ] ,.*.*.*.*.*.*.*.*.*.*.*.*.*.;.-.&.g 5 5 3 3                     ",
"              7 7 7 6 9 ) { } } } ] &.&.*.*.*.*.*.*.*.*.*.*.*.*.*.*.*.*.*.$.#.o.z , 7                   ",
"              7 7 7 x V } } } } ,.<.*.*.*.*.*.*.*.*.*.*.*.*.*.*.*.*.*.*.*.*.-.&.W g 7 7                 ",
"            7 7 8 9 V } } } } ] 1.-.*.*.*.*.*.*.*.*.*.*.*.*.*.*.*.*.*.*.*.*.*.*.-.E 3 6 7               ",
"            7 7 9 ( } } } } [ &.*.*.*.*.*.*.*.*.*.*.*.*.*.*.*.*.*.*.*.*.*.*.*.*.;.E 6 6 7               ",
"          7 7 x V } } } } ,.1.*.*.*.*.*.*.*.*.*.*.*.*.*.*.*.*.*.*.*.*.*.*.*.*.*.*.o.T 4 6 7             ",
"        7 7 7 B } } } } ] 1.*.*.*.*.*.*.*.*.*.*.*.*.*.*.*.*.-.*.*.*.*.*.*.*.*.*.*.;.$.u 7 7             ",
"        7 7 7 B } } } [ &.*.*.*.*.*.*.*.*.*.*.*.*.*.*.*.*.*.*.*.*.*.*.*.*.*.*.*.*.*.$.u 3 ,             ",
"        7 6 6 N } } } ] &.*.*.*.*.*.*.*.*.*.*.*.*.*.*.*.*.*.*.*.*.*.*.*.*.;.;.;.;.;.&.z 3 ,             ",
"        7 8 9 V } } | ,.&.*.*.*.*.*.*.*.*.*.*.*.*.*.*.*.*.*.*.*.*.*.*.*.*.O.U  . . .P 2 > 7             ",
"      7 7 9 ) } } } <.*.*.*.*.*.*.*.*.*.*.*.*.*.*.*.*.*.*.*.*.*.*.*.*.*.&.* X X @ X X . % 6 7 7         ",
"      7 7 9 { } } } <.*.*.*.*.*.*.*.*.*.*.*.*.*.*.*.*.*.*.*.*.*.*.*.*.U e X > 2.2.2.2.2.A : % $         ",
"      7 7 0 _ } } } <.*.*.*.*.*.*.*.*.*.*.*.*.*.*.*.*.*.*.*.*.*.*.*.;.J . % F u.y.u.i.i.7.Z O .         ",
"      7 7 9 _ } } } <.;.*.*.*.*.*.*.*.*.*.*.*.*.*.*.*.*.*.*.*.*.*.*.-.J o 5.e.t.t.f.n.b.b.a.; .         ",
"      7 7 9 { } } } <.*.*.*.*.*.*.*.*.*.*.*.*.*.*.*.*.*.*.*.*.*.*.*.y d 3.r.t.t.j.c.n.n.n.b.8.G .       ",
"      7 7 0 _ } } } <.*.*.*.*.*.*.*.*.*.*.*.*.*.*.*.*.*.*.*.*.;.@.P 1 S y.t.u.s.c.n.n.n.M.N.M.9.6       ",
"      7 7 9 _ } } } <.*.*.*.*.*.*.*.*.*.*.*.*.*.*.*.*.*.*.*.*.;.L # 4.e.t.t.d.b.n.n.n.n.V.S.M.b.a.;     ",
"      7 7 0 { } } } <.*.*.*.*.*.*.*.*.*.*.*.*.*.*.*.*.*.*.*.*.;.K o 5.y.t.e.f.n.n.n.m.C.A.D.Z.V.z.; .   ",
"      7 7 9 _ } } } <.;.*.*.*.*.*.*.*.*.*.*.*.*.*.*.*.*.*.*.*.;.K o 6.t.t.t.f.n.N.M.m.Z.S.D.S.V.z.; .   ",
"      7 7 9 { } } } <.*.*.*.*.*.*.*.*.*.*.*.*.*.*.*.*.*.*.*.*.;.K o 6.y.t.t.d.n.A.C.n.n.V.D.N.m.h.; .   ",
"      7 7 9 _ } } } <.*.*.*.*.*.*.*.*.*.*.*.*.*.*.*.*.*.*.*.*.;.K o 5.y.t.t.f.n.B.N.n.b.N.B.m.n.h.; .   ",
"      7 7 9 _ } } } <.*.*.*.*.*.*.*.*.*.*.*.*.*.*.*.*.*.*.*.*.;.K o 6.y.t.t.f.n.n.n.n.N.M.n.n.n.h.; .   ",
"      7 7 9 { } } } <.*.*.*.*.*.*.*.*.*.*.*.*.*.*.*.*.*.*.*.*.;.K o 6.t.t.t.f.n.n.n.M.A.C.n.n.n.h.; .   ",
"      8 6 9 _ } } } <.*.*.*.*.*.*.*.*.*.*.*.*.*.*.*.*.*.*.*.*.;.K o 5.y.t.e.f.n.n.n.n.B.N.n.n.n.h.; .   ",
"      7 7 9 { } } } <.*.*.*.*.*.*.*.*.*.*.*.*.*.*.*.*.*.*.*.*.-.K o 5.t.t.t.s.x.n.n.n.n.n.n.n.n.h.; .   ",
"      7 7 9 { } } } <.*.*.*.*.*.*.*.*.*.*.-.*.*.*.*.*.*.*.*.*.-.K + 5.t.t.t.y.y.c.n.n.n.n.n.n.n.g.;     ",
"      7 7 9 _ } } } <.;.*.*.*.*.*.*.*.*.*.*.*.*.*.*.*.*.*.*.*.-.#.L 4 D y.y.e.y.i.j.n.m.n.n.m.8.C       ",
"      7 7 9 { } } } ,.1.*.*.*.*.*.*.*.*.*.*.*.*.*.*.*.*.*.*.*.*.;.*.r 5 4.w.t.t.e.i.l.l.l.k.p.G .       ",
"      7 7 9 _ } } } } [ &.*.*.*.*.*.*.*.*.*.*.;.*.*.*.*.*.*.*.*.*.*.*.J $ 6.t.t.e.e.e.e.e.q.- .         ",
"      7 7 9 _ } } } } [ &.;.*.*.*.*.*.*.*.*.*.*.*.*.*.*.*.*.*.*.*.*.-.+.L 4 < < < < < > < > o .         ",
"      7 7 0 { } } } } [ &.;.*.*.*.*.*.*.*.*.*.*.*.*.*.*.*.*.*.*.*.*.*.*.&.t w w q q q q & + $ $         ",
"      7 7 9 _ } } } } [ &.*.*.*.*.*.*.*.*.*.*.*.*.*.*.*.*.*.*.*.*.*.*.*.*.*.*.%.%.%.%.%.R 7 7 7         ",
"      7 6 9 _ } } } } [ *.*.*.*.*.*.*.*.*.*.*.*.*.*.*.*.*.*.*.*.*.*.*.*.*.*.*.*.%.%.%.%.R 7 7 7         ",
"      7 6 9 _ } } } } | <.*.*.*.*.*.*.*.*.*.*.*.*.*.*.*.*.*.*.*.*.*.*.*.*.*.*.*.%.%.%.-.R 6 7 7         ",
"      7 3 0 _ } } } } } } <.*.*.*.*.*.*.*.*.*.*.*.*.*.*.*.*.*.*.*.*.*.*.*.*.*.*.%.%.%.;.R 6 7 7         ",
"      7 7 9 { } } } } } } <.*.*.*.*.*.*.*.*.*.*.*.*.*.*.*.*.*.*.*.*.*.*.;.*.*.*.*.*.*.-.R 7 7 7         ",
"      7 7 0 _ } } } } } } ,.1.*.*.*.*.*.*.*.*.*.*.*.*.*.*.*.*.*.*.*.*.o.Q @.;.*.*.%.%.-.R 6 7 7         ",
"      7 7 0 _ } } } } } } } [ *.*.*.*.*.*.*.*.*.*.*.*.*.*.*.*.*.*.*.-.W 4 I &.&.%.%.%.&.R 7 7 7         ",
"      7 7 7 0 V } } } } } } [ *.*.*.*.*.*.*.*.*.*.*.*.*.*.*.*.*.*.*.-.$.I g i i ` ' ] g 4 7             ",
"      7 7 7 6 B } } } } } } ] <.&.*.*.*.*.*.*.*.*.*.*.*.*.*.*.*.*.*.*.-.*.Y d 3 M V N 8 7 7             ",
"      7 7 7 7 N } } } } } } } } <.*.*.*.*.*.*.*.*.*.*.*.*.*.*.*.*.*.*.-.*.*.W 4 8 8 8 7 7 7             ",
"        7 7 6 8 c { | | } } } } ] ,.*.*.*.*.*.*.*.*.*.*.%.%.%.%.%.%.%.%.%.%.@.....j , , 6 7             ",
"        7 8 c 0 8 B B ^ { } } } } ] <.&.*.-.*.*.*.*.*.*.%.%.%.%.%.%.%.%.%.%.%.%.=.I h k k h             ",
"        6 9 { M 8 7 7 0 { } } } } } } <.*.*.*.*.*.*.*.*.*.*.*.*.*.*.*.*.*.*.*.*.*.*.;.*.*.$.i 8 7       ",
"        , 9 _ _ V 8 , 0 { | } } } } } | ] [ 1.-.*.*.*.*.*.*.*.*.*.*.*.*.*.*.*.*.*.*.*.*.*.*.o.l 6 7     ",
"        a m { } _ M v b B B ^ } } } } } } } ,.1.*.*.*.*.*.*.*.*.*.*.*.*.*.*.*.*.*.*.*.*.*.*.;.! h 8 7   ",
"      8 E &.] } } } } ( 8 6 0 _ { { } } } } } [ &.*.*.*.*.*.*.*.*.*.*.*.*.*.*.*.*.*.*.*.*.*.*.*.$.0 6   ",
"    4 ~ &.*.&.,.} } } ( 8 7 7 0 0 c } | } } } } ] ] >.*.*.*.*.*.*.*.*.*.*.*.*.*.*.*.*.*.*.*.*.;.$.5 6   ",
"  7 5 $.*.*.*.>.} } } _ M 9 7 7 6 9 N N ^ } } } } } | <.<.1.*.*.*.*.*.*.*.*.*.*.*.*.*.*.*.*.*.*.$.5 6   ",
"  6 0 $.*.*.*.>.} } } } } b 8 7 7 7 6 6 z _ } } } } } } } [ *.*.&.&.*.*.*.*.*.*.*.*.*.*.*.*.*.*.#.5 ,   ",
"  7 5 $.*.*.*.>.} } } } } _ V 8 7 7 7 6 8 9 / } } } } } } } ] ] ] [ &.-.*.*.*.*.*.*.*.*.*.*.*.;.$.5 3   ",
"  7 0 $.*.*.*.>.} } } } } } / 8 6 7 7 7 7 7 c B N _ } } } } } } } } >.>.<.*.*.*.*.*.*.*.*.*.*.$.' 9 6   ",
"  7 4 I &.&.*.,.} } } } } } ( 9 8 7 7 7 7 7 7 7 7 V { { } } } } } } } } | 1.&.&.&.&.*.&.&.&.*.,.( 9 7   ",
"  7 3 4 V ] ] } } } } } } } { _ x 7 7 7 7 7 7 7 7 8 9 0 / } | } } } } } } ] ] ] ] ] ] ] ] [ [ V 9 3 7   ",
"    3 , N | } } } } } } } } } } c 7 7 7 7 7 7 7 8 7 7 7 v N N _ } } | } } } } } } } } } } { B x 6 ,     ",
"      7 M _ _ } } } } } } } } } c 7 7 7 7 7 7 7 6 7 7 7 7 7 8 ^ _ _ _ _ _ } } } _ _ _ ) _ ( 9 7 6       ",
"      7 8 9 9 B | } | } } } } } c 6 7           7 7 7 7 7 7 , 8 9 9 9 9 0 ) } { x 9 9 9 9 9             ",
"        7 7 7 z N N N M M N N N x   7             7 7 7 7 7 7 7 6 6   7 8 v N M 8 7 6 7 ,               ",
"            7 7 7 6 6 7 7 6 7 6                                         6 7 6 6 7 7                     "
};
