/* XPM */
static char *player_down_11675266207[] = {
/* columns rows colors chars-per-pixel */
"64 64 220 2 ",
"   c None",
".  c #270F1D",
"X  c #280F1D",
"o  c #26101E",
"O  c #27101E",
"+  c #3B111D",
"@  c #3C101C",
"#  c #361E30",
"$  c #361F31",
"%  c #371F31",
"&  c #391F31",
"*  c #3A1F31",
"=  c #3D1F30",
"-  c #3E1F30",
";  c #1F2034",
":  c #202034",
">  c #212034",
",  c #222034",
"<  c #232034",
"1  c #242034",
"2  c #262034",
"3  c #302234",
"4  c #312234",
"5  c #322234",
"6  c #332234",
"7  c #352234",
"8  c #352334",
"9  c #392031",
"0  c #3D2031",
"q  c #3D2333",
"w  c #3F2433",
"e  c #3D2434",
"r  c #3F2434",
"t  c #4A1F2F",
"y  c #4D1E2D",
"u  c #4D1E2E",
"i  c #4D1F2E",
"p  c #4E1E2E",
"a  c #501E2E",
"s  c #401A31",
"d  c #442030",
"f  c #462131",
"g  c #412434",
"h  c #BF1415",
"j  c #BF1516",
"k  c #BE1B1F",
"l  c #972A2E",
"z  c #9E282C",
"x  c #9E292D",
"c  c #9F292D",
"v  c #8C2E32",
"b  c #8E2E32",
"n  c #8F2E32",
"m  c #8E2E33",
"M  c #912E32",
"N  c #9B3032",
"B  c #9C3032",
"V  c #9D3032",
"C  c #9E3032",
"Z  c #9F3032",
"A  c #A72A2D",
"S  c #A32C2E",
"D  c #A22C2F",
"F  c #A32D2F",
"G  c #A42C2E",
"H  c #A92B2D",
"J  c #AA2A2C",
"K  c #B12F2F",
"L  c #B32F2F",
"P  c #B42E2E",
"I  c #B52E2E",
"U  c #B42F2F",
"Y  c #B62E2E",
"T  c #BB2B2B",
"R  c #BA2C2B",
"E  c #B92C2C",
"W  c #B92D2D",
"Q  c #BA2C2C",
"!  c #BA2D2C",
"~  c #BA2D2D",
"^  c #BB2D2D",
"/  c #B4302F",
"(  c #A22D30",
")  c #AA3232",
"_  c #AB3232",
"`  c #AC3232",
"'  c #AD3232",
"]  c #AE3232",
"[  c #B23030",
"{  c #B33030",
"}  c #C01415",
"|  c #C01516",
" . c #C81211",
".. c #CC1312",
"X. c #C11519",
"o. c #C11B1F",
"O. c #C31A1E",
"+. c #C21A1F",
"@. c #C21B1F",
"#. c #C5191D",
"$. c #C51A1E",
"%. c #CD1B1E",
"&. c #CF1C1F",
"*. c #D01413",
"=. c #D01514",
"-. c #D41514",
";. c #D41615",
":. c #D91315",
">. c #DF1717",
",. c #D4191B",
"<. c #D41A1C",
"1. c #D51A1C",
"2. c #D61A1C",
"3. c #D71A1C",
"4. c #D8191B",
"5. c #DF1818",
"6. c #DF1919",
"7. c #D81A1C",
"8. c #D91A1C",
"9. c #DF1E1E",
"0. c #E01717",
"q. c #E31616",
"w. c #E51515",
"e. c #E61515",
"r. c #E71515",
"t. c #E51616",
"y. c #EB1212",
"u. c #ED1111",
"i. c #EF1110",
"p. c #EE1111",
"a. c #EC1212",
"s. c #ED1212",
"d. c #EC1313",
"f. c #ED1313",
"g. c #EE1212",
"h. c #EF1212",
"j. c #EE1313",
"k. c #EF1313",
"l. c #EB1414",
"z. c #ED1414",
"x. c #ED1717",
"c. c #EE1717",
"v. c #E11817",
"b. c #E01718",
"n. c #E01818",
"m. c #E31B1B",
"M. c #E51A1A",
"N. c #E51B1B",
"B. c #E61B1B",
"V. c #E71B1B",
"C. c #E51B1C",
"Z. c #E01D1D",
"A. c #E01E1E",
"S. c #E61C1C",
"D. c #E71C1C",
"F. c #EB1818",
"G. c #EB1918",
"H. c #EA1919",
"J. c #EB1919",
"K. c #ED1818",
"L. c #EC1918",
"P. c #ED1918",
"I. c #EC1919",
"U. c #ED1919",
"Y. c #EE1818",
"T. c #EF1818",
"R. c #EE1919",
"E. c #EF1919",
"W. c #F01919",
"Q. c #4856B1",
"!. c #4856B2",
"~. c #4857B2",
"^. c #4957B2",
"/. c #4A59B5",
"(. c #4E60C6",
"). c #4E61C7",
"_. c #5369C9",
"`. c #5368CA",
"'. c #5A6EE1",
"]. c #5B6EE2",
"[. c #5C70E3",
"{. c #5F75E4",
"}. c #6076E6",
"|. c #6077E6",
" X c #6177E6",
".X c #6177E7",
"XX c #637BE6",
"oX c #637BE7",
"OX c #7CA3F9",
"+X c #7DA3F9",
"@X c #7DA4F9",
"#X c #7EA5F9",
"$X c #7FA5F9",
"%X c #7EA5FA",
"&X c #7EA5FB",
"*X c #81AAFB",
"=X c #81AAFC",
"-X c #81ABFD",
";X c #82ABFC",
":X c #82ABFD",
">X c #88AEFB",
",X c #88AFFD",
"<X c #86B2FF",
"1X c #87B2FF",
"2X c #86B3FF",
"3X c #87B3FF",
"4X c #88B3FF",
"5X c #8CB5FF",
"6X c #8CB6FF",
"7X c #8DB6FF",
"8X c #8EB7FF",
"9X c #94BAFE",
"0X c #94BBFE",
"qX c #95BBFF",
"wX c #96BBFE",
"eX c #AECAFD",
"rX c #AECAFE",
"tX c #B6CFFD",
"yX c #B7CFFD",
"uX c #C9DAFC",
/* pixels */
"                                                                                                                                ",
"                                                                                                                                ",
"                                                                                                                                ",
"                                                                                                                                ",
"                                                                                                                                ",
"                                                                                                                                ",
"                                                                                                                                ",
"                                                                                                                                ",
"                                                                                                                                ",
"                                                                                                                                ",
"                                                                                                                                ",
"                                              > > > > > > > > > > > > > > ; > ; >                                               ",
"                                            > > 6 6 6 6 6 6 6 6 6 9 * * * * * * $ 2                                             ",
"                                          > 2 e n N N N ( ( ( ( H &.2.2.2.2.2.2.o.t 2                                           ",
"                                        > > e M ' ' [ W A.D.D.D.D.U.W.U.U.U.W.W.U.$.t >                                         ",
"                                      > 3 g M _ ' W 9.V.U.U.U.U.U.U.U.U.U.U.U.U.U.J.$.t 2                                       ",
"                                    ; 3 v C _ ' W A.U.U.U.U.U.U.U.U.U.U.U.U.U.U.U.U.U.o.$ ;                                     ",
"                                  2 6 g C ' _ W A.U.U.U.U.U.U.U.U.U.U.U.U.U.U.U.U.U.U.8.a $ 2                                   ",
"                                > 6 v C _ ' W A.U.U.U.U.U.U.U.U.U.U.U.U.U.U.U.U.U.U.U.J.8.k $ >                                 ",
"                                > 6 N ' _ [ 9.U.U.W.W.U.W.U.W.W.U.W.W.U.W.W.U.U.U.U.U.U.W.8.p 1                                 ",
"                                > 4 C ' ' W V.U.H.;.=.=.=.=.=.=.=.=.=.=.=.=.;.J.U.U.U.U.U.U.o.$ >                               ",
"                                > 4 N ' [ 9.U.U.h @ . o O O O O O O O O . X + j U.U.U.U.U.U.2.* >                               ",
"                              > > 4 N ' W S.P.h s ^._._._._._._._._._._.`.`.^.s h P.U.U.U.c.8.p > >                             ",
"                              > > g C / A.U.h s /.XX=X:X-X-X-X-X:X:X=X:X,XOXXX/.- h P.U.P.z.G.o.* ;                             ",
"                              > 4 n _ L m.} s /.XX%X<X<X2X2X2X2X4X<X<XqXyX9X%XXX/.s h J.c.p.T.2.* >                             ",
"                              > 4 C ' I ..@ ^.{.OX<X<X<X<X<X<X<X<X<X6XtXuXyX6X%X}.^.+ -.c.p.P.2.* >                             ",
"                              > 4 N ' I  .. (.XX=X2X<X<X<X<X<X<X<X<X<X9XtX9X6X*X}.).o *.p.p.U.2.* ;                             ",
"                              > 4 C ' I  .X (.}.*X<X<X<X<X<X<X<X<X<X<X4X5X5XtX>X}.).O *.p.p.U.2.* >                             ",
"                              > 4 C ' I  .X (.}.=X2X<X<X<X<X<X<X<X<X<X<X<X6X6X:X}.).O *.p.p.c.2.* >                             ",
"                              > 4 N ' I  .X ).}.%X<X<X<X<X<X<X<X<X<X<X<X6XeX6XOX{.).O *.p.p.U.2.* ;                             ",
"                              > 4 N ' I  .X ).[.XX%X<X<X<X2X2X2X<X<X4X<X4X5X*XXX[.).o =.T.p.T.2.* ;                             ",
"                              > 4 C ' I ..@ ^.'.'.oX%X*X*X*X*X*X*X*X*X*X*XOXXX].'.^.+ ;.p.p.U.2.* >                             ",
"                              > 6 N ' U 0.} s /.].].}.}.}.XX}.}.}.}.}.XX}.}.].]./.s h J.P.P.W.2.* ;                             ",
"                              > 6 N ' U D.x.} - /.).).).(.(.(.).(.(.(.(.(.(.(.^.s h U.U.U.U.U.2.* >                             ",
"                              > 6 N ` U V.x.P.h @ o o O X X O O O O O O O O O + h J.U.J.P.l.U.2.* ;                             ",
"                              > 6 N ` P r.g.P.U.;...=.=.=.=.=.=.=.=.=.=.=.=.=.;.J.U.U.c.p.c.U.2.* >                             ",
"                              > 6 N _ L 0.p.U.U.W.W.W.U.W.W.U.W.U.W.W.U.W.U.W.W.U.U.U.U.p.p.c.2.* >                             ",
"                              > 3 N ' P r.p.P.U.U.U.U.U.U.U.U.U.U.U.U.U.U.U.U.U.U.U.U.c.p.p.U.2.* ;                             ",
"                              > $ N ' U V.c.U.U.U.U.U.U.U.U.U.U.U.U.U.U.U.U.U.U.U.U.U.U.l.p.U.2.* ;                             ",
"                              > 6 N ' P r.z.P.U.U.U.U.U.U.U.U.U.U.U.U.U.U.U.U.U.U.U.U.U.l.p.c.2.* >                             ",
"                              > 3 N ' L w.p.x.U.U.U.U.U.U.U.U.U.U.U.U.U.U.U.U.U.U.U.U.P.p.p.U.2.* ;                             ",
"                              > 6 N ' I w.p.x.x.P.J.c.U.J.c.U.U.W.U.W.U.U.U.U.U.U.U.U.c.y.p.U.2.* >                             ",
"                              > 6 N _ U w.p.g.g.p.p.y.p.p.l.2.,.2.2.D.U.U.U.U.l.U.U.U.U.p.c.U.2.* >                             ",
"                              > 3 N ` U w.p.y.g.y.p.p.p.y.$.p * * f c 9.l.p.p.c.U.U.J.c.p.p.c.2.* ;                             ",
"                              > 6 N ' I w.p.p.p.i.y.i.p.$.t > > ; > e c >.p.y.p.c.U.U.U.p.p.c.2.* ;                             ",
"                              > 6 N ' U >.p.p.y.y.p.y.o.t 2 >     > > q c >.p.p.U.U.J.c.p.l.U.2.* >                             ",
"                              > 6 N ' ' ~ b.p.p.p.i.:.p > > >       > 2 q H 0.y.c.U.U.U.U.U.U.2.* ;                             ",
"                              ; 6 v V _ ' ~ >.w.r.r.X.# > > >       > > 6 N T l.U.U.U.U.U.U.U.2.* >                             ",
"                                2 3 e m C N ( F F l d 2 > 2 >         > 3 m J m.U.U.U.U.U.U.U.2.* ;                             ",
"                                  > 2 3 3 3 3 8 6 4 > > > >           > > g ( W 9.U.U.J.c.U.W.2.* >                             ",
"                                    > > > > > > > > 2 >                 > 3 n _ R >.p.p.p.p.c.2.* ;                             ",
"                                                                        > 2 e C ' R v.p.p.c.U.o.$ >                             ",
"                                                                          > 6 n C N A %.2.,.o.p 2                               ",
"                                                                              7 7 7 6 q - - =                                   ",
"                                                                                                                                ",
"                                                                                                                                ",
"                                                                                                                                ",
"                                                                                                                                ",
"                                                                                                                                ",
"                                                                                                                                ",
"                                                                                                                                ",
"                                                                                                                                ",
"                                                                                                                                ",
"                                                                                                                                "
};
